  0
SECTION
  2
HEADER
  9
$ACADVER
  1
AC1015
  9
$ACADMAINTVER
 70
     6
  9
$DWGCODEPAGE
  3
ANSI_1252
  9
$INSBASE
 10
0.0
 20
0.0
 30
0.0
  9
$EXTMIN
 10
-0.859331086
 20
-0.6138770398
 30
0.0
  9
$EXTMAX
 10
0.3783028072
 20
0.6237568534
 30
0.0
  9
$LIMMIN
 10
0.0
 20
0.0
  9
$LIMMAX
 10
12.0
 20
9.0
  9
$ORTHOMODE
 70
     0
  9
$REGENMODE
 70
     1
  9
$FILLMODE
 70
     1
  9
$QTEXTMODE
 70
     0
  9
$MIRRTEXT
 70
     1
  9
$LTSCALE
 40
1.0
  9
$ATTMODE
 70
     1
  9
$TEXTSIZE
 40
0.1377952756
  9
$TRACEWID
 40
0.05
  9
$TEXTSTYLE
  7
Standard
  9
$CLAYER
  8
0
  9
$CELTYPE
  6
ByLayer
  9
$CECOLOR
 62
   256
  9
$CELTSCALE
 40
1.0
  9
$DISPSILH
 70
     0
  9
$DIMSCALE
 40
1.0
  9
$DIMASZ
 40
0.13
  9
$DIMEXO
 40
0.0
  9
$DIMDLI
 40
0.38
  9
$DIMRND
 40
0.0
  9
$DIMDLE
 40
0.0
  9
$DIMEXE
 40
0.0393700787
  9
$DIMTP
 40
0.0
  9
$DIMTM
 40
0.0
  9
$DIMTXT
 40
0.1377952756
  9
$DIMCEN
 40
0.09
  9
$DIMTSZ
 40
0.0
  9
$DIMTOL
 70
     0
  9
$DIMLIM
 70
     0
  9
$DIMTIH
 70
     1
  9
$DIMTOH
 70
     1
  9
$DIMSE1
 70
     0
  9
$DIMSE2
 70
     0
  9
$DIMTAD
 70
     1
  9
$DIMZIN
 70
     1
  9
$DIMBLK
  1

  9
$DIMASO
 70
     1
  9
$DIMSHO
 70
     1
  9
$DIMPOST
  1

  9
$DIMAPOST
  1

  9
$DIMALT
 70
     0
  9
$DIMALTD
 70
     2
  9
$DIMALTF
 40
25.4
  9
$DIMLFAC
 40
1.0
  9
$DIMTOFL
 70
     0
  9
$DIMTVP
 40
0.0
  9
$DIMTIX
 70
     0
  9
$DIMSOXD
 70
     0
  9
$DIMSAH
 70
     0
  9
$DIMBLK1
  1

  9
$DIMBLK2
  1

  9
$DIMSTYLE
  2
Standard
  9
$DIMCLRD
 70
     0
  9
$DIMCLRE
 70
     0
  9
$DIMCLRT
 70
     0
  9
$DIMTFAC
 40
1.0
  9
$DIMGAP
 40
0.06
  9
$DIMJUST
 70
     0
  9
$DIMSD1
 70
     0
  9
$DIMSD2
 70
     0
  9
$DIMTOLJ
 70
     1
  9
$DIMTZIN
 70
     1
  9
$DIMALTZ
 70
     0
  9
$DIMALTTZ
 70
     0
  9
$DIMUPT
 70
     0
  9
$DIMDEC
 70
     2
  9
$DIMTDEC
 70
     2
  9
$DIMALTU
 70
     2
  9
$DIMALTTD
 70
     2
  9
$DIMTXSTY
  7
Standard
  9
$DIMAUNIT
 70
     0
  9
$DIMADEC
 70
     2
  9
$DIMALTRND
 40
0.0
  9
$DIMAZIN
 70
     0
  9
$DIMDSEP
 70
    46
  9
$DIMATFIT
 70
     3
  9
$DIMFRAC
 70
     0
  9
$DIMLDRBLK
  1

  9
$DIMLUNIT
 70
     2
  9
$DIMLWD
 70
    -2
  9
$DIMLWE
 70
    -2
  9
$DIMTMOVE
 70
     0
  9
$LUNITS
 70
     2
  9
$LUPREC
 70
     2
  9
$SKETCHINC
 40
0.1
  9
$FILLETRAD
 40
0.0
  9
$AUNITS
 70
     0
  9
$AUPREC
 70
     2
  9
$MENU
  1
.
  9
$ELEVATION
 40
0.0
  9
$PELEVATION
 40
0.0
  9
$THICKNESS
 40
0.0
  9
$LIMCHECK
 70
     0
  9
$CHAMFERA
 40
0.0
  9
$CHAMFERB
 40
0.0
  9
$CHAMFERC
 40
0.0
  9
$CHAMFERD
 40
0.0
  9
$SKPOLY
 70
     0
  9
$TDCREATE
 40
2459838.958725521
  9
$TDUCREATE
 40
2459838.542058854
  9
$TDUPDATE
 40
2459838.958758542
  9
$TDUUPDATE
 40
2459838.542091875
  9
$TDINDWG
 40
0.0000000116
  9
$TDUSRTIMER
 40
0.0000000116
  9
$USRTIMER
 70
     1
  9
$ANGBASE
 50
0.0
  9
$ANGDIR
 70
     0
  9
$PDMODE
 70
     0
  9
$PDSIZE
 40
-1.0
  9
$PLINEWID
 40
0.0
  9
$SPLFRAME
 70
     0
  9
$SPLINETYPE
 70
     6
  9
$SPLINESEGS
 70
     8
  9
$HANDSEED
  5
1A8
  9
$SURFTAB1
 70
     6
  9
$SURFTAB2
 70
     6
  9
$SURFTYPE
 70
     6
  9
$SURFU
 70
     6
  9
$SURFV
 70
     6
  9
$UCSBASE
  2

  9
$UCSNAME
  2

  9
$UCSORG
 10
0.0
 20
0.0
 30
0.0
  9
$UCSXDIR
 10
1.0
 20
0.0
 30
0.0
  9
$UCSYDIR
 10
0.0
 20
1.0
 30
0.0
  9
$UCSORTHOREF
  2

  9
$UCSORTHOVIEW
 70
     0
  9
$UCSORGTOP
 10
0.0
 20
0.0
 30
0.0
  9
$UCSORGBOTTOM
 10
0.0
 20
0.0
 30
0.0
  9
$UCSORGLEFT
 10
0.0
 20
0.0
 30
0.0
  9
$UCSORGRIGHT
 10
0.0
 20
0.0
 30
0.0
  9
$UCSORGFRONT
 10
0.0
 20
0.0
 30
0.0
  9
$UCSORGBACK
 10
0.0
 20
0.0
 30
0.0
  9
$PUCSBASE
  2

  9
$PUCSNAME
  2

  9
$PUCSORG
 10
0.0
 20
0.0
 30
0.0
  9
$PUCSXDIR
 10
1.0
 20
0.0
 30
0.0
  9
$PUCSYDIR
 10
0.0
 20
1.0
 30
0.0
  9
$PUCSORTHOREF
  2

  9
$PUCSORTHOVIEW
 70
     0
  9
$PUCSORGTOP
 10
0.0
 20
0.0
 30
0.0
  9
$PUCSORGBOTTOM
 10
0.0
 20
0.0
 30
0.0
  9
$PUCSORGLEFT
 10
0.0
 20
0.0
 30
0.0
  9
$PUCSORGRIGHT
 10
0.0
 20
0.0
 30
0.0
  9
$PUCSORGFRONT
 10
0.0
 20
0.0
 30
0.0
  9
$PUCSORGBACK
 10
0.0
 20
0.0
 30
0.0
  9
$USERI1
 70
     0
  9
$USERI2
 70
     0
  9
$USERI3
 70
     0
  9
$USERI4
 70
     0
  9
$USERI5
 70
     0
  9
$USERR1
 40
0.0
  9
$USERR2
 40
0.0
  9
$USERR3
 40
0.0
  9
$USERR4
 40
0.0
  9
$USERR5
 40
0.0
  9
$WORLDVIEW
 70
     1
  9
$SHADEDGE
 70
     3
  9
$SHADEDIF
 70
    70
  9
$TILEMODE
 70
     1
  9
$MAXACTVP
 70
    64
  9
$PINSBASE
 10
0.0
 20
0.0
 30
0.0
  9
$PLIMCHECK
 70
     0
  9
$PEXTMIN
 10
1.0000000000E+20
 20
1.0000000000E+20
 30
1.0000000000E+20
  9
$PEXTMAX
 10
-1.0000000000E+20
 20
-1.0000000000E+20
 30
-1.0000000000E+20
  9
$PLIMMIN
 10
0.0
 20
0.0
  9
$PLIMMAX
 10
12.0
 20
9.0
  9
$UNITMODE
 70
     0
  9
$VISRETAIN
 70
     1
  9
$PLINEGEN
 70
     0
  9
$PSLTSCALE
 70
     1
  9
$TREEDEPTH
 70
  3020
  9
$CMLSTYLE
  2
Standard
  9
$CMLJUST
 70
     0
  9
$CMLSCALE
 40
1.0
  9
$PROXYGRAPHICS
 70
     1
  9
$MEASUREMENT
 70
     0
  9
$CELWEIGHT
370
    -1
  9
$ENDCAPS
280
     0
  9
$JOINSTYLE
280
     0
  9
$LWDISPLAY
290
     1
  9
$INSUNITS
 70
     1
  9
$HYPERLINKBASE
  1

  9
$STYLESHEET
  1

  9
$XEDIT
290
     1
  9
$CEPSNTYPE
380
     0
  9
$PSTYLEMODE
290
     1
  9
$FINGERPRINTGUID
  2
{26971885-c3db-4c09-b7be-1ede6cc36b6d}
  9
$VERSIONGUID
  2
{FAEB1C32-E019-11D5-929B-00C0DF256EC4}
  9
$EXTNAMES
290
     1
  9
$PSVPSCALE
 40
0.0
  9
$OLESTARTUP
290
     0
  0
ENDSEC
  0
SECTION
  2
CLASSES
  0
CLASS
  1
ACDBDICTIONARYWDFLT
  2
AcDbDictionaryWithDefault
  3
ObjectDBX Classes
 90
        0
280
     0
281
     0
  0
CLASS
  1
VISUALSTYLE
  2
AcDbVisualStyle
  3
ObjectDBX Classes
 90
     4095
280
     0
281
     0
  0
CLASS
  1
MATERIAL
  2
AcDbMaterial
  3
ObjectDBX Classes
 90
     1153
280
     0
281
     0
  0
CLASS
  1
SCALE
  2
AcDbScale
  3
ObjectDBX Classes
 90
     1153
280
     0
281
     0
  0
CLASS
  1
TABLESTYLE
  2
AcDbTableStyle
  3
ObjectDBX Classes
 90
     4095
280
     0
281
     0
  0
CLASS
  1
MLEADERSTYLE
  2
AcDbMLeaderStyle
  3
ACDB_MLEADERSTYLE_CLASS
 90
     4095
280
     0
281
     0
  0
CLASS
  1
SUN
  2
AcDbSun
  3
SCENEOE
 90
     1153
280
     0
281
     0
  0
CLASS
  1
ACDBPLACEHOLDER
  2
AcDbPlaceHolder
  3
ObjectDBX Classes
 90
        0
280
     0
281
     0
  0
CLASS
  1
LAYOUT
  2
AcDbLayout
  3
ObjectDBX Classes
 90
        0
280
     0
281
     0
  0
ENDSEC
  0
SECTION
  2
TABLES
  0
TABLE
  2
VPORT
  5
8
330
0
100
AcDbSymbolTable
 70
     1
  0
VPORT
  5
29
330
8
100
AcDbSymbolTableRecord
100
AcDbViewportTableRecord
  2
*Active
 70
     0
 10
0.0
 20
0.0
 11
1.0
 21
1.0
 12
-0.2405141394
 22
0.0049399068
 13
0.0
 23
0.0
 14
0.5
 24
0.5
 15
0.5
 25
0.5
 16
0.0
 26
0.0
 36
1.0
 17
0.0
 27
0.0
 37
0.0
 40
1.2623865711
 41
1.0
 42
50.0
 43
0.0
 44
0.0
 50
0.0
 51
0.0
 71
     0
 72
   100
 73
     1
 74
     3
 75
     0
 76
     0
 77
     0
 78
     0
281
     0
 65
     1
110
0.0
120
0.0
130
0.0
111
1.0
121
0.0
131
0.0
112
0.0
122
1.0
132
0.0
 79
     0
146
0.0
  0
ENDTAB
  0
TABLE
  2
LTYPE
  5
5
330
0
100
AcDbSymbolTable
 70
     6
  0
LTYPE
  5
14
330
5
100
AcDbSymbolTableRecord
100
AcDbLinetypeTableRecord
  2
ByBlock
 70
     0
  3

 72
    65
 73
     0
 40
0.0
  0
LTYPE
  5
15
330
5
100
AcDbSymbolTableRecord
100
AcDbLinetypeTableRecord
  2
ByLayer
 70
     0
  3

 72
    65
 73
     0
 40
0.0
  0
LTYPE
  5
16
330
5
100
AcDbSymbolTableRecord
100
AcDbLinetypeTableRecord
  2
Continuous
 70
     0
  3
Solid line
 72
    65
 73
     0
 40
0.0
  0
LTYPE
  5
5E
330
5
100
AcDbSymbolTableRecord
100
AcDbLinetypeTableRecord
  2
HIDDEN
 70
     0
  3
Hidden __ __ __ __ __ __ __ __ __ __ __ __ __ __
 72
    65
 73
     2
 40
0.075
 49
0.05
 74
     0
 49
-0.025
 74
     0
  0
LTYPE
  5
5F
330
5
100
AcDbSymbolTableRecord
100
AcDbLinetypeTableRecord
  2
PHANTOM
 70
     0
  3
Phantom ______  __  __  ______  __  __  ______
 72
    65
 73
     6
 40
0.5
 49
0.25
 74
     0
 49
-0.05
 74
     0
 49
0.05
 74
     0
 49
-0.05
 74
     0
 49
0.05
 74
     0
 49
-0.05
 74
     0
  0
LTYPE
  5
60
330
5
100
AcDbSymbolTableRecord
100
AcDbLinetypeTableRecord
  2
CENTER
 70
     0
  3
Center ____ _ ____ _ ____ _ ____ _ ____ _ ____
 72
    65
 73
     4
 40
0.4
 49
0.25
 74
     0
 49
-0.05
 74
     0
 49
0.05
 74
     0
 49
-0.05
 74
     0
  0
LTYPE
  5
61
330
5
100
AcDbSymbolTableRecord
100
AcDbLinetypeTableRecord
  2
CENTERX2
 70
     0
  3
Center (2x) ________  __  ________  __  _____
 72
    65
 73
     4
 40
0.8
 49
0.5
 74
     0
 49
-0.1
 74
     0
 49
0.1
 74
     0
 49
-0.1
 74
     0
  0
LTYPE
  5
62
330
5
100
AcDbSymbolTableRecord
100
AcDbLinetypeTableRecord
  2
DOT2
 70
     0
  3
Dot (.5x) ........................................
 72
    65
 73
     2
 40
0.025
 49
0.0
 74
     0
 49
-0.025
 74
     0
  0
ENDTAB
  0
TABLE
  2
LAYER
  5
2
330
0
100
AcDbSymbolTable
 70
     1
  0
LAYER
  5
10
330
2
100
AcDbSymbolTableRecord
100
AcDbLayerTableRecord
  2
0
 70
     0
 62
     7
  6
Continuous
370
    -3
390
F
  0
ENDTAB
  0
TABLE
  2
STYLE
  5
3
330
0
100
AcDbSymbolTable
 70
     2
  0
STYLE
  5
11
330
3
100
AcDbSymbolTableRecord
100
AcDbTextStyleTableRecord
  2
Standard
 70
     0
 40
0.0
 41
1.0
 50
0.0
 71
     0
 42
0.1377952756
  3
txt
  4

  0
STYLE
  5
1A4
330
3
100
AcDbSymbolTableRecord
100
AcDbTextStyleTableRecord
  2
SLDTEXTSTYLE0
 70
     0
 40
0.0
 41
0.7
 50
0.0
 71
     0
 42
0.1377952756
  3
TXT
  4

  0
ENDTAB
  0
TABLE
  2
VIEW
  5
6
330
0
100
AcDbSymbolTable
 70
     0
  0
ENDTAB
  0
TABLE
  2
UCS
  5
7
330
0
100
AcDbSymbolTable
 70
     0
  0
ENDTAB
  0
TABLE
  2
APPID
  5
9
330
0
100
AcDbSymbolTable
 70
     1
  0
APPID
  5
12
330
9
100
AcDbSymbolTableRecord
100
AcDbRegAppTableRecord
  2
ACAD
 70
     0
  0
ENDTAB
  0
TABLE
  2
DIMSTYLE
  5
A
330
0
100
AcDbSymbolTable
 70
     1
100
AcDbDimStyleTable
  0
DIMSTYLE
105
27
330
A
100
AcDbSymbolTableRecord
100
AcDbDimStyleTableRecord
  2
Standard
 70
     0
178
     0
340
11
  0
ENDTAB
  0
TABLE
  2
BLOCK_RECORD
  5
1
330
0
100
AcDbSymbolTable
 70
     1
  0
BLOCK_RECORD
  5
1F
330
1
100
AcDbSymbolTableRecord
100
AcDbBlockTableRecord
  2
*Model_Space
340
22
  0
BLOCK_RECORD
  5
1B
330
1
100
AcDbSymbolTableRecord
100
AcDbBlockTableRecord
  2
*Paper_Space
340
1E
  0
BLOCK_RECORD
  5
23
330
1
100
AcDbSymbolTableRecord
100
AcDbBlockTableRecord
  2
*Paper_Space0
340
26
  0
ENDTAB
  0
ENDSEC
  0
SECTION
  2
BLOCKS
  0
BLOCK
  5
20
330
1F
100
AcDbEntity
  8
0
100
AcDbBlockBegin
  2
*Model_Space
 70
     0
 10
0.0
 20
0.0
 30
0.0
  3
*Model_Space
  1

  0
ENDBLK
  5
21
330
1F
100
AcDbEntity
  8
0
100
AcDbBlockEnd
  0
BLOCK
  5
1C
330
1B
100
AcDbEntity
 67
     1
  8
0
100
AcDbBlockBegin
  2
*Paper_Space
 70
     0
 10
0.0
 20
0.0
 30
0.0
  3
*Paper_Space
  1

  0
ENDBLK
  5
1D
330
1B
100
AcDbEntity
 67
     1
  8
0
100
AcDbBlockEnd
  0
BLOCK
  5
24
330
23
100
AcDbEntity
  8
0
100
AcDbBlockBegin
  2
*Paper_Space0
 70
     0
 10
0.0
 20
0.0
 30
0.0
  3
*Paper_Space0
  1

  0
ENDBLK
  5
25
330
23
100
AcDbEntity
  8
0
100
AcDbBlockEnd
  0
ENDSEC
  0
SECTION
  2
ENTITIES
  0
CIRCLE
  5
103
330
1F
100
AcDbEntity
  8
0
  6
Continuous
 62
     7
370
    25
100
AcDbCircle
 10
-0.2405141394
 20
0.0049399068
 30
0.0
 40
0.1181102362204727
  0
ARC
  5
104
330
1F
100
AcDbEntity
  8
0
  6
Continuous
 62
     7
370
    25
100
AcDbCircle
 10
-0.2405141394
 20
0.0049399068
 30
0.0
 40
0.6200787401591038
100
AcDbArc
 50
174.6557966933
 51
176.3442033067
  0
ARC
  5
105
330
1F
100
AcDbEntity
  8
0
  6
Continuous
 62
     7
370
    25
100
AcDbCircle
 10
-0.7712747918
 20
-0.1570716535
 30
0.0
 40
0.2362204724409472
100
AcDbArc
 50
94.3549062165
 51
111.5124090639
  0
ARC
  5
106
330
1F
100
AcDbEntity
  8
0
  6
Continuous
 62
     7
370
    25
100
AcDbCircle
 10
-0.2405141394
 20
0.0049399068
 30
0.0
 40
0.5536023622045723
100
AcDbArc
 50
169.6323121828
 51
172.3676878172
  0
ARC
  5
107
330
1F
100
AcDbEntity
  8
0
  6
Continuous
 62
     7
370
    25
100
AcDbCircle
 10
-0.6952331911
 20
0.3230361184
 30
0.0
 40
0.2362204724409393
100
AcDbArc
 50
230.4875909362
 51
247.6450937835
  0
ARC
  5
108
330
1F
100
AcDbEntity
  8
0
  6
Continuous
 62
     7
370
    25
100
AcDbCircle
 10
-0.2405141394
 20
0.0049399068
 30
0.0
 40
0.6200787401592798
100
AcDbArc
 50
165.6557966933
 51
167.3442033067
  0
ARC
  5
109
330
1F
100
AcDbEntity
  8
0
  6
Continuous
 62
     7
370
    25
100
AcDbCircle
 10
-0.7900844392
 20
-0.0720477636
 30
0.0
 40
0.236220472440947
100
AcDbArc
 50
85.3549062165
 51
102.5124090639
  0
ARC
  5
10A
330
1F
100
AcDbEntity
  8
0
  6
Continuous
 62
     7
370
    25
100
AcDbCircle
 10
-0.2405141394
 20
0.0049399068
 30
0.0
 40
0.5536023622049195
100
AcDbArc
 50
160.6323121828
 51
163.3676878172
  0
ARC
  5
10B
330
1F
100
AcDbEntity
  8
0
  6
Continuous
 62
     7
370
    25
100
AcDbCircle
 10
-0.6398736343
 20
0.3902535578
 30
0.0
 40
0.2362204724409476
100
AcDbArc
 50
221.4875909362
 51
238.6450937835
  0
ARC
  5
10C
330
1F
100
AcDbEntity
  8
0
  6
Continuous
 62
     7
370
    25
100
AcDbCircle
 10
-0.2405141394
 20
0.0049399068
 30
0.0
 40
0.6200787401592237
100
AcDbArc
 50
156.6557966933
 51
158.3442033067
  0
ARC
  5
10D
330
1F
100
AcDbEntity
  8
0
  6
Continuous
 62
     7
370
    25
100
AcDbCircle
 10
-0.7953618419
 20
0.0148718182
 30
0.0
 40
0.2362204724409476
100
AcDbArc
 50
76.3549062165
 51
93.5124090639
  0
ARC
  5
10E
330
1F
100
AcDbEntity
  8
0
  6
Continuous
 62
     7
370
    25
100
AcDbCircle
 10
-0.2405141394
 20
0.0049399068
 30
0.0
 40
0.5536023622046566
100
AcDbArc
 50
151.6323121828
 51
154.3676878172
  0
ARC
  5
10F
330
1F
100
AcDbEntity
  8
0
  6
Continuous
 62
     7
370
    25
100
AcDbCircle
 10
-0.5746805213
 20
0.4479832963
 30
0.0
 40
0.2362204724409518
100
AcDbArc
 50
212.4875909362
 51
229.6450937835
  0
ARC
  5
110
330
1F
100
AcDbEntity
  8
0
  6
Continuous
 62
     7
370
    25
100
AcDbCircle
 10
-0.2405141394
 20
0.0049399068
 30
0.0
 40
0.6200787401593886
100
AcDbArc
 50
147.6557966933
 51
149.3442033067
  0
ARC
  5
111
330
1F
100
AcDbEntity
  8
0
  6
Continuous
 62
     7
370
    25
100
AcDbCircle
 10
-0.7869770527
 20
0.1015468434
 30
0.0
 40
0.2362204724409416
100
AcDbArc
 50
67.3549062165
 51
84.5124090639
  0
ARC
  5
112
330
1F
100
AcDbEntity
  8
0
  6
Continuous
 62
     7
370
    25
100
AcDbCircle
 10
-0.2405141394
 20
0.0049399068
 30
0.0
 40
0.5536023622045018
100
AcDbArc
 50
142.6323121828
 51
145.3676878172
  0
ARC
  5
113
330
1F
100
AcDbEntity
  8
0
  6
Continuous
 62
     7
370
    25
100
AcDbCircle
 10
-0.501259123
 20
0.4948038362
 30
0.0
 40
0.2362204724409477
100
AcDbArc
 50
203.4875909362
 51
220.6450937835
  0
ARC
  5
114
330
1F
100
AcDbEntity
  8
0
  6
Continuous
 62
     7
370
    25
100
AcDbCircle
 10
-0.2405141394
 20
0.0049399068
 30
0.0
 40
0.6200787401580353
100
AcDbArc
 50
138.6557966933
 51
140.3442033067
  0
ARC
  5
115
330
1F
100
AcDbEntity
  8
0
  6
Continuous
 62
     7
370
    25
100
AcDbCircle
 10
-0.765136533
 20
0.1858430852
 30
0.0
 40
0.23622047244094
100
AcDbArc
 50
58.3549062165
 51
75.5124090639
  0
ARC
  5
116
330
1F
100
AcDbEntity
  8
0
  6
Continuous
 62
     7
370
    25
100
AcDbCircle
 10
-0.2405141394
 20
0.0049399068
 30
0.0
 40
0.5536023622049223
100
AcDbArc
 50
133.6323121828
 51
136.3676878172
  0
ARC
  5
117
330
1F
100
AcDbEntity
  8
0
  6
Continuous
 62
     7
370
    25
100
AcDbCircle
 10
-0.4214173178
 20
0.5295623003
 30
0.0
 40
0.2362204724409391
100
AcDbArc
 50
194.4875909362
 51
211.6450937835
  0
ARC
  5
118
330
1F
100
AcDbEntity
  8
0
  6
Continuous
 62
     7
370
    25
100
AcDbCircle
 10
-0.2405141394
 20
0.0049399068
 30
0.0
 40
0.6200787401600812
100
AcDbArc
 50
129.6557966933
 51
131.3442033067
  0
ARC
  5
119
330
1F
100
AcDbEntity
  8
0
  6
Continuous
 62
     7
370
    25
100
AcDbCircle
 10
-0.7303780688
 20
0.2656848904
 30
0.0
 40
0.2362204724409435
100
AcDbArc
 50
49.3549062165
 51
66.5124090639
  0
ARC
  5
11A
330
1F
100
AcDbEntity
  8
0
  6
Continuous
 62
     7
370
    25
100
AcDbCircle
 10
-0.2405141394
 20
0.0049399068
 30
0.0
 40
0.5536023622050338
100
AcDbArc
 50
124.6323121828
 51
127.3676878172
  0
ARC
  5
11B
330
1F
100
AcDbEntity
  8
0
  6
Continuous
 62
     7
370
    25
100
AcDbCircle
 10
-0.337121076
 20
0.55140282
 30
0.0
 40
0.2362204724409486
100
AcDbArc
 50
185.4875909362
 51
202.6450937835
  0
ARC
  5
11C
330
1F
100
AcDbEntity
  8
0
  6
Continuous
 62
     7
370
    25
100
AcDbCircle
 10
-0.2405141394
 20
0.0049399068
 30
0.0
 40
0.6200787401593728
100
AcDbArc
 50
120.6557966933
 51
122.3442033067
  0
ARC
  5
11D
330
1F
100
AcDbEntity
  8
0
  6
Continuous
 62
     7
370
    25
100
AcDbCircle
 10
-0.6835575289
 20
0.3391062887
 30
0.0
 40
0.2362204724409442
100
AcDbArc
 50
40.3549062165
 51
57.5124090639
  0
ARC
  5
11E
330
1F
100
AcDbEntity
  8
0
  6
Continuous
 62
     7
370
    25
100
AcDbCircle
 10
-0.2405141394
 20
0.0049399068
 30
0.0
 40
0.5536023622047679
100
AcDbArc
 50
115.6323121828
 51
118.3676878172
  0
ARC
  5
11F
330
1F
100
AcDbEntity
  8
0
  6
Continuous
 62
     7
370
    25
100
AcDbCircle
 10
-0.2504460508
 20
0.5597876092
 30
0.0
 40
0.2362204724409466
100
AcDbArc
 50
176.4875909362
 51
193.6450937835
  0
ARC
  5
120
330
1F
100
AcDbEntity
  8
0
  6
Continuous
 62
     7
370
    25
100
AcDbCircle
 10
-0.2405141394
 20
0.0049399068
 30
0.0
 40
0.6200787401593666
100
AcDbArc
 50
111.6557966933
 51
113.3442033067
  0
ARC
  5
121
330
1F
100
AcDbEntity
  8
0
  6
Continuous
 62
     7
370
    25
100
AcDbCircle
 10
-0.6258277904
 20
0.4042994016
 30
0.0
 40
0.2362204724409493
100
AcDbArc
 50
31.3549062165
 51
48.5124090638
  0
ARC
  5
122
330
1F
100
AcDbEntity
  8
0
  6
Continuous
 62
     7
370
    25
100
AcDbCircle
 10
-0.2405141394
 20
0.0049399068
 30
0.0
 40
0.5536023622047257
100
AcDbArc
 50
106.6323121828
 51
109.3676878172
  0
ARC
  5
123
330
1F
100
AcDbEntity
  8
0
  6
Continuous
 62
     7
370
    25
100
AcDbCircle
 10
-0.163526469
 20
0.5545102065
 30
0.0
 40
0.2362204724409453
100
AcDbArc
 50
167.4875909362
 51
184.6450937835
  0
ARC
  5
124
330
1F
100
AcDbEntity
  8
0
  6
Continuous
 62
     7
370
    25
100
AcDbCircle
 10
-0.2405141394
 20
0.0049399068
 30
0.0
 40
0.620078740158744
100
AcDbArc
 50
102.6557966933
 51
104.3442033067
  0
ARC
  5
125
330
1F
100
AcDbEntity
  8
0
  6
Continuous
 62
     7
370
    25
100
AcDbCircle
 10
-0.5586103511
 20
0.4596589584
 30
0.0
 40
0.2362204724409391
100
AcDbArc
 50
22.3549062165
 51
39.5124090639
  0
ARC
  5
126
330
1F
100
AcDbEntity
  8
0
  6
Continuous
 62
     7
370
    25
100
AcDbCircle
 10
-0.2405141394
 20
0.0049399068
 30
0.0
 40
0.5536023622046935
100
AcDbArc
 50
97.6323121828
 51
100.3676878172
  0
ARC
  5
127
330
1F
100
AcDbEntity
  8
0
  6
Continuous
 62
     7
370
    25
100
AcDbCircle
 10
-0.0785025792
 20
0.5357005592
 30
0.0
 40
0.2362204724409425
100
AcDbArc
 50
158.4875909361
 51
175.6450937835
  0
ARC
  5
128
330
1F
100
AcDbEntity
  8
0
  6
Continuous
 62
     7
370
    25
100
AcDbCircle
 10
-0.2405141394
 20
0.0049399068
 30
0.0
 40
0.6200787401589415
100
AcDbArc
 50
93.6557966933
 51
95.3442033067
  0
ARC
  5
129
330
1F
100
AcDbEntity
  8
0
  6
Continuous
 62
     7
370
    25
100
AcDbCircle
 10
-0.4835603273
 20
0.503821823
 30
0.0
 40
0.2362204724409461
100
AcDbArc
 50
13.3549062165
 51
30.5124090638
  0
ARC
  5
12A
330
1F
100
AcDbEntity
  8
0
  6
Continuous
 62
     7
370
    25
100
AcDbCircle
 10
-0.2405141394
 20
0.0049399068
 30
0.0
 40
0.5536023622045319
100
AcDbArc
 50
88.6323121828
 51
91.3676878172
  0
ARC
  5
12B
330
1F
100
AcDbEntity
  8
0
  6
Continuous
 62
     7
370
    25
100
AcDbCircle
 10
0.0025320484
 20
0.503821823
 30
0.0
 40
0.2362204724409471
100
AcDbArc
 50
149.4875909362
 51
166.6450937835
  0
ARC
  5
12C
330
1F
100
AcDbEntity
  8
0
  6
Continuous
 62
     7
370
    25
100
AcDbCircle
 10
-0.2405141394
 20
0.0049399068
 30
0.0
 40
0.6200787401600427
100
AcDbArc
 50
84.6557966933
 51
86.3442033067
  0
ARC
  5
12D
330
1F
100
AcDbEntity
  8
0
  6
Continuous
 62
     7
370
    25
100
AcDbCircle
 10
-0.4025256997
 20
0.5357005592
 30
0.0
 40
0.2362204724409461
100
AcDbArc
 50
4.3549062165
 51
21.5124090639
  0
ARC
  5
12E
330
1F
100
AcDbEntity
  8
0
  6
Continuous
 62
     7
370
    25
100
AcDbCircle
 10
-0.2405141394
 20
0.0049399068
 30
0.0
 40
0.5536023622049062
100
AcDbArc
 50
79.6323121828
 51
82.3676878172
  0
ARC
  5
12F
330
1F
100
AcDbEntity
  8
0
  6
Continuous
 62
     7
370
    25
100
AcDbCircle
 10
0.0775820722
 20
0.4596589584
 30
0.0
 40
0.2362204724409449
100
AcDbArc
 50
140.4875909362
 51
157.6450937835
  0
ARC
  5
130
330
1F
100
AcDbEntity
  8
0
  6
Continuous
 62
     7
370
    25
100
AcDbCircle
 10
-0.2405141394
 20
0.0049399068
 30
0.0
 40
0.6200787401592737
100
AcDbArc
 50
75.6557966933
 51
77.3442033067
  0
ARC
  5
131
330
1F
100
AcDbEntity
  8
0
  6
Continuous
 62
     7
370
    25
100
AcDbCircle
 10
-0.3175018098
 20
0.5545102065
 30
0.0
 40
0.2362204724409438
100
AcDbArc
 50
355.3549062165
 51
12.5124090639
  0
ARC
  5
132
330
1F
100
AcDbEntity
  8
0
  6
Continuous
 62
     7
370
    25
100
AcDbCircle
 10
-0.2405141394
 20
0.0049399068
 30
0.0
 40
0.5536023622045929
100
AcDbArc
 50
70.6323121828
 51
73.3676878172
  0
ARC
  5
133
330
1F
100
AcDbEntity
  8
0
  6
Continuous
 62
     7
370
    25
100
AcDbCircle
 10
0.1447995116
 20
0.4042994016
 30
0.0
 40
0.2362204724409455
100
AcDbArc
 50
131.4875909362
 51
148.6450937835
  0
ARC
  5
134
330
1F
100
AcDbEntity
  8
0
  6
Continuous
 62
     7
370
    25
100
AcDbCircle
 10
-0.2405141394
 20
0.0049399068
 30
0.0
 40
0.6200787401588975
100
AcDbArc
 50
66.6557966933
 51
68.3442033067
  0
ARC
  5
135
330
1F
100
AcDbEntity
  8
0
  6
Continuous
 62
     7
370
    25
100
AcDbCircle
 10
-0.230582228
 20
0.5597876092
 30
0.0
 40
0.2362204724409471
100
AcDbArc
 50
346.3549062165
 51
3.5124090639
  0
ARC
  5
136
330
1F
100
AcDbEntity
  8
0
  6
Continuous
 62
     7
370
    25
100
AcDbCircle
 10
-0.2405141394
 20
0.0049399068
 30
0.0
 40
0.5536023622047515
100
AcDbArc
 50
61.6323121828
 51
64.3676878172
  0
ARC
  5
137
330
1F
100
AcDbEntity
  8
0
  6
Continuous
 62
     7
370
    25
100
AcDbCircle
 10
0.2025292501
 20
0.3391062887
 30
0.0
 40
0.2362204724409565
100
AcDbArc
 50
122.4875909362
 51
139.6450937835
  0
ARC
  5
138
330
1F
100
AcDbEntity
  8
0
  6
Continuous
 62
     7
370
    25
100
AcDbCircle
 10
-0.2405141394
 20
0.0049399068
 30
0.0
 40
0.6200787401591947
100
AcDbArc
 50
57.6557966933
 51
59.3442033067
  0
ARC
  5
139
330
1F
100
AcDbEntity
  8
0
  6
Continuous
 62
     7
370
    25
100
AcDbCircle
 10
-0.1439072028
 20
0.55140282
 30
0.0
 40
0.236220472440942
100
AcDbArc
 50
337.3549062165
 51
354.5124090639
  0
ARC
  5
13A
330
1F
100
AcDbEntity
  8
0
  6
Continuous
 62
     7
370
    25
100
AcDbCircle
 10
-0.2405141394
 20
0.0049399068
 30
0.0
 40
0.5536023622048879
100
AcDbArc
 50
52.6323121828
 51
55.3676878172
  0
ARC
  5
13B
330
1F
100
AcDbEntity
  8
0
  6
Continuous
 62
     7
370
    25
100
AcDbCircle
 10
0.24934979
 20
0.2656848904
 30
0.0
 40
0.2362204724409533
100
AcDbArc
 50
113.4875909362
 51
130.6450937835
  0
ARC
  5
13C
330
1F
100
AcDbEntity
  8
0
  6
Continuous
 62
     7
370
    25
100
AcDbCircle
 10
-0.2405141394
 20
0.0049399068
 30
0.0
 40
0.620078740158413
100
AcDbArc
 50
48.6557966933
 51
50.3442033067
  0
ARC
  5
13D
330
1F
100
AcDbEntity
  8
0
  6
Continuous
 62
     7
370
    25
100
AcDbCircle
 10
-0.059610961
 20
0.5295623003
 30
0.0
 40
0.2362204724409442
100
AcDbArc
 50
328.3549062165
 51
345.5124090639
  0
ARC
  5
13E
330
1F
100
AcDbEntity
  8
0
  6
Continuous
 62
     7
370
    25
100
AcDbCircle
 10
-0.2405141394
 20
0.0049399068
 30
0.0
 40
0.5536023622047607
100
AcDbArc
 50
43.6323121828
 51
46.3676878172
  0
ARC
  5
13F
330
1F
100
AcDbEntity
  8
0
  6
Continuous
 62
     7
370
    25
100
AcDbCircle
 10
0.2841082541
 20
0.1858430852
 30
0.0
 40
0.23622047244095
100
AcDbArc
 50
104.4875909362
 51
121.6450937835
  0
ARC
  5
140
330
1F
100
AcDbEntity
  8
0
  6
Continuous
 62
     7
370
    25
100
AcDbCircle
 10
-0.2405141394
 20
0.0049399068
 30
0.0
 40
0.6200787401595789
100
AcDbArc
 50
39.6557966933
 51
41.3442033067
  0
ARC
  5
141
330
1F
100
AcDbEntity
  8
0
  6
Continuous
 62
     7
370
    25
100
AcDbCircle
 10
0.0202308442
 20
0.4948038362
 30
0.0
 40
0.2362204724409384
100
AcDbArc
 50
319.3549062165
 51
336.5124090639
  0
ARC
  5
142
330
1F
100
AcDbEntity
  8
0
  6
Continuous
 62
     7
370
    25
100
AcDbCircle
 10
-0.2405141394
 20
0.0049399068
 30
0.0
 40
0.5536023622048788
100
AcDbArc
 50
34.6323121828
 51
37.3676878172
  0
ARC
  5
143
330
1F
100
AcDbEntity
  8
0
  6
Continuous
 62
     7
370
    25
100
AcDbCircle
 10
0.3059487738
 20
0.1015468434
 30
0.0
 40
0.2362204724409464
100
AcDbArc
 50
95.4875909362
 51
112.6450937835
  0
ARC
  5
144
330
1F
100
AcDbEntity
  8
0
  6
Continuous
 62
     7
370
    25
100
AcDbCircle
 10
-0.2405141394
 20
0.0049399068
 30
0.0
 40
0.6200787401600016
100
AcDbArc
 50
30.6557966933
 51
32.3442033067
  0
ARC
  5
145
330
1F
100
AcDbEntity
  8
0
  6
Continuous
 62
     7
370
    25
100
AcDbCircle
 10
0.0936522425
 20
0.4479832963
 30
0.0
 40
0.2362204724409454
100
AcDbArc
 50
310.3549062165
 51
327.5124090639
  0
ARC
  5
146
330
1F
100
AcDbEntity
  8
0
  6
Continuous
 62
     7
370
    25
100
AcDbCircle
 10
-0.2405141394
 20
0.0049399068
 30
0.0
 40
0.5536023622049367
100
AcDbArc
 50
25.6323121828
 51
28.3676878172
  0
ARC
  5
147
330
1F
100
AcDbEntity
  8
0
  6
Continuous
 62
     7
370
    25
100
AcDbCircle
 10
0.314333563
 20
0.0148718182
 30
0.0
 40
0.2362204724409497
100
AcDbArc
 50
86.4875909362
 51
103.6450937835
  0
ARC
  5
148
330
1F
100
AcDbEntity
  8
0
  6
Continuous
 62
     7
370
    25
100
AcDbCircle
 10
-0.2405141394
 20
0.0049399068
 30
0.0
 40
0.6200787401586257
100
AcDbArc
 50
21.6557966933
 51
23.3442033067
  0
ARC
  5
149
330
1F
100
AcDbEntity
  8
0
  6
Continuous
 62
     7
370
    25
100
AcDbCircle
 10
0.1588453554
 20
0.3902535578
 30
0.0
 40
0.2362204724409408
100
AcDbArc
 50
301.3549062165
 51
318.5124090639
  0
ARC
  5
14A
330
1F
100
AcDbEntity
  8
0
  6
Continuous
 62
     7
370
    25
100
AcDbCircle
 10
-0.2405141394
 20
0.0049399068
 30
0.0
 40
0.5536023622046761
100
AcDbArc
 50
16.6323121828
 51
19.3676878172
  0
ARC
  5
14B
330
1F
100
AcDbEntity
  8
0
  6
Continuous
 62
     7
370
    25
100
AcDbCircle
 10
0.3090561603
 20
-0.0720477636
 30
0.0
 40
0.2362204724409486
100
AcDbArc
 50
77.4875909362
 51
94.6450937835
  0
ARC
  5
14C
330
1F
100
AcDbEntity
  8
0
  6
Continuous
 62
     7
370
    25
100
AcDbCircle
 10
-0.2405141394
 20
0.0049399068
 30
0.0
 40
0.6200787401589843
100
AcDbArc
 50
12.6557966933
 51
14.3442033067
  0
ARC
  5
14D
330
1F
100
AcDbEntity
  8
0
  6
Continuous
 62
     7
370
    25
100
AcDbCircle
 10
0.2142049122
 20
0.3230361184
 30
0.0
 40
0.2362204724409465
100
AcDbArc
 50
292.3549062165
 51
309.5124090639
  0
ARC
  5
14E
330
1F
100
AcDbEntity
  8
0
  6
Continuous
 62
     7
370
    25
100
AcDbCircle
 10
-0.2405141394
 20
0.0049399068
 30
0.0
 40
0.5536023622048571
100
AcDbArc
 50
7.6323121828
 51
10.3676878172
  0
ARC
  5
14F
330
1F
100
AcDbEntity
  8
0
  6
Continuous
 62
     7
370
    25
100
AcDbCircle
 10
0.290246513
 20
-0.1570716535
 30
0.0
 40
0.2362204724409428
100
AcDbArc
 50
68.4875909362
 51
85.6450937835
  0
ARC
  5
150
330
1F
100
AcDbEntity
  8
0
  6
Continuous
 62
     7
370
    25
100
AcDbCircle
 10
-0.2405141394
 20
0.0049399068
 30
0.0
 40
0.6200787401589646
100
AcDbArc
 50
3.6557966933
 51
5.3442033067
  0
ARC
  5
151
330
1F
100
AcDbEntity
  8
0
  6
Continuous
 62
     7
370
    25
100
AcDbCircle
 10
0.2583677768
 20
0.2479860946
 30
0.0
 40
0.2362204724409437
100
AcDbArc
 50
283.3549062165
 51
300.5124090639
  0
ARC
  5
152
330
1F
100
AcDbEntity
  8
0
  6
Continuous
 62
     7
370
    25
100
AcDbCircle
 10
-0.2405141394
 20
0.0049399068
 30
0.0
 40
0.553602362204952
100
AcDbArc
 50
358.6323121828
 51
1.3676878172
  0
ARC
  5
153
330
1F
100
AcDbEntity
  8
0
  6
Continuous
 62
     7
370
    25
100
AcDbCircle
 10
0.2583677768
 20
-0.2381062811
 30
0.0
 40
0.2362204724409491
100
AcDbArc
 50
59.4875909362
 51
76.6450937835
  0
ARC
  5
154
330
1F
100
AcDbEntity
  8
0
  6
Continuous
 62
     7
370
    25
100
AcDbCircle
 10
-0.2405141394
 20
0.0049399068
 30
0.0
 40
0.6200787401588475
100
AcDbArc
 50
354.6557966933
 51
356.3442033067
  0
ARC
  5
155
330
1F
100
AcDbEntity
  8
0
  6
Continuous
 62
     7
370
    25
100
AcDbCircle
 10
0.290246513
 20
0.166951467
 30
0.0
 40
0.2362204724409478
100
AcDbArc
 50
274.3549062165
 51
291.5124090639
  0
ARC
  5
156
330
1F
100
AcDbEntity
  8
0
  6
Continuous
 62
     7
370
    25
100
AcDbCircle
 10
-0.2405141394
 20
0.0049399068
 30
0.0
 40
0.5536023622047528
100
AcDbArc
 50
349.6323121828
 51
352.3676878172
  0
ARC
  5
157
330
1F
100
AcDbEntity
  8
0
  6
Continuous
 62
     7
370
    25
100
AcDbCircle
 10
0.2142049122
 20
-0.3131563049
 30
0.0
 40
0.2362204724409451
100
AcDbArc
 50
50.4875909362
 51
67.6450937835
  0
ARC
  5
158
330
1F
100
AcDbEntity
  8
0
  6
Continuous
 62
     7
370
    25
100
AcDbCircle
 10
-0.2405141394
 20
0.0049399068
 30
0.0
 40
0.6200787401589218
100
AcDbArc
 50
345.6557966933
 51
347.3442033067
  0
ARC
  5
159
330
1F
100
AcDbEntity
  8
0
  6
Continuous
 62
     7
370
    25
100
AcDbCircle
 10
0.3090561603
 20
0.0819275772
 30
0.0
 40
0.2362204724409474
100
AcDbArc
 50
265.3549062165
 51
282.5124090639
  0
ARC
  5
15A
330
1F
100
AcDbEntity
  8
0
  6
Continuous
 62
     7
370
    25
100
AcDbCircle
 10
-0.2405141394
 20
0.0049399068
 30
0.0
 40
0.553602362204901
100
AcDbArc
 50
340.6323121828
 51
343.3676878172
  0
ARC
  5
15B
330
1F
100
AcDbEntity
  8
0
  6
Continuous
 62
     7
370
    25
100
AcDbCircle
 10
0.1588453554
 20
-0.3803737442
 30
0.0
 40
0.2362204724409485
100
AcDbArc
 50
41.4875909362
 51
58.6450937835
  0
ARC
  5
15C
330
1F
100
AcDbEntity
  8
0
  6
Continuous
 62
     7
370
    25
100
AcDbCircle
 10
-0.2405141394
 20
0.0049399068
 30
0.0
 40
0.6200787401595145
100
AcDbArc
 50
336.6557966933
 51
338.3442033067
  0
ARC
  5
15D
330
1F
100
AcDbEntity
  8
0
  6
Continuous
 62
     7
370
    25
100
AcDbCircle
 10
0.314333563
 20
-0.0049920046
 30
0.0
 40
0.2362204724409468
100
AcDbArc
 50
256.3549062165
 51
273.5124090639
  0
ARC
  5
15E
330
1F
100
AcDbEntity
  8
0
  6
Continuous
 62
     7
370
    25
100
AcDbCircle
 10
-0.2405141394
 20
0.0049399068
 30
0.0
 40
0.5536023622048234
100
AcDbArc
 50
331.6323121828
 51
334.3676878172
  0
ARC
  5
15F
330
1F
100
AcDbEntity
  8
0
  6
Continuous
 62
     7
370
    25
100
AcDbCircle
 10
0.0936522425
 20
-0.4381034827
 30
0.0
 40
0.236220472440942
100
AcDbArc
 50
32.4875909362
 51
49.6450937835
  0
ARC
  5
160
330
1F
100
AcDbEntity
  8
0
  6
Continuous
 62
     7
370
    25
100
AcDbCircle
 10
-0.2405141394
 20
0.0049399068
 30
0.0
 40
0.6200787401592935
100
AcDbArc
 50
327.6557966933
 51
329.3442033067
  0
ARC
  5
161
330
1F
100
AcDbEntity
  8
0
  6
Continuous
 62
     7
370
    25
100
AcDbCircle
 10
0.3059487738
 20
-0.0916670298
 30
0.0
 40
0.236220472440948
100
AcDbArc
 50
247.3549062165
 51
264.5124090639
  0
ARC
  5
162
330
1F
100
AcDbEntity
  8
0
  6
Continuous
 62
     7
370
    25
100
AcDbCircle
 10
-0.2405141394
 20
0.0049399068
 30
0.0
 40
0.5536023622048201
100
AcDbArc
 50
322.6323121828
 51
325.3676878172
  0
ARC
  5
163
330
1F
100
AcDbEntity
  8
0
  6
Continuous
 62
     7
370
    25
100
AcDbCircle
 10
0.0202308442
 20
-0.4849240226
 30
0.0
 40
0.2362204724409479
100
AcDbArc
 50
23.4875909362
 51
40.6450937835
  0
ARC
  5
164
330
1F
100
AcDbEntity
  8
0
  6
Continuous
 62
     7
370
    25
100
AcDbCircle
 10
-0.2405141394
 20
0.0049399068
 30
0.0
 40
0.6200787401590658
100
AcDbArc
 50
318.6557966933
 51
320.3442033067
  0
ARC
  5
165
330
1F
100
AcDbEntity
  8
0
  6
Continuous
 62
     7
370
    25
100
AcDbCircle
 10
0.2841082541
 20
-0.1759632716
 30
0.0
 40
0.2362204724409413
100
AcDbArc
 50
238.3549062165
 51
255.5124090639
  0
ARC
  5
166
330
1F
100
AcDbEntity
  8
0
  6
Continuous
 62
     7
370
    25
100
AcDbCircle
 10
-0.2405141394
 20
0.0049399068
 30
0.0
 40
0.5536023622046777
100
AcDbArc
 50
313.6323121828
 51
316.3676878172
  0
ARC
  5
167
330
1F
100
AcDbEntity
  8
0
  6
Continuous
 62
     7
370
    25
100
AcDbCircle
 10
-0.059610961
 20
-0.5196824868
 30
0.0
 40
0.2362204724409436
100
AcDbArc
 50
14.4875909362
 51
31.6450937835
  0
ARC
  5
168
330
1F
100
AcDbEntity
  8
0
  6
Continuous
 62
     7
370
    25
100
AcDbCircle
 10
-0.2405141394
 20
0.0049399068
 30
0.0
 40
0.6200787401592831
100
AcDbArc
 50
309.6557966933
 51
311.3442033067
  0
ARC
  5
169
330
1F
100
AcDbEntity
  8
0
  6
Continuous
 62
     7
370
    25
100
AcDbCircle
 10
0.24934979
 20
-0.2558050768
 30
0.0
 40
0.2362204724409434
100
AcDbArc
 50
229.3549062165
 51
246.5124090639
  0
ARC
  5
16A
330
1F
100
AcDbEntity
  8
0
  6
Continuous
 62
     7
370
    25
100
AcDbCircle
 10
-0.2405141394
 20
0.0049399068
 30
0.0
 40
0.553602362204828
100
AcDbArc
 50
304.6323121828
 51
307.3676878172
  0
ARC
  5
16B
330
1F
100
AcDbEntity
  8
0
  6
Continuous
 62
     7
370
    25
100
AcDbCircle
 10
-0.1439072028
 20
-0.5415230065
 30
0.0
 40
0.2362204724409476
100
AcDbArc
 50
5.4875909362
 51
22.6450937835
  0
ARC
  5
16C
330
1F
100
AcDbEntity
  8
0
  6
Continuous
 62
     7
370
    25
100
AcDbCircle
 10
-0.2405141394
 20
0.0049399068
 30
0.0
 40
0.6200787401595086
100
AcDbArc
 50
300.6557966933
 51
302.3442033067
  0
ARC
  5
16D
330
1F
100
AcDbEntity
  8
0
  6
Continuous
 62
     7
370
    25
100
AcDbCircle
 10
0.2025292501
 20
-0.3292264751
 30
0.0
 40
0.2362204724409476
100
AcDbArc
 50
220.3549062165
 51
237.5124090639
  0
ARC
  5
16E
330
1F
100
AcDbEntity
  8
0
  6
Continuous
 62
     7
370
    25
100
AcDbCircle
 10
-0.2405141394
 20
0.0049399068
 30
0.0
 40
0.5536023622048932
100
AcDbArc
 50
295.6323121828
 51
298.3676878172
  0
ARC
  5
16F
330
1F
100
AcDbEntity
  8
0
  6
Continuous
 62
     7
370
    25
100
AcDbCircle
 10
-0.230582228
 20
-0.5499077957
 30
0.0
 40
0.2362204724409452
100
AcDbArc
 50
356.4875909362
 51
13.6450937835
  0
ARC
  5
170
330
1F
100
AcDbEntity
  8
0
  6
Continuous
 62
     7
370
    25
100
AcDbCircle
 10
-0.2405141394
 20
0.0049399068
 30
0.0
 40
0.6200787401589525
100
AcDbArc
 50
291.6557966933
 51
293.3442033067
  0
ARC
  5
171
330
1F
100
AcDbEntity
  8
0
  6
Continuous
 62
     7
370
    25
100
AcDbCircle
 10
0.1447995116
 20
-0.3944195881
 30
0.0
 40
0.2362204724409431
100
AcDbArc
 50
211.3549062165
 51
228.5124090639
  0
ARC
  5
172
330
1F
100
AcDbEntity
  8
0
  6
Continuous
 62
     7
370
    25
100
AcDbCircle
 10
-0.2405141394
 20
0.0049399068
 30
0.0
 40
0.5536023622050171
100
AcDbArc
 50
286.6323121828
 51
289.3676878172
  0
ARC
  5
173
330
1F
100
AcDbEntity
  8
0
  6
Continuous
 62
     7
370
    25
100
AcDbCircle
 10
-0.3175018098
 20
-0.544630393
 30
0.0
 40
0.2362204724409451
100
AcDbArc
 50
347.4875909362
 51
4.6450937835
  0
ARC
  5
174
330
1F
100
AcDbEntity
  8
0
  6
Continuous
 62
     7
370
    25
100
AcDbCircle
 10
-0.2405141394
 20
0.0049399068
 30
0.0
 40
0.6200787401591225
100
AcDbArc
 50
282.6557966933
 51
284.3442033067
  0
ARC
  5
175
330
1F
100
AcDbEntity
  8
0
  6
Continuous
 62
     7
370
    25
100
AcDbCircle
 10
0.0775820722
 20
-0.4497791448
 30
0.0
 40
0.2362204724409455
100
AcDbArc
 50
202.3549062165
 51
219.5124090639
  0
ARC
  5
176
330
1F
100
AcDbEntity
  8
0
  6
Continuous
 62
     7
370
    25
100
AcDbCircle
 10
-0.2405141394
 20
0.0049399068
 30
0.0
 40
0.5536023622049112
100
AcDbArc
 50
277.6323121828
 51
280.3676878172
  0
ARC
  5
177
330
1F
100
AcDbEntity
  8
0
  6
Continuous
 62
     7
370
    25
100
AcDbCircle
 10
-0.4025256997
 20
-0.5258207456
 30
0.0
 40
0.2362204724409466
100
AcDbArc
 50
338.4875909362
 51
355.6450937835
  0
ARC
  5
178
330
1F
100
AcDbEntity
  8
0
  6
Continuous
 62
     7
370
    25
100
AcDbCircle
 10
-0.2405141394
 20
0.0049399068
 30
0.0
 40
0.6200787401598504
100
AcDbArc
 50
273.6557966933
 51
275.3442033067
  0
ARC
  5
179
330
1F
100
AcDbEntity
  8
0
  6
Continuous
 62
     7
370
    25
100
AcDbCircle
 10
0.0025320484
 20
-0.4939420095
 30
0.0
 40
0.2362204724409463
100
AcDbArc
 50
193.3549062165
 51
210.5124090639
  0
ARC
  5
17A
330
1F
100
AcDbEntity
  8
0
  6
Continuous
 62
     7
370
    25
100
AcDbCircle
 10
-0.2405141394
 20
0.0049399068
 30
0.0
 40
0.5536023622049404
100
AcDbArc
 50
268.6323121828
 51
271.3676878172
  0
ARC
  5
17B
330
1F
100
AcDbEntity
  8
0
  6
Continuous
 62
     7
370
    25
100
AcDbCircle
 10
-0.4835603273
 20
-0.4939420095
 30
0.0
 40
0.2362204724409505
100
AcDbArc
 50
329.4875909362
 51
346.6450937835
  0
ARC
  5
17C
330
1F
100
AcDbEntity
  8
0
  6
Continuous
 62
     7
370
    25
100
AcDbCircle
 10
-0.2405141394
 20
0.0049399068
 30
0.0
 40
0.6200787401584835
100
AcDbArc
 50
264.6557966933
 51
266.3442033067
  0
ARC
  5
17D
330
1F
100
AcDbEntity
  8
0
  6
Continuous
 62
     7
370
    25
100
AcDbCircle
 10
-0.0785025792
 20
-0.5258207456
 30
0.0
 40
0.2362204724409415
100
AcDbArc
 50
184.3549062165
 51
201.5124090639
  0
ARC
  5
17E
330
1F
100
AcDbEntity
  8
0
  6
Continuous
 62
     7
370
    25
100
AcDbCircle
 10
-0.2405141394
 20
0.0049399068
 30
0.0
 40
0.5536023622049884
100
AcDbArc
 50
259.6323121828
 51
262.3676878172
  0
ARC
  5
17F
330
1F
100
AcDbEntity
  8
0
  6
Continuous
 62
     7
370
    25
100
AcDbCircle
 10
-0.5586103511
 20
-0.4497791448
 30
0.0
 40
0.2362204724409391
100
AcDbArc
 50
320.4875909362
 51
337.6450937835
  0
ARC
  5
180
330
1F
100
AcDbEntity
  8
0
  6
Continuous
 62
     7
370
    25
100
AcDbCircle
 10
-0.2405141394
 20
0.0049399068
 30
0.0
 40
0.6200787401593105
100
AcDbArc
 50
255.6557966933
 51
257.3442033067
  0
ARC
  5
181
330
1F
100
AcDbEntity
  8
0
  6
Continuous
 62
     7
370
    25
100
AcDbCircle
 10
-0.163526469
 20
-0.544630393
 30
0.0
 40
0.2362204724409416
100
AcDbArc
 50
175.3549062165
 51
192.5124090639
  0
ARC
  5
182
330
1F
100
AcDbEntity
  8
0
  6
Continuous
 62
     7
370
    25
100
AcDbCircle
 10
-0.2405141394
 20
0.0049399068
 30
0.0
 40
0.5536023622050251
100
AcDbArc
 50
250.6323121828
 51
253.3676878172
  0
ARC
  5
183
330
1F
100
AcDbEntity
  8
0
  6
Continuous
 62
     7
370
    25
100
AcDbCircle
 10
-0.6258277904
 20
-0.3944195881
 30
0.0
 40
0.2362204724409509
100
AcDbArc
 50
311.4875909362
 51
328.6450937835
  0
ARC
  5
184
330
1F
100
AcDbEntity
  8
0
  6
Continuous
 62
     7
370
    25
100
AcDbCircle
 10
-0.2405141394
 20
0.0049399068
 30
0.0
 40
0.6200787401581831
100
AcDbArc
 50
246.6557966933
 51
248.3442033067
  0
ARC
  5
185
330
1F
100
AcDbEntity
  8
0
  6
Continuous
 62
     7
370
    25
100
AcDbCircle
 10
-0.2504460508
 20
-0.5499077957
 30
0.0
 40
0.2362204724409497
100
AcDbArc
 50
166.3549062165
 51
183.5124090639
  0
ARC
  5
186
330
1F
100
AcDbEntity
  8
0
  6
Continuous
 62
     7
370
    25
100
AcDbCircle
 10
-0.2405141394
 20
0.0049399068
 30
0.0
 40
0.5536023622049159
100
AcDbArc
 50
241.6323121828
 51
244.3676878172
  0
ARC
  5
187
330
1F
100
AcDbEntity
  8
0
  6
Continuous
 62
     7
370
    25
100
AcDbCircle
 10
-0.6835575289
 20
-0.3292264751
 30
0.0
 40
0.2362204724409478
100
AcDbArc
 50
302.4875909362
 51
319.6450937835
  0
ARC
  5
188
330
1F
100
AcDbEntity
  8
0
  6
Continuous
 62
     7
370
    25
100
AcDbCircle
 10
-0.2405141394
 20
0.0049399068
 30
0.0
 40
0.6200787401580428
100
AcDbArc
 50
237.6557966933
 51
239.3442033067
  0
ARC
  5
189
330
1F
100
AcDbEntity
  8
0
  6
Continuous
 62
     7
370
    25
100
AcDbCircle
 10
-0.337121076
 20
-0.5415230065
 30
0.0
 40
0.2362204724409533
100
AcDbArc
 50
157.3549062165
 51
174.5124090639
  0
ARC
  5
18A
330
1F
100
AcDbEntity
  8
0
  6
Continuous
 62
     7
370
    25
100
AcDbCircle
 10
-0.2405141394
 20
0.0049399068
 30
0.0
 40
0.5536023622047797
100
AcDbArc
 50
232.6323121828
 51
235.3676878172
  0
ARC
  5
18B
330
1F
100
AcDbEntity
  8
0
  6
Continuous
 62
     7
370
    25
100
AcDbCircle
 10
-0.7303780688
 20
-0.2558050768
 30
0.0
 40
0.2362204724409466
100
AcDbArc
 50
293.4875909362
 51
310.6450937835
  0
ARC
  5
18C
330
1F
100
AcDbEntity
  8
0
  6
Continuous
 62
     7
370
    25
100
AcDbCircle
 10
-0.2405141394
 20
0.0049399068
 30
0.0
 40
0.6200787401588
100
AcDbArc
 50
228.6557966933
 51
230.3442033067
  0
ARC
  5
18D
330
1F
100
AcDbEntity
  8
0
  6
Continuous
 62
     7
370
    25
100
AcDbCircle
 10
-0.4214173178
 20
-0.5196824868
 30
0.0
 40
0.2362204724409435
100
AcDbArc
 50
148.3549062165
 51
165.5124090639
  0
ARC
  5
18E
330
1F
100
AcDbEntity
  8
0
  6
Continuous
 62
     7
370
    25
100
AcDbCircle
 10
-0.2405141394
 20
0.0049399068
 30
0.0
 40
0.5536023622048432
100
AcDbArc
 50
223.6323121828
 51
226.3676878172
  0
ARC
  5
18F
330
1F
100
AcDbEntity
  8
0
  6
Continuous
 62
     7
370
    25
100
AcDbCircle
 10
-0.765136533
 20
-0.1759632716
 30
0.0
 40
0.2362204724409476
100
AcDbArc
 50
284.4875909362
 51
301.6450937835
  0
ARC
  5
190
330
1F
100
AcDbEntity
  8
0
  6
Continuous
 62
     7
370
    25
100
AcDbCircle
 10
-0.2405141394
 20
0.0049399068
 30
0.0
 40
0.6200787401576489
100
AcDbArc
 50
219.6557966933
 51
221.3442033067
  0
ARC
  5
191
330
1F
100
AcDbEntity
  8
0
  6
Continuous
 62
     7
370
    25
100
AcDbCircle
 10
-0.501259123
 20
-0.4849240226
 30
0.0
 40
0.2362204724409489
100
AcDbArc
 50
139.3549062165
 51
156.5124090639
  0
ARC
  5
192
330
1F
100
AcDbEntity
  8
0
  6
Continuous
 62
     7
370
    25
100
AcDbCircle
 10
-0.2405141394
 20
0.0049399068
 30
0.0
 40
0.5536023622049576
100
AcDbArc
 50
214.6323121828
 51
217.3676878172
  0
ARC
  5
193
330
1F
100
AcDbEntity
  8
0
  6
Continuous
 62
     7
370
    25
100
AcDbCircle
 10
-0.7869770527
 20
-0.0916670298
 30
0.0
 40
0.2362204724409514
100
AcDbArc
 50
275.4875909362
 51
292.6450937835
  0
ARC
  5
194
330
1F
100
AcDbEntity
  8
0
  6
Continuous
 62
     7
370
    25
100
AcDbCircle
 10
-0.2405141394
 20
0.0049399068
 30
0.0
 40
0.620078740159765
100
AcDbArc
 50
210.6557966933
 51
212.3442033067
  0
ARC
  5
195
330
1F
100
AcDbEntity
  8
0
  6
Continuous
 62
     7
370
    25
100
AcDbCircle
 10
-0.5746805213
 20
-0.4381034827
 30
0.0
 40
0.2362204724409505
100
AcDbArc
 50
130.3549062165
 51
147.5124090639
  0
ARC
  5
196
330
1F
100
AcDbEntity
  8
0
  6
Continuous
 62
     7
370
    25
100
AcDbCircle
 10
-0.2405141394
 20
0.0049399068
 30
0.0
 40
0.5536023622044368
100
AcDbArc
 50
205.6323121828
 51
208.3676878172
  0
ARC
  5
197
330
1F
100
AcDbEntity
  8
0
  6
Continuous
 62
     7
370
    25
100
AcDbCircle
 10
-0.7953618419
 20
-0.0049920046
 30
0.0
 40
0.2362204724409496
100
AcDbArc
 50
266.4875909362
 51
283.6450937835
  0
ARC
  5
198
330
1F
100
AcDbEntity
  8
0
  6
Continuous
 62
     7
370
    25
100
AcDbCircle
 10
-0.2405141394
 20
0.0049399068
 30
0.0
 40
0.6200787401598339
100
AcDbArc
 50
201.6557966933
 51
203.3442033067
  0
ARC
  5
199
330
1F
100
AcDbEntity
  8
0
  6
Continuous
 62
     7
370
    25
100
AcDbCircle
 10
-0.6398736343
 20
-0.3803737442
 30
0.0
 40
0.2362204724409493
100
AcDbArc
 50
121.3549062165
 51
138.5124090639
  0
ARC
  5
19A
330
1F
100
AcDbEntity
  8
0
  6
Continuous
 62
     7
370
    25
100
AcDbCircle
 10
-0.2405141394
 20
0.0049399068
 30
0.0
 40
0.553602362204639
100
AcDbArc
 50
196.6323121828
 51
199.3676878172
  0
ARC
  5
19B
330
1F
100
AcDbEntity
  8
0
  6
Continuous
 62
     7
370
    25
100
AcDbCircle
 10
-0.7900844392
 20
0.0819275772
 30
0.0
 40
0.2362204724409426
100
AcDbArc
 50
257.4875909362
 51
274.6450937835
  0
ARC
  5
19C
330
1F
100
AcDbEntity
  8
0
  6
Continuous
 62
     7
370
    25
100
AcDbCircle
 10
-0.2405141394
 20
0.0049399068
 30
0.0
 40
0.6200787401587976
100
AcDbArc
 50
192.6557966933
 51
194.3442033067
  0
ARC
  5
19D
330
1F
100
AcDbEntity
  8
0
  6
Continuous
 62
     7
370
    25
100
AcDbCircle
 10
-0.6952331911
 20
-0.3131563049
 30
0.0
 40
0.2362204724409517
100
AcDbArc
 50
112.3549062165
 51
129.5124090638
  0
ARC
  5
19E
330
1F
100
AcDbEntity
  8
0
  6
Continuous
 62
     7
370
    25
100
AcDbCircle
 10
-0.2405141394
 20
0.0049399068
 30
0.0
 40
0.5536023622048033
100
AcDbArc
 50
187.6323121828
 51
190.3676878172
  0
ARC
  5
19F
330
1F
100
AcDbEntity
  8
0
  6
Continuous
 62
     7
370
    25
100
AcDbCircle
 10
-0.7712747918
 20
0.166951467
 30
0.0
 40
0.2362204724409431
100
AcDbArc
 50
248.4875909362
 51
265.6450937835
  0
ARC
  5
1A0
330
1F
100
AcDbEntity
  8
0
  6
Continuous
 62
     7
370
    25
100
AcDbCircle
 10
-0.2405141394
 20
0.0049399068
 30
0.0
 40
0.6200787401598467
100
AcDbArc
 50
183.6557966933
 51
185.3442033067
  0
ARC
  5
1A1
330
1F
100
AcDbEntity
  8
0
  6
Continuous
 62
     7
370
    25
100
AcDbCircle
 10
-0.7393960557
 20
-0.2381062811
 30
0.0
 40
0.2362204724409429
100
AcDbArc
 50
103.3549062165
 51
120.5124090639
  0
ARC
  5
1A2
330
1F
100
AcDbEntity
  8
0
  6
Continuous
 62
     7
370
    25
100
AcDbCircle
 10
-0.2405141394
 20
0.0049399068
 30
0.0
 40
0.5536023622051793
100
AcDbArc
 50
178.6323121828
 51
181.3676878172
  0
ARC
  5
1A3
330
1F
100
AcDbEntity
  8
0
  6
Continuous
 62
     7
370
    25
100
AcDbCircle
 10
-0.7393960557
 20
0.2479860946
 30
0.0
 40
0.2362204724409443
100
AcDbArc
 50
239.4875909362
 51
256.6450937835
  0
MTEXT
  5
1A5
330
1F
100
AcDbEntity
  8
0
  6
Continuous
 62
     7
100
AcDbMText
 10
-0.859331086
 20
-0.6540174489
 30
0.0
 40
0.1903
 41
0.0
 71
     1
 72
     1
  1
SOLIDWORKS Educational Product.
  7
SLDTEXTSTYLE0
 73
     1
 44
1.0
  0
MTEXT
  5
1A6
330
1F
100
AcDbEntity
  8
0
  6
Continuous
 62
     7
100
AcDbMText
 10
-0.859331086
 20
-0.9394674489
 30
0.0
 40
0.1903
 41
0.0
 71
     1
 72
     1
  1
For Instructional Use Only.
  7
SLDTEXTSTYLE0
 73
     1
 44
1.0
  0
ENDSEC
  0
SECTION
  2
OBJECTS
  0
DICTIONARY
  5
C
330
0
100
AcDbDictionary
281
     1
  3
ACAD_GROUP
350
D
  3
ACAD_LAYOUT
350
1A
  3
ACAD_MLINESTYLE
350
17
  3
ACAD_PLOTSETTINGS
350
19
  3
ACAD_PLOTSTYLENAME
350
E
  3
ACAD_SCALELIST
350
47
  3
DWGPROPS
350
1A7
  0
DICTIONARY
  5
D
102
{ACAD_REACTORS
330
C
102
}
330
C
100
AcDbDictionary
281
     1
  0
DICTIONARY
  5
1A
102
{ACAD_REACTORS
330
C
102
}
330
C
100
AcDbDictionary
281
     1
  3
Layout1
350
1E
  3
Layout2
350
26
  3
Model
350
22
  0
DICTIONARY
  5
17
102
{ACAD_REACTORS
330
C
102
}
330
C
100
AcDbDictionary
281
     1
  3
Standard
350
18
  0
DICTIONARY
  5
19
102
{ACAD_REACTORS
330
C
102
}
330
C
100
AcDbDictionary
281
     1
  0
ACDBDICTIONARYWDFLT
  5
E
102
{ACAD_REACTORS
330
C
102
}
330
C
100
AcDbDictionary
281
     1
  3
Normal
350
F
100
AcDbDictionaryWithDefault
340
F
  0
DICTIONARY
  5
47
102
{ACAD_REACTORS
330
C
102
}
330
C
100
AcDbDictionary
281
     1
  3
A0
350
48
  3
A1
350
49
  3
A2
350
4A
  3
A3
350
4B
  3
A4
350
4C
  3
A5
350
4D
  3
A6
350
4E
  3
A7
350
4F
  3
A8
350
50
  3
A9
350
51
  3
B1
350
52
  3
B2
350
53
  3
B3
350
54
  3
B4
350
55
  3
B5
350
56
  3
B6
350
57
  3
B7
350
58
  0
XRECORD
  5
1A7
102
{ACAD_REACTORS
330
C
102
}
330
C
100
AcDbXrecord
280
     1
  1
DWGPROPS COOKIE
  2

  3

  4

  6

  7

  8
Nathan
  9

300
=
301
=
302
=
303
=
304
=
305
=
306
=
307
=
308
=
309
=
 40
0.0
 41
2459838.542058854
 42
2459838.542091875
  1

 90
        0
  0
LAYOUT
  5
1E
102
{ACAD_REACTORS
330
1A
102
}
330
1A
100
AcDbPlotSettings
  1

  2
none_device
  4

  6

 40
0.0
 41
0.0
 42
0.0
 43
0.0
 44
0.0
 45
0.0
 46
0.0
 47
0.0
 48
0.0
 49
0.0
140
0.0
141
0.0
142
1.0
143
1.0
 70
   688
 72
     0
 73
     0
 74
     5
  7

 75
    16
147
1.0
148
0.0
149
0.0
100
AcDbLayout
  1
Layout1
 70
     1
 71
     1
 10
0.0
 20
0.0
 11
12.0
 21
9.0
 12
0.0
 22
0.0
 32
0.0
 14
1.0000000000E+20
 24
1.0000000000E+20
 34
1.0000000000E+20
 15
-1.0000000000E+20
 25
-1.0000000000E+20
 35
-1.0000000000E+20
146
0.0
 13
0.0
 23
0.0
 33
0.0
 16
1.0
 26
0.0
 36
0.0
 17
0.0
 27
1.0
 37
0.0
 76
     0
330
1B
  0
LAYOUT
  5
26
102
{ACAD_REACTORS
330
1A
102
}
330
1A
100
AcDbPlotSettings
  1

  2
none_device
  4

  6

 40
0.0
 41
0.0
 42
0.0
 43
0.0
 44
0.0
 45
0.0
 46
0.0
 47
0.0
 48
0.0
 49
0.0
140
0.0
141
0.0
142
1.0
143
1.0
 70
   688
 72
     0
 73
     0
 74
     5
  7

 75
    16
147
1.0
148
0.0
149
0.0
100
AcDbLayout
  1
Layout2
 70
     1
 71
     2
 10
0.0
 20
0.0
 11
0.0
 21
0.0
 12
0.0
 22
0.0
 32
0.0
 14
0.0
 24
0.0
 34
0.0
 15
0.0
 25
0.0
 35
0.0
146
0.0
 13
0.0
 23
0.0
 33
0.0
 16
1.0
 26
0.0
 36
0.0
 17
0.0
 27
1.0
 37
0.0
 76
     0
330
23
  0
LAYOUT
  5
22
102
{ACAD_REACTORS
330
1A
102
}
330
1A
100
AcDbPlotSettings
  1

  2
none_device
  4
ANSI_A_(11.00_x_8.50_Inches)
  6

 40
6.35
 41
19.05
 42
6.35000508
 43
19.05000254
 44
279.4
 45
215.9
 46
174.8871054507
 47
88.0468703363
 48
0.0
 49
0.0
140
0.0
141
0.0
142
6.7992643433
143
1.0
 70
  1696
 72
     0
 73
     0
 74
     0
  7

 75
     0
147
0.5913241897
148
-39.4088153714
149
0.0
100
AcDbLayout
  1
Model
 70
     1
 71
     0
 10
0.0
 20
0.0
 11
12.0
 21
9.0
 12
0.0
 22
0.0
 32
0.0
 14
-0.859331086
 24
-0.6138770398
 34
0.0
 15
0.3783028072
 25
0.6237568534
 35
0.0
146
0.0
 13
0.0
 23
0.0
 33
0.0
 16
1.0
 26
0.0
 36
0.0
 17
0.0
 27
1.0
 37
0.0
 76
     0
330
1F
331
29
  0
MLINESTYLE
  5
18
102
{ACAD_REACTORS
330
17
102
}
330
17
100
AcDbMlineStyle
  2
Standard
 70
     0
  3

 62
   256
 51
90.0
 52
90.0
 71
     2
 49
0.5
 62
   256
  6
BYLAYER
 49
-0.5
 62
   256
  6
BYLAYER
  0
ACDBPLACEHOLDER
  5
F
102
{ACAD_REACTORS
330
E
102
}
330
E
  0
SCALE
  5
48
102
{ACAD_REACTORS
330
47
102
}
330
47
100
AcDbScale
 70
     0
300
1:1
140
1.0
141
1.0
290
     1
  0
SCALE
  5
49
102
{ACAD_REACTORS
330
47
102
}
330
47
100
AcDbScale
 70
     0
300
1/128" = 1'-0"
140
0.0078125
141
12.0
290
     0
  0
SCALE
  5
4A
102
{ACAD_REACTORS
330
47
102
}
330
47
100
AcDbScale
 70
     0
300
1/64" = 1'-0"
140
0.015625
141
12.0
290
     0
  0
SCALE
  5
4B
102
{ACAD_REACTORS
330
47
102
}
330
47
100
AcDbScale
 70
     0
300
1/32" = 1'-0"
140
0.03125
141
12.0
290
     0
  0
SCALE
  5
4C
102
{ACAD_REACTORS
330
47
102
}
330
47
100
AcDbScale
 70
     0
300
1/16" = 1'-0"
140
0.0625
141
12.0
290
     0
  0
SCALE
  5
4D
102
{ACAD_REACTORS
330
47
102
}
330
47
100
AcDbScale
 70
     0
300
3/32" = 1'-0"
140
0.09375
141
12.0
290
     0
  0
SCALE
  5
4E
102
{ACAD_REACTORS
330
47
102
}
330
47
100
AcDbScale
 70
     0
300
1/8" = 1'-0"
140
0.125
141
12.0
290
     0
  0
SCALE
  5
4F
102
{ACAD_REACTORS
330
47
102
}
330
47
100
AcDbScale
 70
     0
300
3/16" = 1'-0"
140
0.1875
141
12.0
290
     0
  0
SCALE
  5
50
102
{ACAD_REACTORS
330
47
102
}
330
47
100
AcDbScale
 70
     0
300
1/4" = 1'-0"
140
0.25
141
12.0
290
     0
  0
SCALE
  5
51
102
{ACAD_REACTORS
330
47
102
}
330
47
100
AcDbScale
 70
     0
300
3/8" = 1'-0"
140
0.375
141
12.0
290
     0
  0
SCALE
  5
52
102
{ACAD_REACTORS
330
47
102
}
330
47
100
AcDbScale
 70
     0
300
1/2" = 1'-0"
140
0.5
141
12.0
290
     0
  0
SCALE
  5
53
102
{ACAD_REACTORS
330
47
102
}
330
47
100
AcDbScale
 70
     0
300
3/4" = 1'-0"
140
0.75
141
12.0
290
     0
  0
SCALE
  5
54
102
{ACAD_REACTORS
330
47
102
}
330
47
100
AcDbScale
 70
     0
300
1" = 1'-0"
140
1.0
141
12.0
290
     0
  0
SCALE
  5
55
102
{ACAD_REACTORS
330
47
102
}
330
47
100
AcDbScale
 70
     0
300
1-1/2" = 1'-0"
140
1.5
141
12.0
290
     0
  0
SCALE
  5
56
102
{ACAD_REACTORS
330
47
102
}
330
47
100
AcDbScale
 70
     0
300
3" = 1'-0"
140
3.0
141
12.0
290
     0
  0
SCALE
  5
57
102
{ACAD_REACTORS
330
47
102
}
330
47
100
AcDbScale
 70
     0
300
6" = 1'-0"
140
6.0
141
12.0
290
     0
  0
SCALE
  5
58
102
{ACAD_REACTORS
330
47
102
}
330
47
100
AcDbScale
 70
     0
300
1'-0" = 1'-0"
140
12.0
141
12.0
290
     0
  0
ENDSEC
  0
EOF
