  0
SECTION
  2
HEADER
  9
$ACADVER
  1
AC1015
  9
$ACADMAINTVER
 70
     6
  9
$DWGCODEPAGE
  3
ANSI_1252
  9
$INSBASE
 10
0.0
 20
0.0
 30
0.0
  9
$EXTMIN
 10
-32.6799699497
 20
-11.5432763985
 30
0.0
  9
$EXTMAX
 10
-1.1483760823
 20
20.0313412454
 30
0.0
  9
$LIMMIN
 10
0.0
 20
0.0
  9
$LIMMAX
 10
420.0
 20
297.0
  9
$ORTHOMODE
 70
     0
  9
$REGENMODE
 70
     1
  9
$FILLMODE
 70
     1
  9
$QTEXTMODE
 70
     0
  9
$MIRRTEXT
 70
     1
  9
$LTSCALE
 40
1.0
  9
$ATTMODE
 70
     1
  9
$TEXTSIZE
 40
3.5
  9
$TRACEWID
 40
1.0
  9
$TEXTSTYLE
  7
Standard
  9
$CLAYER
  8
0
  9
$CELTYPE
  6
ByLayer
  9
$CECOLOR
 62
   256
  9
$CELTSCALE
 40
1.0
  9
$DISPSILH
 70
     0
  9
$DIMSCALE
 40
1.0
  9
$DIMASZ
 40
3.302
  9
$DIMEXO
 40
0.0
  9
$DIMDLI
 40
3.75
  9
$DIMRND
 40
0.0
  9
$DIMDLE
 40
0.0
  9
$DIMEXE
 40
1.0
  9
$DIMTP
 40
0.0
  9
$DIMTM
 40
0.0
  9
$DIMTXT
 40
3.5
  9
$DIMCEN
 40
2.5
  9
$DIMTSZ
 40
0.0
  9
$DIMTOL
 70
     0
  9
$DIMLIM
 70
     0
  9
$DIMTIH
 70
     1
  9
$DIMTOH
 70
     1
  9
$DIMSE1
 70
     0
  9
$DIMSE2
 70
     0
  9
$DIMTAD
 70
     1
  9
$DIMZIN
 70
     1
  9
$DIMBLK
  1

  9
$DIMASO
 70
     1
  9
$DIMSHO
 70
     1
  9
$DIMPOST
  1

  9
$DIMAPOST
  1

  9
$DIMALT
 70
     0
  9
$DIMALTD
 70
     3
  9
$DIMALTF
 40
0.0393700787
  9
$DIMLFAC
 40
1.0
  9
$DIMTOFL
 70
     1
  9
$DIMTVP
 40
0.0
  9
$DIMTIX
 70
     0
  9
$DIMSOXD
 70
     0
  9
$DIMSAH
 70
     0
  9
$DIMBLK1
  1

  9
$DIMBLK2
  1

  9
$DIMSTYLE
  2
ISO-25
  9
$DIMCLRD
 70
     0
  9
$DIMCLRE
 70
     0
  9
$DIMCLRT
 70
     0
  9
$DIMTFAC
 40
1.0
  9
$DIMGAP
 40
1.524
  9
$DIMJUST
 70
     0
  9
$DIMSD1
 70
     0
  9
$DIMSD2
 70
     0
  9
$DIMTOLJ
 70
     0
  9
$DIMTZIN
 70
     1
  9
$DIMALTZ
 70
     0
  9
$DIMALTTZ
 70
     0
  9
$DIMUPT
 70
     0
  9
$DIMDEC
 70
     2
  9
$DIMTDEC
 70
     2
  9
$DIMALTU
 70
     2
  9
$DIMALTTD
 70
     3
  9
$DIMTXSTY
  7
Standard
  9
$DIMAUNIT
 70
     0
  9
$DIMADEC
 70
     2
  9
$DIMALTRND
 40
0.0
  9
$DIMAZIN
 70
     0
  9
$DIMDSEP
 70
    44
  9
$DIMATFIT
 70
     3
  9
$DIMFRAC
 70
     0
  9
$DIMLDRBLK
  1

  9
$DIMLUNIT
 70
     2
  9
$DIMLWD
 70
    -2
  9
$DIMLWE
 70
    -2
  9
$DIMTMOVE
 70
     0
  9
$LUNITS
 70
     2
  9
$LUPREC
 70
     2
  9
$SKETCHINC
 40
1.0
  9
$FILLETRAD
 40
0.0
  9
$AUNITS
 70
     0
  9
$AUPREC
 70
     2
  9
$MENU
  1
.
  9
$ELEVATION
 40
0.0
  9
$PELEVATION
 40
0.0
  9
$THICKNESS
 40
0.0
  9
$LIMCHECK
 70
     0
  9
$CHAMFERA
 40
0.0
  9
$CHAMFERB
 40
0.0
  9
$CHAMFERC
 40
0.0
  9
$CHAMFERD
 40
0.0
  9
$SKPOLY
 70
     0
  9
$TDCREATE
 40
2459838.957732361
  9
$TDUCREATE
 40
2459838.541065694
  9
$TDUPDATE
 40
2459838.957777708
  9
$TDUUPDATE
 40
2459838.541111042
  9
$TDINDWG
 40
0.0000000116
  9
$TDUSRTIMER
 40
0.0000000116
  9
$USRTIMER
 70
     1
  9
$ANGBASE
 50
0.0
  9
$ANGDIR
 70
     0
  9
$PDMODE
 70
     0
  9
$PDSIZE
 40
-1.0
  9
$PLINEWID
 40
0.0
  9
$SPLFRAME
 70
     0
  9
$SPLINETYPE
 70
     6
  9
$SPLINESEGS
 70
     8
  9
$HANDSEED
  5
2FB
  9
$SURFTAB1
 70
     6
  9
$SURFTAB2
 70
     6
  9
$SURFTYPE
 70
     6
  9
$SURFU
 70
     6
  9
$SURFV
 70
     6
  9
$UCSBASE
  2

  9
$UCSNAME
  2

  9
$UCSORG
 10
0.0
 20
0.0
 30
0.0
  9
$UCSXDIR
 10
1.0
 20
0.0
 30
0.0
  9
$UCSYDIR
 10
0.0
 20
1.0
 30
0.0
  9
$UCSORTHOREF
  2

  9
$UCSORTHOVIEW
 70
     0
  9
$UCSORGTOP
 10
0.0
 20
0.0
 30
0.0
  9
$UCSORGBOTTOM
 10
0.0
 20
0.0
 30
0.0
  9
$UCSORGLEFT
 10
0.0
 20
0.0
 30
0.0
  9
$UCSORGRIGHT
 10
0.0
 20
0.0
 30
0.0
  9
$UCSORGFRONT
 10
0.0
 20
0.0
 30
0.0
  9
$UCSORGBACK
 10
0.0
 20
0.0
 30
0.0
  9
$PUCSBASE
  2

  9
$PUCSNAME
  2

  9
$PUCSORG
 10
0.0
 20
0.0
 30
0.0
  9
$PUCSXDIR
 10
1.0
 20
0.0
 30
0.0
  9
$PUCSYDIR
 10
0.0
 20
1.0
 30
0.0
  9
$PUCSORTHOREF
  2

  9
$PUCSORTHOVIEW
 70
     0
  9
$PUCSORGTOP
 10
0.0
 20
0.0
 30
0.0
  9
$PUCSORGBOTTOM
 10
0.0
 20
0.0
 30
0.0
  9
$PUCSORGLEFT
 10
0.0
 20
0.0
 30
0.0
  9
$PUCSORGRIGHT
 10
0.0
 20
0.0
 30
0.0
  9
$PUCSORGFRONT
 10
0.0
 20
0.0
 30
0.0
  9
$PUCSORGBACK
 10
0.0
 20
0.0
 30
0.0
  9
$USERI1
 70
     0
  9
$USERI2
 70
     0
  9
$USERI3
 70
     0
  9
$USERI4
 70
     0
  9
$USERI5
 70
     0
  9
$USERR1
 40
0.0
  9
$USERR2
 40
0.0
  9
$USERR3
 40
0.0
  9
$USERR4
 40
0.0
  9
$USERR5
 40
0.0
  9
$WORLDVIEW
 70
     1
  9
$SHADEDGE
 70
     3
  9
$SHADEDIF
 70
    70
  9
$TILEMODE
 70
     1
  9
$MAXACTVP
 70
    64
  9
$PINSBASE
 10
0.0
 20
0.0
 30
0.0
  9
$PLIMCHECK
 70
     0
  9
$PEXTMIN
 10
1.0000000000E+20
 20
1.0000000000E+20
 30
1.0000000000E+20
  9
$PEXTMAX
 10
-1.0000000000E+20
 20
-1.0000000000E+20
 30
-1.0000000000E+20
  9
$PLIMMIN
 10
0.0
 20
0.0
  9
$PLIMMAX
 10
420.0
 20
297.0
  9
$UNITMODE
 70
     0
  9
$VISRETAIN
 70
     1
  9
$PLINEGEN
 70
     0
  9
$PSLTSCALE
 70
     1
  9
$TREEDEPTH
 70
  3020
  9
$CMLSTYLE
  2
Standard
  9
$CMLJUST
 70
     0
  9
$CMLSCALE
 40
20.0
  9
$PROXYGRAPHICS
 70
     1
  9
$MEASUREMENT
 70
     1
  9
$CELWEIGHT
370
    -1
  9
$ENDCAPS
280
     0
  9
$JOINSTYLE
280
     0
  9
$LWDISPLAY
290
     1
  9
$INSUNITS
 70
     4
  9
$HYPERLINKBASE
  1

  9
$STYLESHEET
  1

  9
$XEDIT
290
     1
  9
$CEPSNTYPE
380
     0
  9
$PSTYLEMODE
290
     1
  9
$FINGERPRINTGUID
  2
{10cbe4f3-aaa4-4594-9eb4-69622bb2381f}
  9
$VERSIONGUID
  2
{FAEB1C32-E019-11D5-929B-00C0DF256EC4}
  9
$EXTNAMES
290
     1
  9
$PSVPSCALE
 40
0.0
  9
$OLESTARTUP
290
     0
  0
ENDSEC
  0
SECTION
  2
CLASSES
  0
CLASS
  1
ACDBDICTIONARYWDFLT
  2
AcDbDictionaryWithDefault
  3
ObjectDBX Classes
 90
        0
280
     0
281
     0
  0
CLASS
  1
VISUALSTYLE
  2
AcDbVisualStyle
  3
ObjectDBX Classes
 90
     4095
280
     0
281
     0
  0
CLASS
  1
MATERIAL
  2
AcDbMaterial
  3
ObjectDBX Classes
 90
     1153
280
     0
281
     0
  0
CLASS
  1
SCALE
  2
AcDbScale
  3
ObjectDBX Classes
 90
     1153
280
     0
281
     0
  0
CLASS
  1
TABLESTYLE
  2
AcDbTableStyle
  3
ObjectDBX Classes
 90
     4095
280
     0
281
     0
  0
CLASS
  1
MLEADERSTYLE
  2
AcDbMLeaderStyle
  3
ACDB_MLEADERSTYLE_CLASS
 90
     4095
280
     0
281
     0
  0
CLASS
  1
SUN
  2
AcDbSun
  3
SCENEOE
 90
     1153
280
     0
281
     0
  0
CLASS
  1
ACDBPLACEHOLDER
  2
AcDbPlaceHolder
  3
ObjectDBX Classes
 90
        0
280
     0
281
     0
  0
CLASS
  1
LAYOUT
  2
AcDbLayout
  3
ObjectDBX Classes
 90
        0
280
     0
281
     0
  0
ENDSEC
  0
SECTION
  2
TABLES
  0
TABLE
  2
VPORT
  5
8
330
0
100
AcDbSymbolTable
 70
     1
  0
VPORT
  5
29
330
8
100
AcDbSymbolTableRecord
100
AcDbViewportTableRecord
  2
*Active
 70
     0
 10
0.0
 20
0.0
 11
1.0
 21
1.0
 12
-16.914173016
 22
4.2440324234
 13
0.0
 23
0.0
 14
10.0
 24
10.0
 15
10.0
 25
10.0
 16
0.0
 26
0.0
 36
1.0
 17
0.0
 27
0.0
 37
0.0
 40
32.2061099968
 41
0.9986373936
 42
50.0
 43
0.0
 44
0.0
 50
0.0
 51
0.0
 71
     0
 72
   100
 73
     1
 74
     3
 75
     0
 76
     0
 77
     0
 78
     0
281
     0
 65
     1
110
0.0
120
0.0
130
0.0
111
1.0
121
0.0
131
0.0
112
0.0
122
1.0
132
0.0
 79
     0
146
0.0
  0
ENDTAB
  0
TABLE
  2
LTYPE
  5
5
330
0
100
AcDbSymbolTable
 70
     6
  0
LTYPE
  5
14
330
5
100
AcDbSymbolTableRecord
100
AcDbLinetypeTableRecord
  2
ByBlock
 70
     0
  3

 72
    65
 73
     0
 40
0.0
  0
LTYPE
  5
15
330
5
100
AcDbSymbolTableRecord
100
AcDbLinetypeTableRecord
  2
ByLayer
 70
     0
  3

 72
    65
 73
     0
 40
0.0
  0
LTYPE
  5
16
330
5
100
AcDbSymbolTableRecord
100
AcDbLinetypeTableRecord
  2
Continuous
 70
     0
  3
Solid line
 72
    65
 73
     0
 40
0.0
  0
LTYPE
  5
5E
330
5
100
AcDbSymbolTableRecord
100
AcDbLinetypeTableRecord
  2
HIDDEN
 70
     0
  3
Hidden __ __ __ __ __ __ __ __ __ __ __ __ __ __
 72
    65
 73
     2
 40
1.905
 49
1.27
 74
     0
 49
-0.635
 74
     0
  0
LTYPE
  5
5F
330
5
100
AcDbSymbolTableRecord
100
AcDbLinetypeTableRecord
  2
PHANTOM
 70
     0
  3
Phantom ______  __  __  ______  __  __  ______
 72
    65
 73
     6
 40
12.7
 49
6.35
 74
     0
 49
-1.27
 74
     0
 49
1.27
 74
     0
 49
-1.27
 74
     0
 49
1.27
 74
     0
 49
-1.27
 74
     0
  0
LTYPE
  5
60
330
5
100
AcDbSymbolTableRecord
100
AcDbLinetypeTableRecord
  2
CENTER
 70
     0
  3
Center ____ _ ____ _ ____ _ ____ _ ____ _ ____
 72
    65
 73
     4
 40
10.16
 49
6.35
 74
     0
 49
-1.27
 74
     0
 49
1.27
 74
     0
 49
-1.27
 74
     0
  0
LTYPE
  5
61
330
5
100
AcDbSymbolTableRecord
100
AcDbLinetypeTableRecord
  2
CENTERX2
 70
     0
  3
Center (2x) ________  __  ________  __  _____
 72
    65
 73
     4
 40
20.32
 49
12.7
 74
     0
 49
-2.54
 74
     0
 49
2.54
 74
     0
 49
-2.54
 74
     0
  0
LTYPE
  5
62
330
5
100
AcDbSymbolTableRecord
100
AcDbLinetypeTableRecord
  2
DOT2
 70
     0
  3
Dot (.5x) ........................................
 72
    65
 73
     2
 40
0.635
 49
0.0
 74
     0
 49
-0.635
 74
     0
  0
ENDTAB
  0
TABLE
  2
LAYER
  5
2
330
0
100
AcDbSymbolTable
 70
     1
  0
LAYER
  5
10
330
2
100
AcDbSymbolTableRecord
100
AcDbLayerTableRecord
  2
0
 70
     0
 62
     7
  6
Continuous
370
    -3
390
F
  0
ENDTAB
  0
TABLE
  2
STYLE
  5
3
330
0
100
AcDbSymbolTable
 70
     2
  0
STYLE
  5
11
330
3
100
AcDbSymbolTableRecord
100
AcDbTextStyleTableRecord
  2
Standard
 70
     0
 40
0.0
 41
1.0
 50
0.0
 71
     0
 42
3.5
  3
txt
  4

  0
STYLE
  5
2F7
330
3
100
AcDbSymbolTableRecord
100
AcDbTextStyleTableRecord
  2
SLDTEXTSTYLE0
 70
     0
 40
0.0
 41
0.7
 50
0.0
 71
     0
 42
3.5
  3
TXT
  4

  0
ENDTAB
  0
TABLE
  2
VIEW
  5
6
330
0
100
AcDbSymbolTable
 70
     0
  0
ENDTAB
  0
TABLE
  2
UCS
  5
7
330
0
100
AcDbSymbolTable
 70
     0
  0
ENDTAB
  0
TABLE
  2
APPID
  5
9
330
0
100
AcDbSymbolTable
 70
     1
  0
APPID
  5
12
330
9
100
AcDbSymbolTableRecord
100
AcDbRegAppTableRecord
  2
ACAD
 70
     0
  0
ENDTAB
  0
TABLE
  2
DIMSTYLE
  5
A
330
0
100
AcDbSymbolTable
 70
     1
100
AcDbDimStyleTable
  0
DIMSTYLE
105
27
330
A
100
AcDbSymbolTableRecord
100
AcDbDimStyleTableRecord
  2
ISO-25
 70
     0
 41
2.5
 42
0.625
 43
3.75
 44
1.25
 73
     0
 74
     0
 77
     1
 78
     8
140
2.5
141
2.5
143
0.0393700787
147
0.625
171
     3
172
     1
178
     0
271
     2
272
     2
274
     3
278
    44
283
     0
284
     8
340
11
  0
ENDTAB
  0
TABLE
  2
BLOCK_RECORD
  5
1
330
0
100
AcDbSymbolTable
 70
     1
  0
BLOCK_RECORD
  5
1F
330
1
100
AcDbSymbolTableRecord
100
AcDbBlockTableRecord
  2
*Model_Space
340
22
  0
BLOCK_RECORD
  5
1B
330
1
100
AcDbSymbolTableRecord
100
AcDbBlockTableRecord
  2
*Paper_Space
340
1E
  0
BLOCK_RECORD
  5
23
330
1
100
AcDbSymbolTableRecord
100
AcDbBlockTableRecord
  2
*Paper_Space0
340
26
  0
ENDTAB
  0
ENDSEC
  0
SECTION
  2
BLOCKS
  0
BLOCK
  5
20
330
1F
100
AcDbEntity
  8
0
100
AcDbBlockBegin
  2
*Model_Space
 70
     0
 10
0.0
 20
0.0
 30
0.0
  3
*Model_Space
  1

  0
ENDBLK
  5
21
330
1F
100
AcDbEntity
  8
0
100
AcDbBlockEnd
  0
BLOCK
  5
1C
330
1B
100
AcDbEntity
 67
     1
  8
0
100
AcDbBlockBegin
  2
*Paper_Space
 70
     0
 10
0.0
 20
0.0
 30
0.0
  3
*Paper_Space
  1

  0
ENDBLK
  5
1D
330
1B
100
AcDbEntity
 67
     1
  8
0
100
AcDbBlockEnd
  0
BLOCK
  5
24
330
23
100
AcDbEntity
  8
0
100
AcDbBlockBegin
  2
*Paper_Space0
 70
     0
 10
0.0
 20
0.0
 30
0.0
  3
*Paper_Space0
  1

  0
ENDBLK
  5
25
330
23
100
AcDbEntity
  8
0
100
AcDbBlockEnd
  0
ENDSEC
  0
SECTION
  2
ENTITIES
  0
CIRCLE
  5
10B
330
1F
100
AcDbEntity
  8
0
  6
Continuous
 62
     7
370
    25
100
AcDbCircle
 10
-16.8980072161
 20
4.2879782651
 30
0.0
 40
1.499563355892372
  0
LWPOLYLINE
  5
1AD
330
1F
100
AcDbEntity
  8
0
  6
Continuous
 62
     7
370
    25
100
AcDbPolyline
 90
        3
 70
   128
 43
0.0
 10
-15.2958568045
 20
18.4170420518
 10
-15.309353795
 20
18.3812121826
 10
-15.353754867
 20
18.2581042194
  0
LINE
  5
1AE
330
1F
100
AcDbEntity
  8
0
  6
Continuous
 62
     7
370
    25
100
AcDbLine
 10
-18.5660547818
 20
-10.0172267843
 30
0.0
 11
-18.5324892276
 21
-9.928977205
 31
0.0
  0
LINE
  5
1AF
330
1F
100
AcDbEntity
  8
0
  6
Continuous
 62
     7
370
    25
100
AcDbLine
 10
-26.1474021333
 20
-7.1884368921
 30
0.0
 11
-26.1809676875
 21
-7.2766864714
 31
0.0
  0
LINE
  5
1B0
330
1F
100
AcDbEntity
  8
0
  6
Continuous
 62
     7
370
    25
100
AcDbLine
 10
-16.5854330629
 20
-11.0017329003
 30
0.0
 11
-16.5518675087
 21
-10.913483321
 31
0.0
  0
LINE
  5
1B1
330
1F
100
AcDbEntity
  8
0
  6
Continuous
 62
     7
370
    25
100
AcDbLine
 10
-28.2325511773
 20
-6.4506619984
 30
0.0
 11
-28.2661167315
 21
-6.5389115777
 31
0.0
  0
LINE
  5
1B2
330
1F
100
AcDbEntity
  8
0
  6
Continuous
 62
     7
370
    25
100
AcDbLine
 10
-5.5957948547
 20
14.9387268453
 30
0.0
 11
-5.5622293006
 21
15.0269764246
 31
0.0
  0
LINE
  5
1B3
330
1F
100
AcDbEntity
  8
0
  6
Continuous
 62
     7
370
    25
100
AcDbLine
 10
-17.2429129692
 20
19.4897977472
 30
0.0
 11
-17.2764785234
 21
19.4015481679
 31
0.0
  0
LINE
  5
1B4
330
1F
100
AcDbEntity
  8
0
  6
Continuous
 62
     7
370
    25
100
AcDbLine
 10
-7.6809438987
 20
15.6765017389
 30
0.0
 11
-7.6473783445
 21
15.7647513183
 31
0.0
  0
LINE
  5
1B5
330
1F
100
AcDbEntity
  8
0
  6
Continuous
 62
     7
370
    25
100
AcDbLine
 10
-15.2622912503
 20
18.5052916312
 30
0.0
 11
-15.2958568045
 21
18.4170420518
 31
0.0
  0
LINE
  5
1B6
330
1F
100
AcDbEntity
  8
0
  6
Continuous
 62
     7
370
    25
100
AcDbLine
 10
-21.6607756905
 20
-10.7160995049
 30
0.0
 11
-21.6943412446
 21
-10.8043490842
 31
0.0
  0
LINE
  5
1B7
330
1F
100
AcDbEntity
  8
0
  6
Continuous
 62
     7
370
    25
100
AcDbLine
 10
-22.1345684064
 20
-10.6573929054
 30
0.0
 11
-22.1010028522
 21
-10.5691433261
 31
0.0
  0
LINE
  5
1B8
330
1F
100
AcDbEntity
  8
0
  6
Continuous
 62
     7
370
    25
100
AcDbLine
 10
-23.9504281088
 20
-9.7857174558
 30
0.0
 11
-23.9839936629
 21
-9.8739670351
 31
0.0
  0
LINE
  5
1B9
330
1F
100
AcDbEntity
  8
0
  6
Continuous
 62
     7
370
    25
100
AcDbLine
 10
-24.395826049
 20
-9.6599864903
 30
0.0
 11
-24.3622604949
 21
-9.5717369109
 31
0.0
  0
LINE
  5
1BA
330
1F
100
AcDbEntity
  8
0
  6
Continuous
 62
     7
370
    25
100
AcDbLine
 10
-22.1028388777
 20
-8.8684355034
 30
0.0
 11
-22.0692733235
 21
-8.7801859241
 31
0.0
  0
LINE
  5
1BB
330
1F
100
AcDbEntity
  8
0
  6
Continuous
 62
     7
370
    25
100
AcDbLine
 10
-20.64521565
 20
-9.3550177916
 30
0.0
 11
-20.6116500958
 21
-9.2667682122
 31
0.0
  0
LINE
  5
1BC
330
1F
100
AcDbEntity
  8
0
  6
Continuous
 62
     7
370
    25
100
AcDbLine
 10
-22.7209211622
 20
-8.606612729
 30
0.0
 11
-22.687355608
 21
-8.5183631497
 31
0.0
  0
LINE
  5
1BD
330
1F
100
AcDbEntity
  8
0
  6
Continuous
 62
     7
370
    25
100
AcDbLine
 10
-19.7451805513
 20
-11.2889632727
 30
0.0
 11
-19.7116149972
 21
-11.2007136934
 31
0.0
  0
LINE
  5
1BE
330
1F
100
AcDbEntity
  8
0
  6
Continuous
 62
     7
370
    25
100
AcDbLine
 10
-19.2538329136
 20
-11.2770269573
 30
0.0
 11
-19.2873984677
 21
-11.3652765366
 31
0.0
  0
LINE
  5
1BF
330
1F
100
AcDbEntity
  8
0
  6
Continuous
 62
     7
370
    25
100
AcDbLine
 10
-24.0845272821
 20
-7.8981080306
 30
0.0
 11
-24.050961728
 21
-7.8098584512
 31
0.0
  0
LINE
  5
1C0
330
1F
100
AcDbEntity
  8
0
  6
Continuous
 62
     7
370
    25
100
AcDbLine
 10
-19.9938015472
 20
-9.5169769968
 30
0.0
 11
-19.960235993
 21
-9.4287274175
 31
0.0
  0
LINE
  5
1C1
330
1F
100
AcDbEntity
  8
0
  6
Continuous
 62
     7
370
    25
100
AcDbLine
 10
-24.6540585112
 20
-7.5428686328
 30
0.0
 11
-24.6204929571
 21
-7.4546190534
 31
0.0
  0
LINE
  5
1C2
330
1F
100
AcDbEntity
  8
0
  6
Continuous
 62
     7
370
    25
100
AcDbLine
 10
-26.066411327
 20
-8.5087899039
 30
0.0
 11
-26.0999768812
 21
-8.5970394832
 31
0.0
  0
LINE
  5
1C3
330
1F
100
AcDbEntity
  8
0
  6
Continuous
 62
     7
370
    25
100
AcDbLine
 10
-26.4732738115
 20
-8.3213034834
 30
0.0
 11
-26.4397082574
 21
-8.2330539041
 31
0.0
  0
LINE
  5
1C4
330
1F
100
AcDbEntity
  8
0
  6
Continuous
 62
     7
370
    25
100
AcDbLine
 10
-16.7888666974
 20
-11.4546879175
 30
0.0
 11
-16.8224322516
 21
-11.5429374969
 31
0.0
  0
LINE
  5
1C5
330
1F
100
AcDbEntity
  8
0
  6
Continuous
 62
     7
370
    25
100
AcDbLine
 10
-17.2864971429
 20
-11.5391462337
 30
0.0
 11
-17.2529315887
 21
-11.4508966544
 31
0.0
  0
LINE
  5
1C6
330
1F
100
AcDbEntity
  8
0
  6
Continuous
 62
     7
370
    25
100
AcDbLine
 10
-17.8093467892
 20
-9.8277632669
 30
0.0
 11
-17.775781235
 21
-9.7395136876
 31
0.0
  0
LINE
  5
1C7
330
1F
100
AcDbEntity
  8
0
  6
Continuous
 62
     7
370
    25
100
AcDbLine
 10
-26.3970274398
 20
-6.1899784128
 30
0.0
 11
-26.3634618857
 21
-6.1017288334
 31
0.0
  0
LINE
  5
1C8
330
1F
100
AcDbEntity
  8
0
  6
Continuous
 62
     7
370
    25
100
AcDbLine
 10
-27.9566228159
 20
-6.9167590433
 30
0.0
 11
-27.9901883701
 21
-7.0050086226
 31
0.0
  0
LINE
  5
1C9
330
1F
100
AcDbEntity
  8
0
  6
Continuous
 62
     7
370
    25
100
AcDbLine
 10
-28.3157580353
 20
-6.6743067034
 30
0.0
 11
-28.2821924811
 21
-6.5860571241
 31
0.0
  0
LINE
  5
1CA
330
1F
100
AcDbEntity
  8
0
  6
Continuous
 62
     7
370
    25
100
AcDbLine
 10
-28.2661167315
 20
-6.5389115777
 30
0.0
 11
-28.3157580353
 21
-6.6743067034
 31
0.0
  0
LINE
  5
1CB
330
1F
100
AcDbEntity
  8
0
  6
Continuous
 62
     7
370
    25
100
AcDbLine
 10
-14.326572691
 20
-11.2447077831
 30
0.0
 11
-14.3601382452
 21
-11.3329573625
 31
0.0
  0
LINE
  5
1CC
330
1F
100
AcDbEntity
  8
0
  6
Continuous
 62
     7
370
    25
100
AcDbLine
 10
-14.8190591264
 20
-11.4017814535
 30
0.0
 11
-14.7854935723
 21
-11.3135318742
 31
0.0
  0
LINE
  5
1CD
330
1F
100
AcDbEntity
  8
0
  6
Continuous
 62
     7
370
    25
100
AcDbLine
 10
-15.6032631297
 20
-9.7931417243
 30
0.0
 11
-15.5696975755
 21
-9.704892145
 31
0.0
  0
LINE
  5
1CE
330
1F
100
AcDbEntity
  8
0
  6
Continuous
 62
     7
370
    25
100
AcDbLine
 10
-27.9069102684
 20
-4.5812547162
 30
0.0
 11
-27.8733447142
 21
-4.4930051369
 31
0.0
  0
LINE
  5
1CF
330
1F
100
AcDbEntity
  8
0
  6
Continuous
 62
     7
370
    25
100
AcDbLine
 10
-29.5745192952
 20
-5.0488259575
 30
0.0
 11
-29.6080848494
 21
-5.1370755368
 31
0.0
  0
LINE
  5
1D0
330
1F
100
AcDbEntity
  8
0
  6
Continuous
 62
     7
370
    25
100
AcDbLine
 10
-29.8779106438
 20
-4.7595506769
 30
0.0
 11
-29.8443450897
 21
-4.6713010976
 31
0.0
  0
LINE
  5
1D1
330
1F
100
AcDbEntity
  8
0
  6
Continuous
 62
     7
370
    25
100
AcDbLine
 10
-12.4036230149
 20
-10.880251309
 30
0.0
 11
-12.3700574607
 21
-10.7920017297
 31
0.0
  0
LINE
  5
1D2
330
1F
100
AcDbEntity
  8
0
  6
Continuous
 62
     7
370
    25
100
AcDbLine
 10
-11.9275807448
 20
-10.6522569619
 30
0.0
 11
-11.9611462989
 21
-10.7405065413
 31
0.0
  0
LINE
  5
1D3
330
1F
100
AcDbEntity
  8
0
  6
Continuous
 62
     7
370
    25
100
AcDbLine
 10
-13.4298716699
 20
-9.4139648662
 30
0.0
 11
-13.3963061158
 21
-9.3257152869
 31
0.0
  0
LINE
  5
1D4
330
1F
100
AcDbEntity
  8
0
  6
Continuous
 62
     7
370
    25
100
AcDbLine
 10
-29.1465286707
 20
-2.7563096597
 30
0.0
 11
-29.1129631165
 21
-2.6680600803
 31
0.0
  0
LINE
  5
1D5
330
1F
100
AcDbEntity
  8
0
  6
Continuous
 62
     7
370
    25
100
AcDbLine
 10
-30.8802627842
 20
-2.9509853583
 30
0.0
 11
-30.9138283383
 21
-3.0392349377
 31
0.0
  0
LINE
  5
1D6
330
1F
100
AcDbEntity
  8
0
  6
Continuous
 62
     7
370
    25
100
AcDbLine
 10
-31.1212662555
 20
-2.6241830521
 30
0.0
 11
-31.0877007013
 21
-2.5359334727
 31
0.0
  0
LINE
  5
1D7
330
1F
100
AcDbEntity
  8
0
  6
Continuous
 62
     7
370
    25
100
AcDbLine
 10
-9.6509620021
 20
-9.6919235593
 30
0.0
 11
-9.6845275562
 21
-9.7801731387
 31
0.0
  0
LINE
  5
1D8
330
1F
100
AcDbEntity
  8
0
  6
Continuous
 62
     7
370
    25
100
AcDbLine
 10
-10.0996648617
 20
-9.9873976031
 30
0.0
 11
-10.0660993075
 21
-9.8991480238
 31
0.0
  0
LINE
  5
1D9
330
1F
100
AcDbEntity
  8
0
  6
Continuous
 62
     7
370
    25
100
AcDbLine
 10
-11.3426885207
 20
-8.6995692853
 30
0.0
 11
-11.3091229665
 21
-8.611319706
 31
0.0
  0
LINE
  5
1DA
330
1F
100
AcDbEntity
  8
0
  6
Continuous
 62
     7
370
    25
100
AcDbLine
 10
-30.0853591276
 20
-0.7600794469
 30
0.0
 11
-30.0517935734
 21
-0.6718298676
 31
0.0
  0
LINE
  5
1DB
330
1F
100
AcDbEntity
  8
0
  6
Continuous
 62
     7
370
    25
100
AcDbLine
 10
-31.8417015446
 20
-0.6748930438
 30
0.0
 11
-31.8752670987
 21
-0.7631426231
 31
0.0
  0
LINE
  5
1DC
330
1F
100
AcDbEntity
  8
0
  6
Continuous
 62
     7
370
    25
100
AcDbLine
 10
-32.0152093286
 20
-0.3207836667
 30
0.0
 11
-31.9816437744
 21
-0.2325340874
 31
0.0
  0
LINE
  5
1DD
330
1F
100
AcDbEntity
  8
0
  6
Continuous
 62
     7
370
    25
100
AcDbLine
 10
-9.3931070581
 20
-7.6675457717
 30
0.0
 11
-9.359541504
 21
-7.5792961924
 31
0.0
  0
LINE
  5
1DE
330
1F
100
AcDbEntity
  8
0
  6
Continuous
 62
     7
370
    25
100
AcDbLine
 10
-7.963915763
 20
-8.7452053574
 30
0.0
 11
-7.9303502089
 21
-8.656955778
 31
0.0
  0
LINE
  5
1DF
330
1F
100
AcDbEntity
  8
0
  6
Continuous
 62
     7
370
    25
100
AcDbLine
 10
-7.5527743721
 20
-8.3873541709
 30
0.0
 11
-7.5863399263
 21
-8.4756037502
 31
0.0
  0
LINE
  5
1E0
330
1F
100
AcDbEntity
  8
0
  6
Continuous
 62
     7
370
    25
100
AcDbLine
 10
-30.7002845174
 20
1.358282109
 30
0.0
 11
-30.6667189632
 21
1.4465316883
 31
0.0
  0
LINE
  5
1E1
330
1F
100
AcDbEntity
  8
0
  6
Continuous
 62
     7
370
    25
100
AcDbLine
 10
-32.4351617633
 20
1.7234060396
 30
0.0
 11
-32.4687273175
 21
1.6351564602
 31
0.0
  0
LINE
  5
1E2
330
1F
100
AcDbEntity
  8
0
  6
Continuous
 62
     7
370
    25
100
AcDbLine
 10
-32.5377280179
 20
2.0939301418
 30
0.0
 11
-32.5041624637
 21
2.1821797211
 31
0.0
  0
LINE
  5
1E3
330
1F
100
AcDbEntity
  8
0
  6
Continuous
 62
     7
370
    25
100
AcDbLine
 10
-7.6291324481
 20
-6.3433061695
 30
0.0
 11
-7.5955668939
 21
-6.2550565902
 31
0.0
  0
LINE
  5
1E4
330
1F
100
AcDbEntity
  8
0
  6
Continuous
 62
     7
370
    25
100
AcDbLine
 10
-6.0489649498
 20
-7.1842614674
 30
0.0
 11
-6.0153993956
 21
-7.096011888
 31
0.0
  0
LINE
  5
1E5
330
1F
100
AcDbEntity
  8
0
  6
Continuous
 62
     7
370
    25
100
AcDbLine
 10
-5.6846821977
 20
-6.7706716246
 30
0.0
 11
-5.7182477519
 21
-6.8589212039
 31
0.0
  0
LINE
  5
1E6
330
1F
100
AcDbEntity
  8
0
  6
Continuous
 62
     7
370
    25
100
AcDbLine
 10
-30.9761633363
 20
3.5466139161
 30
0.0
 11
-30.9425977821
 21
3.6348634954
 31
0.0
  0
LINE
  5
1E7
330
1F
100
AcDbEntity
  8
0
  6
Continuous
 62
     7
370
    25
100
AcDbLine
 10
-32.6460304802
 20
4.1848578087
 30
0.0
 11
-32.6795960344
 21
4.0966082294
 31
0.0
  0
LINE
  5
1E8
330
1F
100
AcDbEntity
  8
0
  6
Continuous
 62
     7
370
    25
100
AcDbLine
 10
-32.6759561792
 20
4.5605001055
 30
0.0
 11
-32.642390625
 21
4.6487496848
 31
0.0
  0
LINE
  5
1E9
330
1F
100
AcDbEntity
  8
0
  6
Continuous
 62
     7
370
    25
100
AcDbLine
 10
-6.0941995998
 20
-4.7594576525
 30
0.0
 11
-6.0606340456
 21
-4.6712080732
 31
0.0
  0
LINE
  5
1EA
330
1F
100
AcDbEntity
  8
0
  6
Continuous
 62
     7
370
    25
100
AcDbLine
 10
-4.4019648663
 20
-5.3430015522
 30
0.0
 11
-4.3683993122
 21
-5.2547519729
 31
0.0
  0
LINE
  5
1EB
330
1F
100
AcDbEntity
  8
0
  6
Continuous
 62
     7
370
    25
100
AcDbLine
 10
-4.0926841082
 20
-4.8816840101
 30
0.0
 11
-4.1262496624
 21
-4.9699335895
 31
0.0
  0
LINE
  5
1EC
330
1F
100
AcDbEntity
  8
0
  6
Continuous
 62
     7
370
    25
100
AcDbLine
 10
-30.906202532
 20
5.7510319827
 30
0.0
 11
-30.8726369779
 21
5.839281562
 31
0.0
  0
LINE
  5
1ED
330
1F
100
AcDbEntity
  8
0
  6
Continuous
 62
     7
370
    25
100
AcDbLine
 10
-32.4691154076
 20
6.648853152
 30
0.0
 11
-32.5026809618
 21
6.5606035727
 31
0.0
  0
LINE
  5
1EE
330
1F
100
AcDbEntity
  8
0
  6
Continuous
 62
     7
370
    25
100
AcDbLine
 10
-32.4264901762
 20
7.0181910858
 30
0.0
 11
-32.392924622
 21
7.1064406651
 31
0.0
  0
LINE
  5
1EF
330
1F
100
AcDbEntity
  8
0
  6
Continuous
 62
     7
370
    25
100
AcDbLine
 10
-4.8261036541
 20
-2.9549998278
 30
0.0
 11
-4.7925380999
 21
-2.8667502484
 31
0.0
  0
LINE
  5
1F0
330
1F
100
AcDbEntity
  8
0
  6
Continuous
 62
     7
370
    25
100
AcDbLine
 10
-3.0634701209
 20
-3.2667635418
 30
0.0
 11
-3.0299045667
 21
-3.1785139625
 31
0.0
  0
LINE
  5
1F1
330
1F
100
AcDbEntity
  8
0
  6
Continuous
 62
     7
370
    25
100
AcDbLine
 10
-2.81598038
 20
-2.7669044718
 30
0.0
 11
-2.8495459342
 21
-2.8551540511
 31
0.0
  0
LINE
  5
1F2
330
1F
100
AcDbEntity
  8
0
  6
Continuous
 62
     7
370
    25
100
AcDbLine
 10
-30.4921247719
 20
7.9172562199
 30
0.0
 11
-30.4585592177
 21
8.0055057993
 31
0.0
  0
LINE
  5
1F3
330
1F
100
AcDbEntity
  8
0
  6
Continuous
 62
     7
370
    25
100
AcDbLine
 10
-31.9087727818
 20
9.0547203266
 30
0.0
 11
-31.942338336
 21
8.9664707473
 31
0.0
  0
LINE
  5
1F4
330
1F
100
AcDbEntity
  8
0
  6
Continuous
 62
     7
370
    25
100
AcDbLine
 10
-31.79547269
 20
9.4064865742
 30
0.0
 11
-31.7619071359
 21
9.4947361535
 31
0.0
  0
LINE
  5
1F5
330
1F
100
AcDbEntity
  8
0
  6
Continuous
 62
     7
370
    25
100
AcDbLine
 10
-3.8560693418
 20
-0.9743644355
 30
0.0
 11
-3.8225037876
 21
-0.8861148562
 31
0.0
  0
LINE
  5
1F6
330
1F
100
AcDbEntity
  8
0
  6
Continuous
 62
     7
370
    25
100
AcDbLine
 10
-2.0664388962
 20
-1.0066713066
 30
0.0
 11
-2.032873342
 21
-0.9184217273
 31
0.0
  0
LINE
  5
1F7
330
1F
100
AcDbEntity
  8
0
  6
Continuous
 62
     7
370
    25
100
AcDbLine
 10
-30.9788000978
 20
11.343218898
 30
0.0
 11
-31.012365652
 21
11.2549693187
 31
0.0
  0
LINE
  5
1F8
330
1F
100
AcDbEntity
  8
0
  6
Continuous
 62
     7
370
    25
100
AcDbLine
 10
-1.43542141
 20
1.3816241818
 30
0.0
 11
-1.4018558558
 21
1.4698737611
 31
0.0
  0
LINE
  5
1F9
330
1F
100
AcDbEntity
  8
0
  6
Continuous
 62
     7
370
    25
100
AcDbLine
 10
-29.7020963696
 20
13.4579984363
 30
0.0
 11
-29.7356619238
 21
13.369748857
 31
0.0
  0
LINE
  5
1FA
330
1F
100
AcDbEntity
  8
0
  6
Continuous
 62
     7
370
    25
100
AcDbLine
 10
-1.1859554071
 20
3.8393151621
 30
0.0
 11
-1.1523898529
 21
3.9275647414
 31
0.0
  0
LINE
  5
1FB
330
1F
100
AcDbEntity
  8
0
  6
Continuous
 62
     7
370
    25
100
AcDbLine
 10
-28.1100982801
 20
15.3469860508
 30
0.0
 11
-28.1436638343
 21
15.2587364715
 31
0.0
  0
LINE
  5
1FC
330
1F
100
AcDbEntity
  8
0
  6
Continuous
 62
     7
370
    25
100
AcDbLine
 10
-1.3241835683
 20
6.3058851257
 30
0.0
 11
-1.2906180141
 21
6.3941347051
 31
0.0
  0
LINE
  5
1FD
330
1F
100
AcDbEntity
  8
0
  6
Continuous
 62
     7
370
    25
100
AcDbLine
 10
-26.2420061058
 20
16.9636685971
 30
0.0
 11
-26.27557166
 21
16.8754190178
 31
0.0
  0
LINE
  5
1FE
330
1F
100
AcDbEntity
  8
0
  6
Continuous
 62
     7
370
    25
100
AcDbLine
 10
-1.8467022576
 20
8.7205989343
 30
0.0
 11
-1.8131367034
 21
8.8088485136
 31
0.0
  0
LINE
  5
1FF
330
1F
100
AcDbEntity
  8
0
  6
Continuous
 62
     7
370
    25
100
AcDbLine
 10
-24.1438184758
 20
18.2682379856
 30
0.0
 11
-24.17738403
 21
18.1799884062
 31
0.0
  0
LINE
  5
200
330
1F
100
AcDbEntity
  8
0
  6
Continuous
 62
     7
370
    25
100
AcDbLine
 10
-2.7406453307
 20
11.0239983196
 30
0.0
 11
-2.7070797766
 21
11.112247899
 31
0.0
  0
LINE
  5
201
330
1F
100
AcDbEntity
  8
0
  6
Continuous
 62
     7
370
    25
100
AcDbLine
 10
-21.8671997331
 20
19.2285713881
 30
0.0
 11
-21.9007652873
 21
19.1403218088
 31
0.0
  0
LINE
  5
202
330
1F
100
AcDbEntity
  8
0
  6
Continuous
 62
     7
370
    25
100
AcDbLine
 10
-3.9840009424
 20
13.1593659444
 30
0.0
 11
-3.9504353882
 21
13.2476155238
 31
0.0
  0
LINE
  5
203
330
1F
100
AcDbEntity
  8
0
  6
Continuous
 62
     7
370
    25
100
AcDbLine
 10
-19.4682077868
 20
19.8210222093
 30
0.0
 11
-19.501773341
 21
19.73277263
 31
0.0
  0
ARC
  5
204
330
1F
100
AcDbEntity
  8
0
  6
Continuous
 62
     7
370
    25
100
AcDbCircle
 10
-16.886415957
 20
4.2845906369
 30
0.0
 40
14.05004927135371
100
AcDbArc
 50
317.6638006687
 51
320.4002103924
  0
ARC
  5
205
330
1F
100
AcDbEntity
  8
0
  6
Continuous
 62
     7
370
    25
100
AcDbCircle
 10
-11.3722027754
 20
-8.6784729959
 30
0.0
 40
5.998966277023486
100
AcDbArc
 50
18.5433269659
 51
35.6999641292
  0
ARC
  5
206
330
1F
100
AcDbEntity
  8
0
  6
Continuous
 62
     7
370
    25
100
AcDbCircle
 10
-16.8860378298
 20
4.2850484165
 30
0.0
 40
15.73846605054882
100
AcDbArc
 50
313.6859479113
 51
315.3749003573
  0
ARC
  5
207
330
1F
100
AcDbEntity
  8
0
  6
Continuous
 62
     7
370
    25
100
AcDbCircle
 10
-4.0168627757
 20
-1.4356751365
 30
0.0
 40
6.002796078681281
100
AcDbArc
 50
233.4037119913
 51
250.5530282638
  0
ARC
  5
208
330
1F
100
AcDbEntity
  8
0
  6
Continuous
 62
     7
370
    25
100
AcDbCircle
 10
-16.8881448023
 20
4.2863603363
 30
0.0
 40
14.05252557376922
100
AcDbArc
 50
308.6610636672
 51
311.397151887
  0
ARC
  5
209
330
1F
100
AcDbEntity
  8
0
  6
Continuous
 62
     7
370
    25
100
AcDbCircle
 10
-13.4673835534
 20
-9.3815528962
 30
0.0
 40
5.997585586948952
100
AcDbArc
 50
9.5417644513
 51
26.7010428001
  0
ARC
  5
20A
330
1F
100
AcDbEntity
  8
0
  6
Continuous
 62
     7
370
    25
100
AcDbCircle
 10
-16.8880324478
 20
4.2874352951
 30
0.0
 40
15.74157969670531
100
AcDbArc
 50
304.6837240008
 51
306.372453719
  0
ARC
  5
20B
330
1F
100
AcDbEntity
  8
0
  6
Continuous
 62
     7
370
    25
100
AcDbCircle
 10
-5.0716325239
 20
-3.3792006533
 30
0.0
 40
6.002246742560833
100
AcDbArc
 50
224.4072623257
 51
241.5576282069
  0
ARC
  5
20C
330
1F
100
AcDbEntity
  8
0
  6
Continuous
 62
     7
370
    25
100
AcDbCircle
 10
-16.8898905851
 20
4.2888140735
 30
0.0
 40
14.05553978221075
100
AcDbArc
 50
299.6595439453
 51
302.395240951
  0
ARC
  5
20D
330
1F
100
AcDbEntity
  8
0
  6
Continuous
 62
     7
370
    25
100
AcDbCircle
 10
-15.6469926946
 20
-9.7483244871
 30
0.0
 40
5.996295950902055
100
AcDbArc
 50
0.5389298326
 51
17.7006761033
  0
ARC
  5
20E
330
1F
100
AcDbEntity
  8
0
  6
Continuous
 62
     7
370
    25
100
AcDbCircle
 10
-16.8898607654
 20
4.2904817244
 30
0.0
 40
15.74513616404286
100
AcDbArc
 50
295.6827979557
 51
297.3712733596
  0
ARC
  5
20F
330
1F
100
AcDbEntity
  8
0
  6
Continuous
 62
     7
370
    25
100
AcDbCircle
 10
-6.417860178
 20
-5.1340312274
 30
0.0
 40
6.001332087888589
100
AcDbArc
 50
215.4097195061
 51
232.5618333613
  0
ARC
  5
210
330
1F
100
AcDbEntity
  8
0
  6
Continuous
 62
     7
370
    25
100
AcDbCircle
 10
-16.8913429643
 20
4.2917260935
 30
0.0
 40
14.05879692600069
100
AcDbArc
 50
290.6593900262
 51
293.3946644444
  0
ARC
  5
211
330
1F
100
AcDbEntity
  8
0
  6
Continuous
 62
     7
370
    25
100
AcDbCircle
 10
-17.8574937241
 20
-9.7697391065
 30
0.0
 40
5.995223574438787
100
AcDbArc
 50
351.5351004753
 51
8.6988995829
  0
ARC
  5
212
330
1F
100
AcDbEntity
  8
0
  6
Continuous
 62
     7
370
    25
100
AcDbCircle
 10
-16.8912298107
 20
4.293862664
 30
0.0
 40
15.74878737941096
100
AcDbArc
 50
286.6832601413
 51
288.3714745553
  0
ARC
  5
213
330
1F
100
AcDbEntity
  8
0
  6
Continuous
 62
     7
370
    25
100
AcDbCircle
 10
-8.02241361
 20
-6.6568241856
 30
0.0
 40
6.000141696117072
100
AcDbArc
 50
206.4108428654
 51
223.5652323156
  0
ARC
  5
214
330
1F
100
AcDbEntity
  8
0
  6
Continuous
 62
     7
370
    25
100
AcDbCircle
 10
-16.8923030361
 20
4.2947559311
 30
0.0
 40
14.06197819184921
100
AcDbArc
 50
281.6606166672
 51
284.3954784999
  0
ARC
  5
215
330
1F
100
AcDbEntity
  8
0
  6
Continuous
 62
     7
370
    25
100
AcDbCircle
 10
-20.044567064
 20
-9.4451935518
 30
0.0
 40
5.994473381185736
100
AcDbArc
 50
342.5306513385
 51
359.6958868965
  0
ARC
  5
216
330
1F
100
AcDbEntity
  8
0
  6
Continuous
 62
     7
370
    25
100
AcDbCircle
 10
-16.891998451
 20
4.2971594408
 30
0.0
 40
15.75217591754431
100
AcDbArc
 50
277.6850650132
 51
279.3730373038
  0
ARC
  5
217
330
1F
100
AcDbEntity
  8
0
  6
Continuous
 62
     7
370
    25
100
AcDbCircle
 10
-9.8457377346
 20
-7.9099573807
 30
0.0
 40
5.998792134087275
100
AcDbArc
 50
197.4105221339
 51
214.5674923672
  0
ARC
  5
218
330
1F
100
AcDbEntity
  8
0
  6
Continuous
 62
     7
370
    25
100
AcDbCircle
 10
-16.8927237951
 20
4.2975153814
 30
0.0
 40
14.06477212448735
100
AcDbArc
 50
272.6631035332
 51
275.3976031428
  0
ARC
  5
219
330
1F
100
AcDbEntity
  8
0
  6
Continuous
 62
     7
370
    25
100
AcDbCircle
 10
-22.1544235195
 20
-8.7825614788
 30
0.0
 40
5.994118760542926
100
AcDbArc
 50
333.5260182272
 51
350.691932908
  0
ARC
  5
21A
330
1F
100
AcDbEntity
  8
0
  6
Continuous
 62
     7
370
    25
100
AcDbCircle
 10
-16.8922042845
 20
4.2999431762
 30
0.0
 40
15.75496999536781
100
AcDbArc
 50
268.6880356908
 51
270.3758083996
  0
ARC
  5
21B
330
1F
100
AcDbEntity
  8
0
  6
Continuous
 62
     7
370
    25
100
AcDbCircle
 10
-11.8428384388
 20
-8.8624830253
 30
0.0
 40
5.997415527232466
100
AcDbArc
 50
188.4087883503
 51
205.5683920844
  0
ARC
  5
21C
330
1F
100
AcDbEntity
  8
0
  6
Continuous
 62
     7
370
    25
100
AcDbCircle
 10
-16.8927163843
 20
4.2996464192
 30
0.0
 40
14.06690513349194
100
AcDbArc
 50
263.6666070763
 51
266.4008302299
  0
ARC
  5
21D
330
1F
100
AcDbEntity
  8
0
  6
Continuous
 62
     7
370
    25
100
AcDbCircle
 10
-24.1351148376
 20
-7.7980251904
 30
0.0
 40
5.994194400909767
100
AcDbArc
 50
324.5216550209
 51
341.6874248396
  0
ARC
  5
21E
330
1F
100
AcDbEntity
  8
0
  6
Continuous
 62
     7
370
    25
100
AcDbCircle
 10
-16.8920503928
 20
4.3018611405
 30
0.0
 40
15.75689598357541
100
AcDbArc
 50
259.6918813508
 51
261.3795165201
  0
ARC
  5
21F
330
1F
100
AcDbEntity
  8
0
  6
Continuous
 62
     7
370
    25
100
AcDbCircle
 10
-13.9644118099
 20
-9.4909096719
 30
0.0
 40
5.996146618231791
100
AcDbArc
 50
179.40581096
 51
196.5678430597
  0
ARC
  5
220
330
1F
100
AcDbEntity
  8
0
  6
Continuous
 62
     7
370
    25
100
AcDbCircle
 10
-16.8925208726
 20
4.3008932478
 30
0.0
 40
14.06816831268217
100
AcDbArc
 50
254.6707844205
 51
257.4048438884
  0
ARC
  5
221
330
1F
100
AcDbEntity
  8
0
  6
Continuous
 62
     7
370
    25
100
AcDbCircle
 10
-25.9378121011
 20
-6.5157063627
 30
0.0
 40
5.994692903443377
100
AcDbArc
 50
315.5179891079
 51
332.6828042993
  0
ARC
  5
222
330
1F
100
AcDbEntity
  8
0
  6
Continuous
 62
     7
370
    25
100
AcDbCircle
 10
-16.8918549665
 20
4.3027073872
 30
0.0
 40
15.7577652391893
100
AcDbArc
 50
250.6962257075
 51
252.3837988102
  0
ARC
  5
223
330
1F
100
AcDbEntity
  8
0
  6
Continuous
 62
     7
370
    25
100
AcDbCircle
 10
-16.1580862093
 20
-9.7797887395
 30
0.0
 40
5.99510958096675
100
AcDbArc
 50
170.4018813315
 51
187.5658986915
  0
ARC
  5
224
330
1F
100
AcDbEntity
  8
0
  6
Continuous
 62
     7
370
    25
100
AcDbCircle
 10
-16.8924480514
 20
4.3011529201
 30
0.0
 40
14.06843793227848
100
AcDbArc
 50
245.6752268957
 51
248.4092514287
  0
ARC
  5
225
330
1F
100
AcDbEntity
  8
0
  6
Continuous
 62
     7
370
    25
100
AcDbCircle
 10
-27.5180206413
 20
-4.9670984381
 30
0.0
 40
5.995565504260341
100
AcDbArc
 50
306.5153794396
 51
323.6785239286
  0
ARC
  5
226
330
1F
100
AcDbEntity
  8
0
  6
Continuous
 62
     7
370
    25
100
AcDbCircle
 10
-16.8919749349
 20
4.302462423
 30
0.0
 40
15.7574926147436
100
AcDbArc
 50
241.700643787
 51
243.3882363551
  0
ARC
  5
227
330
1F
100
AcDbEntity
  8
0
  6
Continuous
 62
     7
370
    25
100
AcDbCircle
 10
-18.3697404924
 20
-9.7220893779
 30
0.0
 40
5.994405879178832
100
AcDbArc
 50
161.3973842655
 51
178.5627490892
  0
ARC
  5
228
330
1F
100
AcDbEntity
  8
0
  6
Continuous
 62
     7
370
    25
100
AcDbCircle
 10
-16.8928050826
 20
4.3004936216
 30
0.0
 40
14.06768758136975
100
AcDbArc
 50
236.6794999505
 51
239.4136217098
  0
ARC
  5
229
330
1F
100
AcDbEntity
  8
0
  6
Continuous
 62
     7
370
    25
100
AcDbCircle
 10
-28.8366988125
 20
-3.1903089192
 30
0.0
 40
5.996726835168384
100
AcDbArc
 50
297.5140813533
 51
314.6750029604
  0
ARC
  5
22A
330
1F
100
AcDbEntity
  8
0
  6
Continuous
 62
     7
370
    25
100
AcDbCircle
 10
-16.8927204202
 20
4.3012933941
 30
0.0
 40
15.75610481543803
100
AcDbArc
 50
232.7047034195
 51
234.3923950847
  0
ARC
  5
22B
330
1F
100
AcDbEntity
  8
0
  6
Continuous
 62
     7
370
    25
100
AcDbCircle
 10
-20.5448596706
 20
-9.3193536487
 30
0.0
 40
5.994104353092957
100
AcDbArc
 50
152.392760274
 51
169.5587025475
  0
ARC
  5
22C
330
1F
100
AcDbEntity
  8
0
  6
Continuous
 62
     7
370
    25
100
AcDbCircle
 10
-16.8938213691
 20
4.2991367342
 30
0.0
 40
14.06599076030097
100
AcDbArc
 50
227.6831855716
 51
230.4175272271
  0
ARC
  5
22D
330
1F
100
AcDbEntity
  8
0
  6
Continuous
 62
     7
370
    25
100
AcDbCircle
 10
-29.8612480277
 20
-1.2291263464
 30
0.0
 40
5.998063261743035
100
AcDbArc
 50
288.5142216222
 51
305.67258609
  0
ARC
  5
22E
330
1F
100
AcDbEntity
  8
0
  6
Continuous
 62
     7
370
    25
100
AcDbCircle
 10
-16.8942788547
 20
4.2995148507
 30
0.0
 40
15.75373777803033
100
AcDbArc
 50
223.7080074271
 51
225.3958681463
  0
ARC
  5
22F
330
1F
100
AcDbEntity
  8
0
  6
Continuous
 62
     7
370
    25
100
AcDbCircle
 10
-22.6298896155
 20
-8.5816321097
 30
0.0
 40
5.99423449728564
100
AcDbArc
 50
143.3884623424
 51
160.554155372
  0
ARC
  5
230
330
1F
100
AcDbEntity
  8
0
  6
Continuous
 62
     7
370
    25
100
AcDbCircle
 10
-16.8955909828
 20
4.2974066657
 30
0.0
 40
14.06351366653478
100
AcDbArc
 50
218.6859231008
 51
221.4205858501
  0
ARC
  5
231
330
1F
100
AcDbEntity
  8
0
  6
Continuous
 62
     7
370
    25
100
AcDbCircle
 10
-30.5663434245
 20
0.8680662234
 30
0.0
 40
5.99944398956856
100
AcDbArc
 50
279.5157861578
 51
296.6715097192
  0
ARC
  5
232
330
1F
100
AcDbEntity
  8
0
  6
Continuous
 62
     7
370
    25
100
AcDbCircle
 10
-16.8966655066
 20
4.2975187079
 30
0.0
 40
15.75062333016512
100
AcDbArc
 50
214.7102324233
 51
216.3983156412
  0
ARC
  5
233
330
1F
100
AcDbEntity
  8
0
  6
Continuous
 62
     7
370
    25
100
AcDbCircle
 10
-24.5735547526
 20
-7.5272071556
 30
0.0
 40
5.994783581538017
100
AcDbArc
 50
134.3849114517
 51
151.5495530097
  0
ARC
  5
234
330
1F
100
AcDbEntity
  8
0
  6
Continuous
 62
     7
370
    25
100
AcDbCircle
 10
-16.8980443867
 20
4.2956594283
 30
0.0
 40
14.06049888773065
100
AcDbArc
 50
209.6874444951
 51
212.4224981627
  0
ARC
  5
235
330
1F
100
AcDbEntity
  8
0
  6
Continuous
 62
     7
370
    25
100
AcDbCircle
 10
-30.9345786042
 20
3.049502674
 30
0.0
 40
6.000733858014624
100
AcDbArc
 50
270.5186215254
 51
287.6718788837
  0
ARC
  5
236
330
1F
100
AcDbEntity
  8
0
  6
Continuous
 62
     7
370
    25
100
AcDbCircle
 10
-16.8997114103
 20
4.29568871
 30
0.0
 40
15.74706644960139
100
AcDbArc
 50
205.7111604561
 51
207.3994978701
  0
ARC
  5
237
330
1F
100
AcDbEntity
  8
0
  6
Continuous
 62
     7
370
    25
100
AcDbCircle
 10
-26.3281065149
 20
-6.1821172874
 30
0.0
 40
5.995697893441255
100
AcDbArc
 50
125.3824552666
 51
142.5453463156
  0
ARC
  5
238
330
1F
100
AcDbEntity
  8
0
  6
Continuous
 62
     7
370
    25
100
AcDbCircle
 10
-16.900955807
 20
4.2942055524
 30
0.0
 40
14.05724161241865
100
AcDbArc
 50
200.6876005923
 51
203.4230767792
  0
ARC
  5
239
330
1F
100
AcDbEntity
  8
0
  6
Continuous
 62
     7
370
    25
100
AcDbCircle
 10
-30.9569039603
 20
5.2613360094
 30
0.0
 40
6.0018065727578
100
AcDbArc
 50
261.5224500735
 51
278.6736570968
  0
ARC
  5
23A
330
1F
100
AcDbEntity
  8
0
  6
Continuous
 62
     7
370
    25
100
AcDbCircle
 10
-16.9030915494
 20
4.2943180443
 30
0.0
 40
15.74341536727763
100
AcDbArc
 50
196.7107004009
 51
198.3992988428
  0
ARC
  5
23B
330
1F
100
AcDbEntity
  8
0
  6
Continuous
 62
     7
370
    25
100
AcDbCircle
 10
-27.8504748919
 20
-4.5794995966
 30
0.0
 40
5.996887982467864
100
AcDbArc
 50
116.381334074
 51
133.5419472889
  0
ARC
  5
23C
330
1F
100
AcDbEntity
  8
0
  6
Continuous
 62
     7
370
    25
100
AcDbCircle
 10
-16.9039848394
 20
4.2932441272
 30
0.0
 40
14.05406070409682
100
AcDbArc
 50
191.6863758032
 51
194.4222647609
  0
ARC
  5
23D
330
1F
100
AcDbEntity
  8
0
  6
Continuous
 62
     7
370
    25
100
AcDbCircle
 10
-30.6328456803
 20
7.4489931926
 30
0.0
 40
6.002557080959058
100
AcDbArc
 50
252.5268971521
 51
269.6766700544
  0
ARC
  5
23E
330
1F
100
AcDbEntity
  8
0
  6
Continuous
 62
     7
370
    25
100
AcDbCircle
 10
-16.9063873591
 20
4.2935480337
 30
0.0
 40
15.74002745764951
100
AcDbArc
 50
187.7088969884
 51
189.3977377335
  0
ARC
  5
23F
330
1F
100
AcDbEntity
  8
0
  6
Continuous
 62
     7
370
    25
100
AcDbCircle
 10
-29.1032999905
 20
-2.7587702193
 30
0.0
 40
5.998237397415023
100
AcDbArc
 50
107.3816573162
 51
124.5396886602
  0
ARC
  5
240
330
1F
100
AcDbEntity
  8
0
  6
Continuous
 62
     7
370
    25
100
AcDbCircle
 10
-16.9067434069
 20
4.2928223037
 30
0.0
 40
14.05126748147138
100
AcDbArc
 50
182.6838897555
 51
185.4201413044
  0
ARC
  5
241
330
1F
100
AcDbEntity
  8
0
  6
Continuous
 62
     7
370
    25
100
AcDbCircle
 10
-29.9705008646
 20
9.5585429716
 30
0.0
 40
6.002911872919721
100
AcDbArc
 50
243.5315277424
 51
260.6806227889
  0
ARC
  5
242
330
1F
100
AcDbEntity
  8
0
  6
Continuous
 62
     7
370
    25
100
AcDbCircle
 10
-16.9091701319
 20
4.2933412073
 30
0.0
 40
15.73723426371934
100
AcDbArc
 50
178.7059265418
 51
180.3949671213
  0
ARC
  5
243
330
1F
100
AcDbEntity
  8
0
  6
Continuous
 62
     7
370
    25
100
AcDbCircle
 10
-30.0558245223
 20
-0.7646637276
 30
0.0
 40
5.999614069030637
100
AcDbArc
 50
98.3833929953
 51
115.5387913174
  0
ARC
  5
244
330
1F
100
AcDbEntity
  8
0
  6
Continuous
 62
     7
370
    25
100
AcDbCircle
 10
-16.9088736534
 20
4.2928290155
 30
0.0
 40
14.04913526382356
100
AcDbArc
 50
173.6803856844
 51
176.4169140997
  0
ARC
  5
245
330
1F
100
AcDbEntity
  8
0
  6
Continuous
 62
     7
370
    25
100
AcDbCircle
 10
-28.9863124904
 20
11.5380377693
 30
0.0
 40
6.002836194802066
100
AcDbArc
 50
234.5358889278
 51
251.6851285572
  0
ARC
  5
246
330
1F
100
AcDbEntity
  8
0
  6
Continuous
 62
     7
370
    25
100
AcDbCircle
 10
-16.9110873356
 20
4.2934945244
 30
0.0
 40
15.73530907719172
100
AcDbArc
 50
169.7020797961
 51
171.3912581443
  0
ARC
  5
247
330
1F
100
AcDbEntity
  8
0
  6
Continuous
 62
     7
370
    25
100
AcDbCircle
 10
-30.6846312205
 20
1.3538470594
 30
0.0
 40
6.000883229898868
100
AcDbArc
 50
89.3863709419
 51
106.5393427614
  0
ARC
  5
248
330
1F
100
AcDbEntity
  8
0
  6
Continuous
 62
     7
370
    25
100
AcDbCircle
 10
-16.9101199562
 20
4.2930241891
 30
0.0
 40
14.0478726549739
100
AcDbArc
 50
164.6762066679
 51
167.4128990646
  0
ARC
  5
249
330
1F
100
AcDbEntity
  8
0
  6
Continuous
 62
     7
370
    25
100
AcDbCircle
 10
-27.7046353529
 20
13.3387935591
 30
0.0
 40
6.002337459868862
100
AcDbArc
 50
225.5395540919
 51
242.6897466298
  0
ARC
  5
24A
330
1F
100
AcDbEntity
  8
0
  6
Continuous
 62
     7
370
    25
100
AcDbCircle
 10
-16.9119332047
 20
4.2936897444
 30
0.0
 40
15.73444023485976
100
AcDbArc
 50
160.6977334517
 51
162.3869739846
  0
ARC
  5
24B
330
1F
100
AcDbEntity
  8
0
  6
Continuous
 62
     7
370
    25
100
AcDbCircle
 10
-30.9742113751
 20
3.5447288933
 30
0.0
 40
6.0019206099335
100
AcDbArc
 50
80.3902995752
 51
97.5412886694
  0
ARC
  5
24C
330
1F
100
AcDbEntity
  8
0
  6
Continuous
 62
     7
370
    25
100
AcDbCircle
 10
-16.9103795084
 20
4.2930969518
 30
0.0
 40
14.04760316691698
100
AcDbArc
 50
155.6717620147
 51
158.4084894144
  0
ARC
  5
24D
330
1F
100
AcDbEntity
  8
0
  6
Continuous
 62
     7
370
    25
100
AcDbCircle
 10
-26.1571100345
 20
14.9165760488
 30
0.0
 40
6.001464520772561
100
AcDbArc
 50
216.5421645694
 51
233.6940253078
  0
ARC
  5
24E
330
1F
100
AcDbEntity
  8
0
  6
Continuous
 62
     7
370
    25
100
AcDbCircle
 10
-16.9116883706
 20
4.2935698122
 30
0.0
 40
15.7347127262723
100
AcDbArc
 50
151.6933132417
 51
153.3825342712
  0
ARC
  5
24F
330
1F
100
AcDbEntity
  8
0
  6
Continuous
 62
     7
370
    25
100
AcDbCircle
 10
-30.9173522459
 20
5.754140659
 30
0.0
 40
6.002624614466327
100
AcDbArc
 50
71.3947944744
 51
88.5444383439
  0
ARC
  5
250
330
1F
100
AcDbEntity
  8
0
  6
Continuous
 62
     7
370
    25
100
AcDbCircle
 10
-16.9097205714
 20
4.2927400054
 30
0.0
 40
14.04835316030161
100
AcDbArc
 50
146.667487108
 51
149.4041170961
  0
ARC
  5
251
330
1F
100
AcDbEntity
  8
0
  6
Continuous
 62
     7
370
    25
100
AcDbCircle
 10
-24.3818660561
 20
16.2326667051
 30
0.0
 40
6.000302874915956
100
AcDbArc
 50
207.5434647138
 51
224.6975460048
  0
ARC
  5
252
330
1F
100
AcDbEntity
  8
0
  6
Continuous
 62
     7
370
    25
100
AcDbCircle
 10
-16.9105200199
 20
4.2928244357
 30
0.0
 40
15.73609989712164
100
AcDbArc
 50
142.6892521498
 51
144.3783739026
  0
ARC
  5
253
330
1F
100
AcDbEntity
  8
0
  6
Continuous
 62
     7
370
    25
100
AcDbCircle
 10
-30.5153326078
 20
7.9277360872
 30
0.0
 40
6.002926287635141
100
AcDbArc
 50
62.3994159553
 51
79.5484834628
  0
ARC
  5
254
330
1F
100
AcDbEntity
  8
0
  6
Continuous
 62
     7
370
    25
100
AcDbCircle
 10
-16.9083645209
 20
4.2917237893
 30
0.0
 40
14.05004927134801
100
AcDbArc
 50
137.6638006687
 51
140.4002103924
  0
ARC
  5
255
330
1F
100
AcDbEntity
  8
0
  6
Continuous
 62
     7
370
    25
100
AcDbCircle
 10
-22.4225777025
 20
17.2547874221
 30
0.0
 40
5.998966277023841
100
AcDbArc
 50
198.5433269659
 51
215.6999641292
  0
ARC
  5
256
330
1F
100
AcDbEntity
  8
0
  6
Continuous
 62
     7
370
    25
100
AcDbCircle
 10
-16.908742648
 20
4.2912660097
 30
0.0
 40
15.73846605055883
100
AcDbArc
 50
133.6859479113
 51
135.3749003573
  0
ARC
  5
257
330
1F
100
AcDbEntity
  8
0
  6
Continuous
 62
     7
370
    25
100
AcDbCircle
 10
-29.7779177022
 20
10.0119895627
 30
0.0
 40
6.002796078681123
100
AcDbArc
 50
53.4037119913
 51
70.5530282637
  0
ARC
  5
258
330
1F
100
AcDbEntity
  8
0
  6
Continuous
 62
     7
370
    25
100
AcDbCircle
 10
-16.9066356755
 20
4.2899540899
 30
0.0
 40
14.05252557376449
100
AcDbArc
 50
128.6610636672
 51
131.397151887
  0
ARC
  5
259
330
1F
100
AcDbEntity
  8
0
  6
Continuous
 62
     7
370
    25
100
AcDbCircle
 10
-20.3273969245
 20
17.9578673224
 30
0.0
 40
5.997585586949108
100
AcDbArc
 50
189.5417644513
 51
206.7010428001
  0
ARC
  5
25A
330
1F
100
AcDbEntity
  8
0
  6
Continuous
 62
     7
370
    25
100
AcDbCircle
 10
-16.90674803
 20
4.2888791311
 30
0.0
 40
15.74157969670523
100
AcDbArc
 50
124.6837240008
 51
126.372453719
  0
ARC
  5
25B
330
1F
100
AcDbEntity
  8
0
  6
Continuous
 62
     7
370
    25
100
AcDbCircle
 10
-28.7231479539
 20
11.9555150795
 30
0.0
 40
6.002246742560906
100
AcDbArc
 50
44.4072623257
 51
61.5576282069
  0
ARC
  5
25C
330
1F
100
AcDbEntity
  8
0
  6
Continuous
 62
     7
370
    25
100
AcDbCircle
 10
-16.9048898927
 20
4.2875003527
 30
0.0
 40
14.05553978221217
100
AcDbArc
 50
119.6595439453
 51
122.395240951
  0
ARC
  5
25D
330
1F
100
AcDbEntity
  8
0
  6
Continuous
 62
     7
370
    25
100
AcDbCircle
 10
-18.1477877832
 20
18.3246389133
 30
0.0
 40
5.996295950902419
100
AcDbArc
 50
180.5389298326
 51
197.7006761033
  0
ARC
  5
25E
330
1F
100
AcDbEntity
  8
0
  6
Continuous
 62
     7
370
    25
100
AcDbCircle
 10
-16.9049197125
 20
4.2858327018
 30
0.0
 40
15.74513616402136
100
AcDbArc
 50
115.6827979557
 51
117.3712733596
  0
ARC
  5
25F
330
1F
100
AcDbEntity
  8
0
  6
Continuous
 62
     7
370
    25
100
AcDbCircle
 10
-27.3769202998
 20
13.7103456536
 30
0.0
 40
6.001332087888593
100
AcDbArc
 50
35.4097195061
 51
52.5618333613
  0
ARC
  5
260
330
1F
100
AcDbEntity
  8
0
  6
Continuous
 62
     7
370
    25
100
AcDbCircle
 10
-16.9034375136
 20
4.2845883327
 30
0.0
 40
14.05879692600022
100
AcDbArc
 50
110.6593900262
 51
113.3946644444
  0
ARC
  5
261
330
1F
100
AcDbEntity
  8
0
  6
Continuous
 62
     7
370
    25
100
AcDbCircle
 10
-15.9372867538
 20
18.3460535327
 30
0.0
 40
5.995223574438795
100
AcDbArc
 50
171.5351004753
 51
188.6988995829
  0
ARC
  5
262
330
1F
100
AcDbEntity
  8
0
  6
Continuous
 62
     7
370
    25
100
AcDbCircle
 10
-16.9035506672
 20
4.2824517623
 30
0.0
 40
15.74878737938578
100
AcDbArc
 50
106.6832601413
 51
108.3714745553
  0
ARC
  5
263
330
1F
100
AcDbEntity
  8
0
  6
Continuous
 62
     7
370
    25
100
AcDbCircle
 10
-25.7723668678
 20
15.2331386118
 30
0.0
 40
6.000141696116614
100
AcDbArc
 50
26.4108428654
 51
43.5652323156
  0
ARC
  5
264
330
1F
100
AcDbEntity
  8
0
  6
Continuous
 62
     7
370
    25
100
AcDbCircle
 10
-16.9024774417
 20
4.2815584951
 30
0.0
 40
14.06197819184546
100
AcDbArc
 50
101.6606166672
 51
104.3954784999
  0
ARC
  5
265
330
1F
100
AcDbEntity
  8
0
  6
Continuous
 62
     7
370
    25
100
AcDbCircle
 10
-13.7502134139
 20
18.021507978
 30
0.0
 40
5.994473381186
100
AcDbArc
 50
162.5306513385
 51
179.6958868965
  0
ARC
  5
266
330
1F
100
AcDbEntity
  8
0
  6
Continuous
 62
     7
370
    25
100
AcDbCircle
 10
-16.9027820268
 20
4.2791549854
 30
0.0
 40
15.75217591751616
100
AcDbArc
 50
97.6850650132
 51
99.3730373038
  0
ARC
  5
267
330
1F
100
AcDbEntity
  8
0
  6
Continuous
 62
     7
370
    25
100
AcDbCircle
 10
-23.9490427432
 20
16.4862718069
 30
0.0
 40
5.998792134087126
100
AcDbArc
 50
17.4105221339
 51
34.5674923672
  0
ARC
  5
268
330
1F
100
AcDbEntity
  8
0
  6
Continuous
 62
     7
370
    25
100
AcDbCircle
 10
-16.9020566828
 20
4.2787990448
 30
0.0
 40
14.06477212448141
100
AcDbArc
 50
92.6631035331
 51
95.3976031428
  0
ARC
  5
269
330
1F
100
AcDbEntity
  8
0
  6
Continuous
 62
     7
370
    25
100
AcDbCircle
 10
-11.6403569584
 20
17.358875905
 30
0.0
 40
5.994118760542761
100
AcDbArc
 50
153.5260182272
 51
170.691932908
  0
ARC
  5
26A
330
1F
100
AcDbEntity
  8
0
  6
Continuous
 62
     7
370
    25
100
AcDbCircle
 10
-16.9025761934
 20
4.2763712501
 30
0.0
 40
15.75496999533566
100
AcDbArc
 50
88.6880356908
 51
90.3758083996
  0
ARC
  5
26B
330
1F
100
AcDbEntity
  8
0
  6
Continuous
 62
     7
370
    25
100
AcDbCircle
 10
-21.9519420391
 20
17.4387974515
 30
0.0
 40
5.997415527232965
100
AcDbArc
 50
8.4087883503
 51
25.5683920844
  0
ARC
  5
26C
330
1F
100
AcDbEntity
  8
0
  6
Continuous
 62
     7
370
    25
100
AcDbCircle
 10
-16.9020640936
 20
4.276668007
 30
0.0
 40
14.06690513349571
100
AcDbArc
 50
83.6666070763
 51
86.4008302299
  0
ARC
  5
26D
330
1F
100
AcDbEntity
  8
0
  6
Continuous
 62
     7
370
    25
100
AcDbCircle
 10
-9.6596656402
 20
16.3743396166
 30
0.0
 40
5.994194400909931
100
AcDbArc
 50
144.5216550209
 51
161.6874248396
  0
ARC
  5
26E
330
1F
100
AcDbEntity
  8
0
  6
Continuous
 62
     7
370
    25
100
AcDbCircle
 10
-16.902730085
 20
4.2744532857
 30
0.0
 40
15.75689598356522
100
AcDbArc
 50
79.6918813508
 51
81.3795165201
  0
ARC
  5
26F
330
1F
100
AcDbEntity
  8
0
  6
Continuous
 62
     7
370
    25
100
AcDbCircle
 10
-19.830368668
 20
18.0672240981
 30
0.0
 40
5.996146618231579
100
AcDbArc
 50
359.40581096
 51
16.5678430597
  0
ARC
  5
270
330
1F
100
AcDbEntity
  8
0
  6
Continuous
 62
     7
370
    25
100
AcDbCircle
 10
-16.9022596052
 20
4.2754211784
 30
0.0
 40
14.0681683126858
100
AcDbArc
 50
74.6707844205
 51
77.4048438883
  0
ARC
  5
271
330
1F
100
AcDbEntity
  8
0
  6
Continuous
 62
     7
370
    25
100
AcDbCircle
 10
-7.8569683768
 20
15.0920207889
 30
0.0
 40
5.994692903443345
100
AcDbArc
 50
135.5179891079
 51
152.6828042993
  0
ARC
  5
272
330
1F
100
AcDbEntity
  8
0
  6
Continuous
 62
     7
370
    25
100
AcDbCircle
 10
-16.9029255113
 20
4.273607039
 30
0.0
 40
15.75776523920614
100
AcDbArc
 50
70.6962257075
 51
72.3837988102
  0
ARC
  5
273
330
1F
100
AcDbEntity
  8
0
  6
Continuous
 62
     7
370
    25
100
AcDbCircle
 10
-17.6366942686
 20
18.3561031657
 30
0.0
 40
5.995109580966722
100
AcDbArc
 50
350.4018813315
 51
7.5658986915
  0
ARC
  5
274
330
1F
100
AcDbEntity
  8
0
  6
Continuous
 62
     7
370
    25
100
AcDbCircle
 10
-16.9023324265
 20
4.2751615061
 30
0.0
 40
14.06843793228174
100
AcDbArc
 50
65.6752268957
 51
68.4092514287
  0
ARC
  5
275
330
1F
100
AcDbEntity
  8
0
  6
Continuous
 62
     7
370
    25
100
AcDbCircle
 10
-6.2767598365
 20
13.5434128643
 30
0.0
 40
5.995565504260255
100
AcDbArc
 50
126.5153794396
 51
143.6785239286
  0
ARC
  5
276
330
1F
100
AcDbEntity
  8
0
  6
Continuous
 62
     7
370
    25
100
AcDbCircle
 10
-16.9028055429
 20
4.2738520033
 30
0.0
 40
15.75749261472552
100
AcDbArc
 50
61.700643787
 51
63.3882363551
  0
ARC
  5
277
330
1F
100
AcDbEntity
  8
0
  6
Continuous
 62
     7
370
    25
100
AcDbCircle
 10
-15.4250399855
 20
18.2984038041
 30
0.0
 40
5.994405879179292
100
AcDbArc
 50
341.3973842655
 51
358.5627490892
  0
ARC
  5
278
330
1F
100
AcDbEntity
  8
0
  6
Continuous
 62
     7
370
    25
100
AcDbCircle
 10
-16.9019753953
 20
4.2758208046
 30
0.0
 40
14.06768758137152
100
AcDbArc
 50
56.6794999505
 51
59.4136217098
  0
ARC
  5
279
330
1F
100
AcDbEntity
  8
0
  6
Continuous
 62
     7
370
    25
100
AcDbCircle
 10
-4.9580816654
 20
11.7666233454
 30
0.0
 40
5.996726835168309
100
AcDbArc
 50
117.5140813533
 51
134.6750029604
  0
ARC
  5
27A
330
1F
100
AcDbEntity
  8
0
  6
Continuous
 62
     7
370
    25
100
AcDbCircle
 10
-16.9020600576
 20
4.2750210321
 30
0.0
 40
15.7561048153901
100
AcDbArc
 50
52.7047034195
 51
54.3923950847
  0
ARC
  5
27B
330
1F
100
AcDbEntity
  8
0
  6
Continuous
 62
     7
370
    25
100
AcDbCircle
 10
-13.2499208073
 20
17.8956680749
 30
0.0
 40
5.994104353092407
100
AcDbArc
 50
332.392760274
 51
349.5587025475
  0
ARC
  5
27C
330
1F
100
AcDbEntity
  8
0
  6
Continuous
 62
     7
370
    25
100
AcDbCircle
 10
-16.9009591088
 20
4.277177692
 30
0.0
 40
14.06599076028688
100
AcDbArc
 50
47.6831855716
 51
50.4175272271
  0
ARC
  5
27D
330
1F
100
AcDbEntity
  8
0
  6
Continuous
 62
     7
370
    25
100
AcDbCircle
 10
-3.9335324502
 20
9.8054407726
 30
0.0
 40
5.998063261743201
100
AcDbArc
 50
108.5142216222
 51
125.67258609
  0
ARC
  5
27E
330
1F
100
AcDbEntity
  8
0
  6
Continuous
 62
     7
370
    25
100
AcDbCircle
 10
-16.9005016231
 20
4.2767995755
 30
0.0
 40
15.75373777802542
100
AcDbArc
 50
43.7080074271
 51
45.3958681463
  0
ARC
  5
27F
330
1F
100
AcDbEntity
  8
0
  6
Continuous
 62
     7
370
    25
100
AcDbCircle
 10
-11.1648908624
 20
17.1579465359
 30
0.0
 40
5.994234497285444
100
AcDbArc
 50
323.3884623425
 51
340.554155372
  0
ARC
  5
280
330
1F
100
AcDbEntity
  8
0
  6
Continuous
 62
     7
370
    25
100
AcDbCircle
 10
-16.8991894951
 20
4.2789077605
 30
0.0
 40
14.06351366654747
100
AcDbArc
 50
38.6859231008
 51
41.42058585
  0
ARC
  5
281
330
1F
100
AcDbEntity
  8
0
  6
Continuous
 62
     7
370
    25
100
AcDbCircle
 10
-3.2284370534
 20
7.7082482028
 30
0.0
 40
5.999443989568844
100
AcDbArc
 50
99.5157861578
 51
116.6715097192
  0
ARC
  5
282
330
1F
100
AcDbEntity
  8
0
  6
Continuous
 62
     7
370
    25
100
AcDbCircle
 10
-16.8981149713
 20
4.2787957183
 30
0.0
 40
15.75062333015995
100
AcDbArc
 50
34.7102324233
 51
36.3983156412
  0
ARC
  5
283
330
1F
100
AcDbEntity
  8
0
  6
Continuous
 62
     7
370
    25
100
AcDbCircle
 10
-9.2212257253
 20
16.1035215818
 30
0.0
 40
5.994783581538249
100
AcDbArc
 50
314.3849114517
 51
331.5495530097
  0
ARC
  5
284
330
1F
100
AcDbEntity
  8
0
  6
Continuous
 62
     7
370
    25
100
AcDbCircle
 10
-16.8967360912
 20
4.2806549979
 30
0.0
 40
14.06049888772316
100
AcDbArc
 50
29.6874444951
 51
32.4224981627
  0
ARC
  5
285
330
1F
100
AcDbEntity
  8
0
  6
Continuous
 62
     7
370
    25
100
AcDbCircle
 10
-2.8602018737
 20
5.5268117522
 30
0.0
 40
6.000733858014826
100
AcDbArc
 50
90.5186215254
 51
107.6718788837
  0
ARC
  5
286
330
1F
100
AcDbEntity
  8
0
  6
Continuous
 62
     7
370
    25
100
AcDbCircle
 10
-16.8950690675
 20
4.2806257162
 30
0.0
 40
15.74706644960208
100
AcDbArc
 50
25.7111604561
 51
27.3994978701
  0
ARC
  5
287
330
1F
100
AcDbEntity
  8
0
  6
Continuous
 62
     7
370
    25
100
AcDbCircle
 10
-7.4666739629
 20
14.7584317136
 30
0.0
 40
5.995697893441039
100
AcDbArc
 50
305.3824552666
 51
322.5453463156
  0
ARC
  5
288
330
1F
100
AcDbEntity
  8
0
  6
Continuous
 62
     7
370
    25
100
AcDbCircle
 10
-16.8938246708
 20
4.2821088738
 30
0.0
 40
14.05724161240703
100
AcDbArc
 50
20.6876005923
 51
23.4230767792
  0
ARC
  5
289
330
1F
100
AcDbEntity
  8
0
  6
Continuous
 62
     7
370
    25
100
AcDbCircle
 10
-2.8378765175
 20
3.3149784168
 30
0.0
 40
6.001806572757652
100
AcDbArc
 50
81.5224500735
 51
98.6736570968
  0
ARC
  5
28A
330
1F
100
AcDbEntity
  8
0
  6
Continuous
 62
     7
370
    25
100
AcDbCircle
 10
-16.8916889285
 20
4.2819963819
 30
0.0
 40
15.74341536724698
100
AcDbArc
 50
16.7107004009
 51
18.3992988428
  0
ARC
  5
28B
330
1F
100
AcDbEntity
  8
0
  6
Continuous
 62
     7
370
    25
100
AcDbCircle
 10
-5.944305586
 20
13.1558140228
 30
0.0
 40
5.996887982467636
100
AcDbArc
 50
296.381334074
 51
313.5419472889
  0
ARC
  5
28C
330
1F
100
AcDbEntity
  8
0
  6
Continuous
 62
     7
370
    25
100
AcDbCircle
 10
-16.8907956385
 20
4.283070299
 30
0.0
 40
14.05406070408045
100
AcDbArc
 50
11.6863758031
 51
14.4222647609
  0
ARC
  5
28D
330
1F
100
AcDbEntity
  8
0
  6
Continuous
 62
     7
370
    25
100
AcDbCircle
 10
-3.1619347976
 20
1.1273212336
 30
0.0
 40
6.002557080959292
100
AcDbArc
 50
72.5268971521
 51
89.6766700544
  0
ARC
  5
28E
330
1F
100
AcDbEntity
  8
0
  6
Continuous
 62
     7
370
    25
100
AcDbCircle
 10
-16.8883931188
 20
4.2827663925
 30
0.0
 40
15.7400274576874
100
AcDbArc
 50
7.7088969884
 51
9.3977377335
  0
ARC
  5
28F
330
1F
100
AcDbEntity
  8
0
  6
Continuous
 62
     7
370
    25
100
AcDbCircle
 10
-4.6914804874
 20
11.3350846455
 30
0.0
 40
5.99823739741492
100
AcDbArc
 50
287.3816573162
 51
304.5396886602
  0
ARC
  5
290
330
1F
100
AcDbEntity
  8
0
  6
Continuous
 62
     7
370
    25
100
AcDbCircle
 10
-16.888037071
 20
4.2834921225
 30
0.0
 40
14.05126748147407
100
AcDbArc
 50
2.6838897555
 51
5.4201413044
  0
ARC
  5
291
330
1F
100
AcDbEntity
  8
0
  6
Continuous
 62
     7
370
    25
100
AcDbCircle
 10
-3.8242796132
 20
-0.9822285454
 30
0.0
 40
6.002911872919859
100
AcDbArc
 50
63.5315277424
 51
80.6806227889
  0
ARC
  5
292
330
1F
100
AcDbEntity
  8
0
  6
Continuous
 62
     7
370
    25
100
AcDbCircle
 10
-16.885610346
 20
4.2829732189
 30
0.0
 40
15.73723426372316
100
AcDbArc
 50
358.7059265418
 51
0.3949671213
  0
ARC
  5
293
330
1F
100
AcDbEntity
  8
0
  6
Continuous
 62
     7
370
    25
100
AcDbCircle
 10
-3.7389559556
 20
9.3409781538
 30
0.0
 40
5.999614069030587
100
AcDbArc
 50
278.3833929953
 51
295.5387913174
  0
ARC
  5
294
330
1F
100
AcDbEntity
  8
0
  6
Continuous
 62
     7
370
    25
100
AcDbCircle
 10
-16.8859068245
 20
4.2834854107
 30
0.0
 40
14.04913526380844
100
AcDbArc
 50
353.6803856844
 51
356.4169140997
  0
ARC
  5
295
330
1F
100
AcDbEntity
  8
0
  6
Continuous
 62
     7
370
    25
100
AcDbCircle
 10
-4.8084679874
 20
-2.9617233431
 30
0.0
 40
6.002836194802446
100
AcDbArc
 50
54.5358889278
 51
71.6851285572
  0
ARC
  5
296
330
1F
100
AcDbEntity
  8
0
  6
Continuous
 62
     7
370
    25
100
AcDbCircle
 10
-16.8836931423
 20
4.2828199018
 30
0.0
 40
15.73530907720954
100
AcDbArc
 50
349.7020797961
 51
351.3912581443
  0
ARC
  5
297
330
1F
100
AcDbEntity
  8
0
  6
Continuous
 62
     7
370
    25
100
AcDbCircle
 10
-3.1101492574
 20
7.2224673668
 30
0.0
 40
6.000883229899024
100
AcDbArc
 50
269.3863709419
 51
286.5393427614
  0
ARC
  5
298
330
1F
100
AcDbEntity
  8
0
  6
Continuous
 62
     7
370
    25
100
AcDbCircle
 10
-16.8846605217
 20
4.2832902371
 30
0.0
 40
14.04787265498488
100
AcDbArc
 50
344.6762066679
 51
347.4128990646
  0
ARC
  5
299
330
1F
100
AcDbEntity
  8
0
  6
Continuous
 62
     7
370
    25
100
AcDbCircle
 10
-6.0901451249
 20
-4.7624791329
 30
0.0
 40
6.002337459868924
100
AcDbArc
 50
45.5395540919
 51
62.6897466298
  0
ARC
  5
29A
330
1F
100
AcDbEntity
  8
0
  6
Continuous
 62
     7
370
    25
100
AcDbCircle
 10
-16.8828472731
 20
4.2826246818
 30
0.0
 40
15.73444023482604
100
AcDbArc
 50
340.6977334517
 51
342.3869739846
  0
ARC
  5
29B
330
1F
100
AcDbEntity
  8
0
  6
Continuous
 62
     7
370
    25
100
AcDbCircle
 10
-2.8205691028
 20
5.0315855329
 30
0.0
 40
6.001920609933504
100
AcDbArc
 50
260.3902995752
 51
277.5412886694
  0
ARC
  5
29C
330
1F
100
AcDbEntity
  8
0
  6
Continuous
 62
     7
370
    25
100
AcDbCircle
 10
-16.8844009695
 20
4.2832174744
 30
0.0
 40
14.0476031669109
100
AcDbArc
 50
335.6717620147
 51
338.4084894144
  0
ARC
  5
29D
330
1F
100
AcDbEntity
  8
0
  6
Continuous
 62
     7
370
    25
100
AcDbCircle
 10
-7.6376704434
 20
-6.3402616226
 30
0.0
 40
6.001464520772454
100
AcDbArc
 50
36.5421645694
 51
53.6940253078
  0
ARC
  5
29E
330
1F
100
AcDbEntity
  8
0
  6
Continuous
 62
     7
370
    25
100
AcDbCircle
 10
-16.8830921072
 20
4.282744614
 30
0.0
 40
15.73471272628524
100
AcDbArc
 50
331.6933132417
 51
333.3825342712
  0
ARC
  5
29F
330
1F
100
AcDbEntity
  8
0
  6
Continuous
 62
     7
370
    25
100
AcDbCircle
 10
-2.877428232
 20
2.8221737672
 30
0.0
 40
6.002624614466455
100
AcDbArc
 50
251.3947944744
 51
268.5444383439
  0
ARC
  5
2A0
330
1F
100
AcDbEntity
  8
0
  6
Continuous
 62
     7
370
    25
100
AcDbCircle
 10
-16.8850599064
 20
4.2835744208
 30
0.0
 40
14.048353160293
100
AcDbArc
 50
326.667487108
 51
329.4041170961
  0
ARC
  5
2A1
330
1F
100
AcDbEntity
  8
0
  6
Continuous
 62
     7
370
    25
100
AcDbCircle
 10
-9.4129144218
 20
-7.6563522789
 30
0.0
 40
6.000302874916092
100
AcDbArc
 50
27.5434647138
 51
44.6975460048
  0
ARC
  5
2A2
330
1F
100
AcDbEntity
  8
0
  6
Continuous
 62
     7
370
    25
100
AcDbCircle
 10
-16.8842604579
 20
4.2834899904
 30
0.0
 40
15.73609989704993
100
AcDbArc
 50
322.6892521498
 51
324.3783739026
  0
ARC
  5
2A3
330
1F
100
AcDbEntity
  8
0
  6
Continuous
 62
     7
370
    25
100
AcDbCircle
 10
-3.27944787
 20
0.648578339
 30
0.0
 40
6.002926287635002
100
AcDbArc
 50
242.3994159553
 51
259.5484834628
  0
ARC
  5
2A4
330
1F
100
AcDbEntity
  8
0
  6
Continuous
 62
     7
370
    25
100
AcDbCircle
 10
-16.9254205207
 20
4.2144578079
 30
0.0
 40
15.75776523921105
100
AcDbArc
 50
250.6962257075
 51
252.3837988102
  0
ARC
  5
2A5
330
1F
100
AcDbEntity
  8
0
  6
Continuous
 62
     7
370
    25
100
AcDbCircle
 10
-16.9255404891
 20
4.2142128436
 30
0.0
 40
15.75749261472866
100
AcDbArc
 50
241.700643787
 51
243.3882363551
  0
ARC
  5
2A6
330
1F
100
AcDbEntity
  8
0
  6
Continuous
 62
     7
370
    25
100
AcDbCircle
 10
-16.1916517635
 20
-9.8680383188
 30
0.0
 40
5.995109580966949
100
AcDbArc
 50
170.4018813315
 51
187.5658986915
  0
ARC
  5
2A7
330
1F
100
AcDbEntity
  8
0
  6
Continuous
 62
     7
370
    25
100
AcDbCircle
 10
-25.9713776553
 20
-6.603955942
 30
0.0
 40
5.994692903443869
100
AcDbArc
 50
315.5179891079
 51
332.6828042993
  0
ARC
  5
2A8
330
1F
100
AcDbEntity
  8
0
  6
Continuous
 62
     7
370
    25
100
AcDbCircle
 10
-27.5515861955
 20
-5.0553480175
 30
0.0
 40
5.995565504260075
100
AcDbArc
 50
306.5153794396
 51
323.6785239286
  0
ARC
  5
2A9
330
1F
100
AcDbEntity
  8
0
  6
Continuous
 62
     7
370
    25
100
AcDbCircle
 10
-16.925615947
 20
4.2136115611
 30
0.0
 40
15.75689598358954
100
AcDbArc
 50
259.6918813508
 51
261.3795165201
  0
ARC
  5
2AA
330
1F
100
AcDbEntity
  8
0
  6
Continuous
 62
     7
370
    25
100
AcDbCircle
 10
-18.4033060466
 20
-9.8103389573
 30
0.0
 40
5.994405879178728
100
AcDbArc
 50
161.3973842655
 51
178.5627490892
  0
ARC
  5
2AB
330
1F
100
AcDbEntity
  8
0
  6
Continuous
 62
     7
370
    25
100
AcDbCircle
 10
-13.9979773641
 20
-9.5791592513
 30
0.0
 40
5.996146618231977
100
AcDbArc
 50
179.40581096
 51
196.5678430597
  0
ARC
  5
2AC
330
1F
100
AcDbEntity
  8
0
  6
Continuous
 62
     7
370
    25
100
AcDbCircle
 10
-24.1686979332
 20
-7.8862640115
 30
0.0
 40
5.994214929565881
100
AcDbArc
 50
324.5216685946
 51
339.1757106281
  0
ARC
  5
2AD
330
1F
100
AcDbEntity
  8
0
  6
Continuous
 62
     7
370
    25
100
AcDbCircle
 10
-28.8702643666
 20
-3.2785584986
 30
0.0
 40
5.996726835168245
100
AcDbArc
 50
297.5140813533
 51
314.6750029604
  0
ARC
  5
2AE
330
1F
100
AcDbEntity
  8
0
  6
Continuous
 62
     7
370
    25
100
AcDbCircle
 10
-16.9262859744
 20
4.2130438148
 30
0.0
 40
15.75610481541503
100
AcDbArc
 50
232.7047034195
 51
234.3923950847
  0
ARC
  5
2AF
330
1F
100
AcDbEntity
  8
0
  6
Continuous
 62
     7
370
    25
100
AcDbCircle
 10
-20.5783841594
 20
-9.407614109
 30
0.0
 40
5.994146710429399
100
AcDbArc
 50
159.1758219264
 51
169.5586714002
  0
ARC
  5
2B0
330
1F
100
AcDbEntity
  8
0
  6
Continuous
 62
     7
370
    25
100
AcDbCircle
 10
-16.9257698387
 20
4.2116935968
 30
0.0
 40
15.75496999536555
100
AcDbArc
 50
268.6880356908
 51
270.3758083996
  0
ARC
  5
2B1
330
1F
100
AcDbEntity
  8
0
  6
Continuous
 62
     7
370
    25
100
AcDbCircle
 10
-11.876403993
 20
-8.9507326046
 30
0.0
 40
5.997415527232847
100
AcDbArc
 50
188.4087883503
 51
205.5683920844
  0
ARC
  5
2B2
330
1F
100
AcDbEntity
  8
0
  6
Continuous
 62
     7
370
    25
100
AcDbCircle
 10
-22.1879534098
 20
-8.8708247944
 30
0.0
 40
5.994080712953686
100
AcDbArc
 50
333.5259837885
 51
339.1757817295
  0
ARC
  5
2B3
330
1F
100
AcDbEntity
  8
0
  6
Continuous
 62
     7
370
    25
100
AcDbCircle
 10
-29.8948135819
 20
-1.3173759258
 30
0.0
 40
5.998063261743113
100
AcDbArc
 50
288.5142216222
 51
305.67258609
  0
ARC
  5
2B4
330
1F
100
AcDbEntity
  8
0
  6
Continuous
 62
     7
370
    25
100
AcDbCircle
 10
-16.9278444089
 20
4.2112652714
 30
0.0
 40
15.75373777802368
100
AcDbArc
 50
223.7080074271
 51
225.3958681463
  0
ARC
  5
2B5
330
1F
100
AcDbEntity
  8
0
  6
Continuous
 62
     7
370
    25
100
AcDbCircle
 10
-16.9260136056
 20
4.2129033408
 30
0.0
 40
14.06843793227616
100
AcDbArc
 50
245.6752268957
 51
248.4092514287
  0
ARC
  5
2B6
330
1F
100
AcDbEntity
  8
0
  6
Continuous
 62
     7
370
    25
100
AcDbCircle
 10
-16.9260864268
 20
4.2126436685
 30
0.0
 40
14.06816831268859
100
AcDbArc
 50
254.6707844205
 51
257.4048438883
  0
ARC
  5
2B7
330
1F
100
AcDbEntity
  8
0
  6
Continuous
 62
     7
370
    25
100
AcDbCircle
 10
-16.9263706368
 20
4.2122440422
 30
0.0
 40
14.06768758136381
100
AcDbArc
 50
236.6794999505
 51
239.4136217098
  0
ARC
  5
2B8
330
1F
100
AcDbEntity
  8
0
  6
Continuous
 62
     7
370
    25
100
AcDbCircle
 10
-16.9255640052
 20
4.2089098615
 30
0.0
 40
15.75217591751733
100
AcDbArc
 50
277.6850650132
 51
279.3730373038
  0
ARC
  5
2B9
330
1F
100
AcDbEntity
  8
0
  6
Continuous
 62
     7
370
    25
100
AcDbCircle
 10
-9.8793032888
 20
-7.99820696
 30
0.0
 40
5.998792134087307
100
AcDbArc
 50
197.4105221339
 51
214.5674923672
  0
ARC
  5
2BA
330
1F
100
AcDbEntity
  8
0
  6
Continuous
 62
     7
370
    25
100
AcDbCircle
 10
-16.9262819385
 20
4.2113968398
 30
0.0
 40
14.06690513348759
100
AcDbArc
 50
263.6666070763
 51
266.4008302299
  0
ARC
  5
2BB
330
1F
100
AcDbEntity
  8
0
  6
Continuous
 62
     7
370
    25
100
AcDbCircle
 10
-30.5999089786
 20
0.7798166441
 30
0.0
 40
5.999443989568615
100
AcDbArc
 50
279.5157861578
 51
296.6715097192
  0
ARC
  5
2BC
330
1F
100
AcDbEntity
  8
0
  6
Continuous
 62
     7
370
    25
100
AcDbCircle
 10
-16.9273869233
 20
4.2108871549
 30
0.0
 40
14.06599076028825
100
AcDbArc
 50
227.6831855716
 51
230.4175272271
  0
ARC
  5
2BD
330
1F
100
AcDbEntity
  8
0
  6
Continuous
 62
     7
370
    25
100
AcDbCircle
 10
-16.9302310608
 20
4.2092691286
 30
0.0
 40
15.75062333017523
100
AcDbArc
 50
214.7102324233
 51
216.3983156412
  0
ARC
  5
2BE
330
1F
100
AcDbEntity
  8
0
  6
Continuous
 62
     7
370
    25
100
AcDbCircle
 10
-16.9262893493
 20
4.2092658021
 30
0.0
 40
14.06477212448836
100
AcDbArc
 50
272.6631035332
 51
275.3976031428
  0
ARC
  5
2BF
330
1F
100
AcDbEntity
  8
0
  6
Continuous
 62
     7
370
    25
100
AcDbCircle
 10
-16.9247953649
 20
4.2056130846
 30
0.0
 40
15.74878737941082
100
AcDbArc
 50
286.6832601413
 51
288.3714745553
  0
ARC
  5
2C0
330
1F
100
AcDbEntity
  8
0
  6
Continuous
 62
     7
370
    25
100
AcDbCircle
 10
-8.0559791642
 20
-6.7450737649
 30
0.0
 40
6.000141696117002
100
AcDbArc
 50
206.4108428654
 51
223.5652323156
  0
ARC
  5
2C1
330
1F
100
AcDbEntity
  8
0
  6
Continuous
 62
     7
370
    25
100
AcDbCircle
 10
-16.9291648328
 20
4.2091502797
 30
0.0
 40
14.06350293642954
100
AcDbArc
 50
218.6859225798
 51
221.3161290669
  0
ARC
  5
2C2
330
1F
100
AcDbEntity
  8
0
  6
Continuous
 62
     7
370
    25
100
AcDbCircle
 10
-30.9681441584
 20
2.9612530947
 30
0.0
 40
6.000733858014938
100
AcDbArc
 50
270.5186215254
 51
287.6718788837
  0
ARC
  5
2C3
330
1F
100
AcDbEntity
  8
0
  6
Continuous
 62
     7
370
    25
100
AcDbCircle
 10
-16.9258649899
 20
4.206491596
 30
0.0
 40
14.06196300420309
100
AcDbArc
 50
281.7961878304
 51
284.3954792377
  0
ARC
  5
2C4
330
1F
100
AcDbEntity
  8
0
  6
Continuous
 62
     7
370
    25
100
AcDbCircle
 10
-16.9332769645
 20
4.2074391307
 30
0.0
 40
15.74706644960424
100
AcDbArc
 50
205.7111604561
 51
207.3994978701
  0
ARC
  5
2C5
330
1F
100
AcDbEntity
  8
0
  6
Continuous
 62
     7
370
    25
100
AcDbCircle
 10
-16.9316264957
 20
4.2074001477
 30
0.0
 40
14.06047970116162
100
AcDbArc
 50
209.6874435625
 51
212.2596254849
  0
ARC
  5
2C6
330
1F
100
AcDbEntity
  8
0
  6
Continuous
 62
     7
370
    25
100
AcDbCircle
 10
-16.9234263196
 20
4.202232145
 30
0.0
 40
15.74513616402688
100
AcDbArc
 50
295.6827979557
 51
297.3712733596
  0
ARC
  5
2C7
330
1F
100
AcDbEntity
  8
0
  6
Continuous
 62
     7
370
    25
100
AcDbCircle
 10
-6.4514257322
 20
-5.2222808068
 30
0.0
 40
6.001332087888599
100
AcDbArc
 50
215.4097195061
 51
232.5618333613
  0
ARC
  5
2C8
330
1F
100
AcDbEntity
  8
0
  6
Continuous
 62
     7
370
    25
100
AcDbCircle
 10
-16.9248995351
 20
4.2034550503
 30
0.0
 40
14.05877365969701
100
AcDbArc
 50
290.8514601465
 51
293.3946655759
  0
ARC
  5
2C9
330
1F
100
AcDbEntity
  8
0
  6
Continuous
 62
     7
370
    25
100
AcDbCircle
 10
-30.9904695145
 20
5.1730864301
 30
0.0
 40
6.001806572757715
100
AcDbArc
 50
261.5224500735
 51
278.6736570968
  0
ARC
  5
2CA
330
1F
100
AcDbEntity
  8
0
  6
Continuous
 62
     7
370
    25
100
AcDbCircle
 10
-16.9366571035
 20
4.206068465
 30
0.0
 40
15.74341536726961
100
AcDbArc
 50
196.7107004009
 51
198.3992988428
  0
ARC
  5
2CB
330
1F
100
AcDbEntity
  8
0
  6
Continuous
 62
     7
370
    25
100
AcDbCircle
 10
-16.9345459101
 20
4.2059463665
 30
0.0
 40
14.05721525271029
100
AcDbArc
 50
200.6875993097
 51
203.2057755854
  0
ARC
  5
2CC
330
1F
100
AcDbEntity
  8
0
  6
Continuous
 62
     7
370
    25
100
AcDbCircle
 10
-5.1051980781
 20
-3.4674502326
 30
0.0
 40
6.002246742560745
100
AcDbArc
 50
224.4072623257
 51
241.5576282069
  0
ARC
  5
2CD
330
1F
100
AcDbEntity
  8
0
  6
Continuous
 62
     7
370
    25
100
AcDbCircle
 10
-16.9234409696
 20
4.2005399429
 30
0.0
 40
14.05551092454274
100
AcDbArc
 50
299.903384364
 51
302.3952423559
  0
ARC
  5
2CE
330
1F
100
AcDbEntity
  8
0
  6
Continuous
 62
     7
370
    25
100
AcDbCircle
 10
-16.921598002
 20
4.1991857157
 30
0.0
 40
15.74157969669494
100
AcDbArc
 50
304.6837240008
 51
306.372453719
  0
ARC
  5
2CF
330
1F
100
AcDbEntity
  8
0
  6
Continuous
 62
     7
370
    25
100
AcDbCircle
 10
-30.6664112344
 20
7.3607436133
 30
0.0
 40
6.002557080959416
100
AcDbArc
 50
252.5268971521
 51
269.6766700544
  0
ARC
  5
2D0
330
1F
100
AcDbEntity
  8
0
  6
Continuous
 62
     7
370
    25
100
AcDbCircle
 10
-16.93757977
 20
4.2049881047
 30
0.0
 40
14.05403063150883
100
AcDbArc
 50
191.6863743384
 51
194.1559065385
  0
ARC
  5
2D1
330
1F
100
AcDbEntity
  8
0
  6
Continuous
 62
     7
370
    25
100
AcDbCircle
 10
-16.9399529132
 20
4.2052984544
 30
0.0
 40
15.74002745768136
100
AcDbArc
 50
187.7088969884
 51
189.3977377335
  0
ARC
  5
2D2
330
1F
100
AcDbEntity
  8
0
  6
Continuous
 62
     7
370
    25
100
AcDbCircle
 10
-16.9216907221
 20
4.1980879398
 30
0.0
 40
14.05249547386562
100
AcDbArc
 50
308.9506246675
 51
311.397153354
  0
ARC
  5
2D3
330
1F
100
AcDbEntity
  8
0
  6
Continuous
 62
     7
370
    25
100
AcDbCircle
 10
-4.0504283298
 20
-1.5239247158
 30
0.0
 40
6.002796078681278
100
AcDbArc
 50
233.4037119913
 51
250.5530282638
  0
ARC
  5
2D4
330
1F
100
AcDbEntity
  8
0
  6
Continuous
 62
     7
370
    25
100
AcDbCircle
 10
-16.919603384
 20
4.1967988372
 30
0.0
 40
15.73846605058992
100
AcDbArc
 50
313.6859479113
 51
315.3749003573
  0
ARC
  5
2D5
330
1F
100
AcDbEntity
  8
0
  6
Continuous
 62
     7
370
    25
100
AcDbCircle
 10
-30.0040664188
 20
9.4702933923
 30
0.0
 40
6.002911872919955
100
AcDbArc
 50
243.5315277424
 51
260.6806227889
  0
ARC
  5
2D6
330
1F
100
AcDbEntity
  8
0
  6
Continuous
 62
     7
370
    25
100
AcDbCircle
 10
-16.9403377642
 20
4.2045710288
 30
0.0
 40
14.05123863055135
100
AcDbArc
 50
182.6838883485
 51
185.1113526981
  0
ARC
  5
2D7
330
1F
100
AcDbEntity
  8
0
  6
Continuous
 62
     7
370
    25
100
AcDbCircle
 10
-16.942735686
 20
4.205091628
 30
0.0
 40
15.73723426374839
100
AcDbArc
 50
178.7059265418
 51
180.3949671213
  0
ARC
  5
2D8
330
1F
100
AcDbEntity
  8
0
  6
Continuous
 62
     7
370
    25
100
AcDbCircle
 10
-16.9199616471
 20
4.1963242202
 30
0.0
 40
14.05002323331585
100
AcDbArc
 50
317.9918599942
 51
320.4002116631
  0
ARC
  5
2D9
330
1F
100
AcDbEntity
  8
0
  6
Continuous
 62
     7
370
    25
100
AcDbCircle
 10
-3.3130134242
 20
0.5603287597
 30
0.0
 40
6.002926287634948
100
AcDbArc
 50
242.3994159553
 51
259.5484834628
  0
ARC
  5
2DA
330
1F
100
AcDbEntity
  8
0
  6
Continuous
 62
     7
370
    25
100
AcDbCircle
 10
-16.9178260121
 20
4.1952404111
 30
0.0
 40
15.73609989705448
100
AcDbArc
 50
322.6892521498
 51
324.3783739026
  0
ARC
  5
2DB
330
1F
100
AcDbEntity
  8
0
  6
Continuous
 62
     7
370
    25
100
AcDbCircle
 10
-16.9424613656
 20
4.2045816218
 30
0.0
 40
14.04911299978727
100
AcDbArc
 50
173.6803845968
 51
176.0734115133
  0
ARC
  5
2DC
330
1F
100
AcDbEntity
  8
0
  6
Continuous
 62
     7
370
    25
100
AcDbCircle
 10
-29.0198780446
 20
11.44978819
 30
0.0
 40
6.002836194802416
100
AcDbArc
 50
234.5358889278
 51
251.6851285572
  0
ARC
  5
2DD
330
1F
100
AcDbEntity
  8
0
  6
Continuous
 62
     7
370
    25
100
AcDbCircle
 10
-16.9446528898
 20
4.2052449451
 30
0.0
 40
15.73530907719103
100
AcDbArc
 50
169.7020797961
 51
171.3912581443
  0
ARC
  5
2DE
330
1F
100
AcDbEntity
  8
0
  6
Continuous
 62
     7
370
    25
100
AcDbCircle
 10
-16.9185978715
 20
4.1953079191
 30
0.0
 40
14.04832079904909
100
AcDbArc
 50
327.0258316686
 51
329.4041192338
  0
ARC
  5
2DF
330
1F
100
AcDbEntity
  8
0
  6
Continuous
 62
     7
370
    25
100
AcDbCircle
 10
-2.9109937862
 20
2.7339241879
 30
0.0
 40
6.002624614466333
100
AcDbArc
 50
251.3947944744
 51
268.5444383439
  0
ARC
  5
2E0
330
1F
100
AcDbEntity
  8
0
  6
Continuous
 62
     7
370
    25
100
AcDbCircle
 10
-16.9166576614
 20
4.1944950347
 30
0.0
 40
15.73471272628955
100
AcDbArc
 50
331.6933132417
 51
333.3825342712
  0
ARC
  5
2E1
330
1F
100
AcDbEntity
  8
0
  6
Continuous
 62
     7
370
    25
100
AcDbCircle
 10
-16.9436961898
 20
4.2047773983
 30
0.0
 40
14.04786161828102
100
AcDbArc
 50
164.6762061261
 51
167.0432909094
  0
ARC
  5
2E2
330
1F
100
AcDbEntity
  8
0
  6
Continuous
 62
     7
370
    25
100
AcDbCircle
 10
-16.931168268
 20
4.199349001
 30
0.0
 40
1.500018192708379
100
AcDbArc
 50
341.0021412244
 51
157.3494310872
  0
ARC
  5
2E3
330
1F
100
AcDbEntity
  8
0
  6
Continuous
 62
     7
370
    25
100
AcDbCircle
 10
-27.7382009071
 20
13.2505439798
 30
0.0
 40
6.002337459869101
100
AcDbArc
 50
225.5395540919
 51
242.6897466298
  0
ARC
  5
2E4
330
1F
100
AcDbEntity
  8
0
  6
Continuous
 62
     7
370
    25
100
AcDbCircle
 10
-16.9454987589
 20
4.2054401651
 30
0.0
 40
15.73444023483986
100
AcDbArc
 50
160.6977334517
 51
162.3869739846
  0
ARC
  5
2E5
330
1F
100
AcDbEntity
  8
0
  6
Continuous
 62
     7
370
    25
100
AcDbCircle
 10
-16.9179603682
 20
4.194965346
 30
0.0
 40
14.04759650529766
100
AcDbArc
 50
336.0514054742
 51
338.408489843
  0
ARC
  5
2E6
330
1F
100
AcDbEntity
  8
0
  6
Continuous
 62
     7
370
    25
100
AcDbCircle
 10
-2.854134657
 20
4.9433359536
 30
0.0
 40
6.001920609933479
100
AcDbArc
 50
260.3902995752
 51
277.5412886694
  0
ARC
  5
2E7
330
1F
100
AcDbEntity
  8
0
  6
Continuous
 62
     7
370
    25
100
AcDbCircle
 10
-26.1906755887
 20
14.8283264695
 30
0.0
 40
6.001464520772355
100
AcDbArc
 50
216.5421645694
 51
233.6940253078
  0
ARC
  5
2E8
330
1F
100
AcDbEntity
  8
0
  6
Continuous
 62
     7
370
    25
100
AcDbCircle
 10
-3.1437148116
 20
7.1342177875
 30
0.0
 40
6.000883229898989
100
AcDbArc
 50
269.3863709419
 51
286.5393427614
  0
ARC
  5
2E9
330
1F
100
AcDbEntity
  8
0
  6
Continuous
 62
     7
370
    25
100
AcDbCircle
 10
-24.4154316103
 20
16.1444171258
 30
0.0
 40
6.000302874916219
100
AcDbArc
 50
207.5434647138
 51
224.6975460048
  0
ARC
  5
2EA
330
1F
100
AcDbEntity
  8
0
  6
Continuous
 62
     7
370
    25
100
AcDbCircle
 10
-3.7725166821
 20
9.2527161716
 30
0.0
 40
5.999600796655447
100
AcDbArc
 50
278.6542257189
 51
295.5388007827
  0
ARC
  5
2EB
330
1F
100
AcDbEntity
  8
0
  6
Continuous
 62
     7
370
    25
100
AcDbCircle
 10
-22.4561590629
 20
17.166531191
 30
0.0
 40
5.998949175994917
100
AcDbArc
 50
198.5433147435
 51
215.3640176692
  0
ARC
  5
2EC
330
1F
100
AcDbEntity
  8
0
  6
Continuous
 62
     7
370
    25
100
AcDbCircle
 10
-4.7250354434
 20
11.2468168938
 30
0.0
 40
5.998216419320316
100
AcDbArc
 50
287.7875954273
 51
304.5397036882
  0
ARC
  5
2ED
330
1F
100
AcDbEntity
  8
0
  6
Continuous
 62
     7
370
    25
100
AcDbCircle
 10
-20.3609857306
 20
17.869612015
 30
0.0
 40
5.997561707194275
100
AcDbArc
 50
189.5417473093
 51
206.2342827761
  0
ARC
  5
2EE
330
1F
100
AcDbEntity
  8
0
  6
Continuous
 62
     7
370
    25
100
AcDbCircle
 10
-5.9778545462
 20
13.0675441227
 30
0.0
 40
5.996861821241439
100
AcDbArc
 50
296.9124671079
 51
313.5419661134
  0
ARC
  5
2EF
330
1F
100
AcDbEntity
  8
0
  6
Continuous
 62
     7
370
    25
100
AcDbCircle
 10
-18.1813805002
 20
18.2363870265
 30
0.0
 40
5.996268767579292
100
AcDbArc
 50
180.5389102268
 51
197.1145410938
  0
ARC
  5
2F0
330
1F
100
AcDbEntity
  8
0
  6
Continuous
 62
     7
370
    25
100
AcDbCircle
 10
-7.5002193209
 20
14.6701640872
 30
0.0
 40
5.995670885889347
100
AcDbArc
 50
306.0257226857
 51
322.5453658527
  0
ARC
  5
2F1
330
1F
100
AcDbEntity
  8
0
  6
Continuous
 62
     7
370
    25
100
AcDbCircle
 10
-15.9708779074
 20
18.2578057983
 30
0.0
 40
5.99519798229013
100
AcDbArc
 50
171.5350819008
 51
188.0078395016
  0
ARC
  5
2F2
330
1F
100
AcDbEntity
  8
0
  6
Continuous
 62
     7
370
    25
100
AcDbCircle
 10
-9.2547722123
 20
16.0152597077
 30
0.0
 40
5.994760959941702
100
AcDbArc
 50
315.1244170662
 51
331.5495695092
  0
ARC
  5
2F3
330
1F
100
AcDbEntity
  8
0
  6
Continuous
 62
     7
370
    25
100
AcDbCircle
 10
-13.7837972721
 20
17.9332626502
 30
0.0
 40
5.994454645100284
100
AcDbArc
 50
162.5306375809
 51
178.9170097909
  0
ARC
  5
2F4
330
1F
100
AcDbEntity
  8
0
  6
Continuous
 62
     7
370
    25
100
AcDbCircle
 10
-11.1984551724
 20
17.0696984397
 30
0.0
 40
5.994234110524328
100
AcDbArc
 50
324.2058760954
 51
339.1756901474
  0
ARC
  5
2F5
330
1F
100
AcDbEntity
  8
0
  6
Continuous
 62
     7
370
    25
100
AcDbCircle
 10
-11.673892307
 20
17.2706196313
 30
0.0
 40
5.994149542611451
100
AcDbArc
 50
159.1758230297
 51
169.8445498302
  0
ARC
  5
2F6
330
1F
100
AcDbEntity
  8
0
  6
Continuous
 62
     7
370
    25
100
AcDbCircle
 10
-13.2834668156
 20
17.8074109244
 30
0.0
 40
5.99408349879923
100
AcDbArc
 50
333.2677319658
 51
339.1757808173
  0
MTEXT
  5
2F8
330
1F
100
AcDbEntity
  8
0
  6
Continuous
 62
     7
100
AcDbMText
 10
-32.6799699497
 20
-12.5628427902
 30
0.0
 40
4.83362
 41
0.0
 71
     1
 72
     1
  1
SOLIDWORKS Educational Product.
  7
SLDTEXTSTYLE0
 73
     1
 44
1.0
  0
MTEXT
  5
2F9
330
1F
100
AcDbEntity
  8
0
  6
Continuous
 62
     7
100
AcDbMText
 10
-32.6799699497
 20
-19.8132727902
 30
0.0
 40
4.83362
 41
0.0
 71
     1
 72
     1
  1
For Instructional Use Only.
  7
SLDTEXTSTYLE0
 73
     1
 44
1.0
  0
ENDSEC
  0
SECTION
  2
OBJECTS
  0
DICTIONARY
  5
C
330
0
100
AcDbDictionary
281
     1
  3
ACAD_GROUP
350
D
  3
ACAD_LAYOUT
350
1A
  3
ACAD_MLINESTYLE
350
17
  3
ACAD_PLOTSETTINGS
350
19
  3
ACAD_PLOTSTYLENAME
350
E
  3
ACAD_SCALELIST
350
47
  3
DWGPROPS
350
2FA
  0
DICTIONARY
  5
D
102
{ACAD_REACTORS
330
C
102
}
330
C
100
AcDbDictionary
281
     1
  0
DICTIONARY
  5
1A
102
{ACAD_REACTORS
330
C
102
}
330
C
100
AcDbDictionary
281
     1
  3
Layout1
350
1E
  3
Layout2
350
26
  3
Model
350
22
  0
DICTIONARY
  5
17
102
{ACAD_REACTORS
330
C
102
}
330
C
100
AcDbDictionary
281
     1
  3
Standard
350
18
  0
DICTIONARY
  5
19
102
{ACAD_REACTORS
330
C
102
}
330
C
100
AcDbDictionary
281
     1
  0
ACDBDICTIONARYWDFLT
  5
E
102
{ACAD_REACTORS
330
C
102
}
330
C
100
AcDbDictionary
281
     1
  3
Normal
350
F
100
AcDbDictionaryWithDefault
340
F
  0
DICTIONARY
  5
47
102
{ACAD_REACTORS
330
C
102
}
330
C
100
AcDbDictionary
281
     1
  3
A0
350
48
  3
A1
350
49
  3
A2
350
4A
  3
A3
350
4B
  3
A4
350
4C
  3
A5
350
4D
  3
A6
350
4E
  3
A7
350
4F
  3
A8
350
50
  3
A9
350
51
  3
B0
350
52
  3
B1
350
53
  3
B2
350
54
  3
B3
350
55
  3
B4
350
56
  3
B5
350
57
  3
B6
350
58
  0
XRECORD
  5
2FA
102
{ACAD_REACTORS
330
C
102
}
330
C
100
AcDbXrecord
280
     1
  1
DWGPROPS COOKIE
  2

  3

  4

  6

  7

  8
Nathan
  9

300
=
301
=
302
=
303
=
304
=
305
=
306
=
307
=
308
=
309
=
 40
0.0
 41
2459838.541065694
 42
2459838.541111042
  1

 90
        0
  0
LAYOUT
  5
1E
102
{ACAD_REACTORS
330
1A
102
}
330
1A
100
AcDbPlotSettings
  1

  2
none_device
  4

  6

 40
0.0
 41
0.0
 42
0.0
 43
0.0
 44
0.0
 45
0.0
 46
0.0
 47
0.0
 48
0.0
 49
0.0
140
0.0
141
0.0
142
1.0
143
1.0
 70
   688
 72
     1
 73
     0
 74
     5
  7

 75
    16
147
1.0
148
0.0
149
0.0
100
AcDbLayout
  1
Layout1
 70
     1
 71
     1
 10
0.0
 20
0.0
 11
420.0
 21
297.0
 12
0.0
 22
0.0
 32
0.0
 14
1.0000000000E+20
 24
1.0000000000E+20
 34
1.0000000000E+20
 15
-1.0000000000E+20
 25
-1.0000000000E+20
 35
-1.0000000000E+20
146
0.0
 13
0.0
 23
0.0
 33
0.0
 16
1.0
 26
0.0
 36
0.0
 17
0.0
 27
1.0
 37
0.0
 76
     0
330
1B
  0
LAYOUT
  5
26
102
{ACAD_REACTORS
330
1A
102
}
330
1A
100
AcDbPlotSettings
  1

  2
none_device
  4

  6

 40
0.0
 41
0.0
 42
0.0
 43
0.0
 44
0.0
 45
0.0
 46
0.0
 47
0.0
 48
0.0
 49
0.0
140
0.0
141
0.0
142
1.0
143
1.0
 70
   688
 72
     1
 73
     0
 74
     5
  7

 75
    16
147
1.0
148
0.0
149
0.0
100
AcDbLayout
  1
Layout2
 70
     1
 71
     2
 10
0.0
 20
0.0
 11
0.0
 21
0.0
 12
0.0
 22
0.0
 32
0.0
 14
0.0
 24
0.0
 34
0.0
 15
0.0
 25
0.0
 35
0.0
146
0.0
 13
0.0
 23
0.0
 33
0.0
 16
1.0
 26
0.0
 36
0.0
 17
0.0
 27
1.0
 37
0.0
 76
     0
330
23
  0
LAYOUT
  5
22
102
{ACAD_REACTORS
330
1A
102
}
330
1A
100
AcDbPlotSettings
  1

  2
none_device
  4
ANSI_A_(11.00_x_8.50_Inches)
  6

 40
6.35
 41
19.05
 42
6.35000508
 43
19.05000254
 44
279.4
 45
215.9
 46
247.8486842021
 47
60.1704747672
 48
0.0
 49
0.0
140
0.0
141
0.0
142
0.2665115408
143
1.0
 70
  1696
 72
     0
 73
     0
 74
     0
  7

 75
     0
147
0.0179189148
148
-1300.4909072572
149
0.0
100
AcDbLayout
  1
Model
 70
     1
 71
     0
 10
0.0
 20
0.0
 11
420.0
 21
297.0
 12
0.0
 22
0.0
 32
0.0
 14
-32.6799699497
 24
-11.5432763985
 34
0.0
 15
-1.1483760823
 25
20.0313412454
 35
0.0
146
0.0
 13
0.0
 23
0.0
 33
0.0
 16
1.0
 26
0.0
 36
0.0
 17
0.0
 27
1.0
 37
0.0
 76
     0
330
1F
331
29
  0
MLINESTYLE
  5
18
102
{ACAD_REACTORS
330
17
102
}
330
17
100
AcDbMlineStyle
  2
Standard
 70
     0
  3

 62
   256
 51
90.0
 52
90.0
 71
     2
 49
0.5
 62
   256
  6
BYLAYER
 49
-0.5
 62
   256
  6
BYLAYER
  0
ACDBPLACEHOLDER
  5
F
102
{ACAD_REACTORS
330
E
102
}
330
E
  0
SCALE
  5
48
102
{ACAD_REACTORS
330
47
102
}
330
47
100
AcDbScale
 70
     0
300
1:1
140
1.0
141
1.0
290
     1
  0
SCALE
  5
49
102
{ACAD_REACTORS
330
47
102
}
330
47
100
AcDbScale
 70
     0
300
1:2
140
1.0
141
2.0
290
     0
  0
SCALE
  5
4A
102
{ACAD_REACTORS
330
47
102
}
330
47
100
AcDbScale
 70
     0
300
1:4
140
1.0
141
4.0
290
     0
  0
SCALE
  5
4B
102
{ACAD_REACTORS
330
47
102
}
330
47
100
AcDbScale
 70
     0
300
1:5
140
1.0
141
5.0
290
     0
  0
SCALE
  5
4C
102
{ACAD_REACTORS
330
47
102
}
330
47
100
AcDbScale
 70
     0
300
1:8
140
1.0
141
8.0
290
     0
  0
SCALE
  5
4D
102
{ACAD_REACTORS
330
47
102
}
330
47
100
AcDbScale
 70
     0
300
1:10
140
1.0
141
10.0
290
     0
  0
SCALE
  5
4E
102
{ACAD_REACTORS
330
47
102
}
330
47
100
AcDbScale
 70
     0
300
1:16
140
1.0
141
16.0
290
     0
  0
SCALE
  5
4F
102
{ACAD_REACTORS
330
47
102
}
330
47
100
AcDbScale
 70
     0
300
1:20
140
1.0
141
20.0
290
     0
  0
SCALE
  5
50
102
{ACAD_REACTORS
330
47
102
}
330
47
100
AcDbScale
 70
     0
300
1:30
140
1.0
141
30.0
290
     0
  0
SCALE
  5
51
102
{ACAD_REACTORS
330
47
102
}
330
47
100
AcDbScale
 70
     0
300
1:40
140
1.0
141
40.0
290
     0
  0
SCALE
  5
52
102
{ACAD_REACTORS
330
47
102
}
330
47
100
AcDbScale
 70
     0
300
1:50
140
1.0
141
50.0
290
     0
  0
SCALE
  5
53
102
{ACAD_REACTORS
330
47
102
}
330
47
100
AcDbScale
 70
     0
300
1:100
140
1.0
141
100.0
290
     0
  0
SCALE
  5
54
102
{ACAD_REACTORS
330
47
102
}
330
47
100
AcDbScale
 70
     0
300
2:1
140
2.0
141
1.0
290
     0
  0
SCALE
  5
55
102
{ACAD_REACTORS
330
47
102
}
330
47
100
AcDbScale
 70
     0
300
4:1
140
4.0
141
1.0
290
     0
  0
SCALE
  5
56
102
{ACAD_REACTORS
330
47
102
}
330
47
100
AcDbScale
 70
     0
300
8:1
140
8.0
141
1.0
290
     0
  0
SCALE
  5
57
102
{ACAD_REACTORS
330
47
102
}
330
47
100
AcDbScale
 70
     0
300
10:1
140
10.0
141
1.0
290
     0
  0
SCALE
  5
58
102
{ACAD_REACTORS
330
47
102
}
330
47
100
AcDbScale
 70
     0
300
100:1
140
100.0
141
1.0
290
     0
  0
ENDSEC
  0
EOF
